<svg width="32" height="32" version="1" xmlns="http://www.w3.org/2000/svg">
 <defs>
  <linearGradient id="linearGradient1276" x1="344" x2="366" y1="94" y2="94" gradientTransform="matrix(.71429 0 0 .71429 -230.57 -90.14)" gradientUnits="userSpaceOnUse">
   <stop stop-color="#fff" offset="0"/>
   <stop stop-color="#fff" stop-opacity="0" offset="1"/>
  </linearGradient>
 </defs>
 <path d="m10 29-2-2h-4c-1.108 0-2-0.892-2-2v-18c0-1.108 0.892-2 2-2h24c1.108 0 2 0.892 2 2v18c0 1.108-0.892 2-2 2h-4l-2 2z" opacity=".2"/>
 <path d="m10 28-2-2h-4c-1.108 0-2-0.892-2-2v-18c0-1.108 0.892-2 2-2h24c1.108 0 2 0.892 2 2v18c0 1.108-0.892 2-2 2h-4l-2 2z" fill="#afafb1"/>
 <path d="m12 24-2-2h-4v-14h20v14h-4l-2 2z" opacity=".6"/>
 <g transform="scale(1,-1)" fill="#f8c44e">
  <rect x="9" y="-10" width="2" height="2"/>
  <rect x="12" y="-10" width="2" height="2"/>
  <rect x="15" y="-10" width="2" height="2"/>
  <rect x="18" y="-10" width="2" height="2"/>
  <rect x="21" y="-10" width="2" height="2"/>
 </g>
 <path d="m4 4c-1.108 0-2 0.892-2 2v1c0-1.108 0.892-2 2-2h24c1.108 0 2 0.892 2 2v-1c0-1.108-0.892-2-2-2h-24z" fill="#fff" opacity=".2"/>
 <path d="m6 22v1h4l2 2h8l2-2h4v-1h-4l-2 2h-8l-2-2z" fill="#fff" opacity=".2"/>
 <circle cx="23" cy="23" r="8.5" fill="#ed3146" stroke="#000" stroke-dashoffset="1" stroke-linecap="round" stroke-linejoin="round" stroke-opacity=".4"/>
 <circle transform="rotate(90)" cx="23" cy="-23" r="7.5" fill="none" opacity=".3" stroke="url(#linearGradient1276)" stroke-dashoffset="1" stroke-linecap="round" stroke-linejoin="round" stroke-opacity=".4"/>
 <path d="m25.828 18.757-2.8284 2.8284-2.8284-2.8284-1.4142 1.4142 2.8284 2.8284-2.8284 2.8284 1.4142 1.4142 2.8284-2.8284 2.8284 2.8284 1.4142-1.4142-2.8284-2.8284 2.8284-2.8284z" color="#000000" color-rendering="auto" dominant-baseline="auto" fill="#fff" image-rendering="auto" shape-rendering="auto" solid-color="#000000" style="font-feature-settings:normal;font-variant-alternates:normal;font-variant-caps:normal;font-variant-ligatures:normal;font-variant-numeric:normal;font-variant-position:normal;isolation:auto;mix-blend-mode:normal;shape-padding:0;text-decoration-color:#000000;text-decoration-line:none;text-decoration-style:solid;text-indent:0;text-orientation:mixed;text-transform:none;white-space:normal"/>
</svg>
