<svg width="48" height="48" version="1" xmlns="http://www.w3.org/2000/svg">
 <path d="m15.232 1c-4.1341 0-6.7143 0.18471-8.3125 1.6953-0.79909 0.7553-1.2851 1.8121-1.5645 3.2012s-0.36439 3.1284-0.35352 5.3535v25.502c-0.01082 2.2239 0.07431 3.963 0.35352 5.3516 0.2793 1.389 0.76535 2.4478 1.5645 3.2031 1.5982 1.5106 4.1784 1.6934 8.3125 1.6934h17.539c4.1331 0 6.7023-0.18449 8.2949-1.6953 0.7963-0.75541 1.2811-1.8109 1.5625-3.1992 0.28145-1.3883 0.37305-3.1288 0.37305-5.3535v-25.504c0-2.2247-0.0916-3.9632-0.37305-5.3516s-0.7662-2.4458-1.5625-3.2012c-1.5926-1.5108-4.1618-1.6953-8.2949-1.6953zm7.7773 8.5859 8.4141 8.4141-6 6 6 6-8.4141 8.4141v-12l-5 5-1.4141-1.4141 6-6-6-6 1.4141-1.4141 5 5zm2 4.8281v7.1719l3.5859-3.5859zm0 12v7.1719l3.5859-3.5859z" color="#000000" fill="#666" opacity=".5" style="-inkscape-stroke:none"/>
</svg>
