<svg width="48" height="48" version="1" xmlns="http://www.w3.org/2000/svg">
 <defs>
  <linearGradient id="linearGradient1214" x1="344" x2="366" y1="94" y2="94" gradientTransform="translate(-319,-130)" gradientUnits="userSpaceOnUse">
   <stop stop-color="#fff" offset="0"/>
   <stop stop-color="#fff" stop-opacity="0" offset="1"/>
  </linearGradient>
 </defs>
 <path d="m7 7s-3 0-3 3v24s0 3 3 3h5l4 4h16l4-4h5s3 0 3-3v-24c0-3-3-3-3-3z" fill="#e4e4e4"/>
 <path d="m10 14h28v18h-4.484l-4 4h-11.031l-4-4h-4.4854z" fill="#fff" opacity=".4"/>
 <path d="m10 13h28v18h-4.484l-4 4h-11.031l-4-4h-4.4854z" fill="#5d5d5d"/>
 <path d="m7 7s-3 0-3 3v1c0-3 3-3 3-3h34s3 0 3 3v-1c0-3-3-3-3-3z" fill="#fff" opacity=".1"/>
 <path d="m4 34v1s0 3 3 3h5l4 4h16l4-4h5s3 0 3-3v-1c0 3-3 3-3 3h-5l-4 4h-16l-4-4h-5c-3 0-3-3-3-3z" opacity=".2"/>
 <circle cx="36" cy="36" r="11.5" enable-background="new" fill="#eab305" stroke="#000" stroke-dashoffset="1" stroke-linecap="round" stroke-linejoin="round" stroke-opacity=".4"/>
 <circle transform="rotate(90)" cx="36" cy="-36" r="10.5" enable-background="new" fill="none" opacity=".3" stroke="url(#linearGradient1214)" stroke-dashoffset="1" stroke-linecap="round" stroke-linejoin="round" stroke-opacity=".4"/>
 <rect x="33" y="30" width="2" height="12" fill="#fff"/>
 <rect x="37" y="30" width="2" height="12" fill="#fff"/>
</svg>
