<?xml version="1.0" encoding="UTF-8" standalone="no"?>
<svg
   width="48"
   height="48"
   version="1.1"
   id="svg7"
   sodipodi:docname="night-light-disabled-symbolic.svg"
   inkscape:version="1.1 (c68e22c387, 2021-05-23)"
   xmlns:inkscape="http://www.inkscape.org/namespaces/inkscape"
   xmlns:sodipodi="http://sodipodi.sourceforge.net/DTD/sodipodi-0.dtd"
   xmlns="http://www.w3.org/2000/svg"
   xmlns:svg="http://www.w3.org/2000/svg">
  <sodipodi:namedview
     id="namedview9"
     pagecolor="#ffffff"
     bordercolor="#666666"
     borderopacity="1.0"
     inkscape:pageshadow="2"
     inkscape:pageopacity="0.0"
     inkscape:pagecheckerboard="0"
     showgrid="false"
     inkscape:zoom="10.833333"
     inkscape:cx="23.953846"
     inkscape:cy="24.046154"
     inkscape:window-width="1366"
     inkscape:window-height="703"
     inkscape:window-x="0"
     inkscape:window-y="0"
     inkscape:window-maximized="1"
     inkscape:current-layer="svg7" />
  <defs
     id="defs3">
    <style
       id="current-color-scheme"
       type="text/css">.ColorScheme-Text { color:#ffffff; } .ColorScheme-Highlight { color:#4285f4; } .ColorScheme-NeutralText { color:#ff9800; } .ColorScheme-PositiveText { color:#4caf50; } .ColorScheme-NegativeText { color:#f44336; }</style>
  </defs>
  <path
     class="ColorScheme-Text"
     d="m 24.0016,6 c 1.108,0 2,0.892 2,2 v 4.1836 a -12,12 0 0 0 -4,-0.0039 V 8 c 0,-1.108 0.892,-2 2,-2 z m 11.312,4.6836 c 0.51124,0 1.0223,0.19811 1.4141,0.58984 0.78348,0.78347 0.78348,2.0446 0,2.8281 l -4.3867,4.3867 a -10,10 0 0 1 -1.2695,12.582 -10,10 0 0 1 -12.574,1.2617 l -4.3945,4.3945 c -0.78347,0.78347 -2.0446,0.78347 -2.8281,0 -0.7835,-0.78347 -0.78347,-2.0446 0,-2.8281 l 22.625,-22.625 C 34.29164,10.8816 34.80272,10.6835 35.314,10.6835 Z m -22.625,0 c 0.51124,0 1.0223,0.19811 1.4141,0.58984 l 2.957,2.957 a -12,12 0 0 0 -1.543,1.2852 -12,12 0 0 0 -1.293,1.5352 l -2.9492,-2.9492 c -0.78347,-0.78347 -0.78347,-2.0446 0,-2.8281 0.39174,-0.39174 0.90282,-0.58984 1.4141,-0.58984 z M 24.1456,14 a -10,10 0 0 1 2.6484,0.41797 l -12.379,12.383 a -10,10 0 0 1 2.5156,-9.8711 -10,10 0 0 1 7.2148,-2.9297 z m 15.855,8 c 1.108,0 2,0.892 2,2 0,1.108 -0.892,2 -2,2 H 35.817 a -12,12 0 0 0 0.0039,-4 z m -27.816,0 a -12,12 0 0 0 -0.004,4 H 8.001 c -1.108,0 -2,-0.892 -2,-2 0,-1.108 0.892,-2 2,-2 z m 21.594,8.9492 2.9492,2.9492 c 0.78348,0.78347 0.78348,2.0446 0,2.8281 -0.78347,0.78347 -2.0446,0.78347 -2.8281,0 l -2.957,-2.957 a -12,12 0 0 0 1.543,-1.2852 -12,12 0 0 0 1.293,-1.5352 z m -11.777,4.8672 a -12,12 0 0 0 4,0.004 V 40 c 0,1.108 -0.892,2 -2,2 -1.108,0 -2,-0.892 -2,-2 z"
     fill="#666666"
     opacity="0.3"
     stroke-width="2"
     id="path5"
     style="opacity:0.5" />
</svg>
