<svg width="48" height="48" version="1.1" xmlns="http://www.w3.org/2000/svg">
<defs>
<style id="current-color-scheme" type="text/css">.ColorScheme-Text { color:#ffffff; } .ColorScheme-Highlight { color:#4285f4; } .ColorScheme-NeutralText { color:#ff9800; } .ColorScheme-PositiveText { color:#4caf50; } .ColorScheme-NegativeText { color:#f44336; }</style>
</defs>
<circle cx="24" cy="24" r="10" fill="#666" stroke-width="2.0209"/>
<path d="m26 35.816a12 12 0 0 1-4 4e-3v4.1796c0 1.108 0.892 2 2 2s2-0.892 2-2z" fill="#666" stroke-width="2"/>
<path d="m35.816 22a12 12 0 0 1 4e-3 4h4.1796c1.108 0 2-0.892 2-2s-0.892-2-2-2z" fill="#666" stroke-width="2"/>
<path d="m8 22c-1.108 0-2 0.892-2 2s0.892 2 2 2h4.1836a12 12 0 0 1-0.0039-4z" fill="#666" stroke-width="2"/>
<g fill="#666" stroke-width="2">
<path d="m14.223 30.949-2.9492 2.9492c-0.78348 0.78347-0.78348 2.0446 0 2.8281 0.78347 0.78347 2.0446 0.78347 2.8281 0l2.957-2.957a12 12 0 0 1-1.543-1.2852 12 12 0 0 1-1.293-1.5352z"/>
<path d="m35.312 10.684c-0.51124 0-1.0223 0.19811-1.4141 0.58984l-2.957 2.957a12 12 0 0 1 1.543 1.2852 12 12 0 0 1 1.293 1.5352l2.9492-2.9492c0.78347-0.78347 0.78347-2.0446 0-2.8281-0.39174-0.39174-0.90282-0.58984-1.4141-0.58984z"/>
</g>
<path d="m24 6c-1.108 0-2 0.892-2 2v4.1836a12 12 0 0 1 4-0.0039v-4.1797c0-1.108-0.892-2-2-2z" fill="#666" stroke-width="2"/>
<g transform="matrix(-1 0 0 1 48 0)" fill="#666" stroke-width="2">
<path d="m14.223 30.949-2.9492 2.9492c-0.78348 0.78347-0.78348 2.0446 0 2.8281 0.78347 0.78347 2.0446 0.78347 2.8281 0l2.957-2.957a12 12 0 0 1-1.543-1.2852 12 12 0 0 1-1.293-1.5352z"/>
<path d="m35.312 10.684c-0.51124 0-1.0223 0.19811-1.4141 0.58984l-2.957 2.957a12 12 0 0 1 1.543 1.2852 12 12 0 0 1 1.293 1.5352l2.9492-2.9492c0.78347-0.78347 0.78347-2.0446 0-2.8281-0.39174-0.39174-0.90282-0.58984-1.4141-0.58984z"/>
</g>
</svg>
