<?xml version="1.0" encoding="UTF-8" standalone="no"?>
<svg
   width="48"
   height="48"
   version="1"
   id="svg30"
   sodipodi:docname="non-starred.svg"
   inkscape:version="1.1 (c68e22c387, 2021-05-23)"
   xmlns:inkscape="http://www.inkscape.org/namespaces/inkscape"
   xmlns:sodipodi="http://sodipodi.sourceforge.net/DTD/sodipodi-0.dtd"
   xmlns:xlink="http://www.w3.org/1999/xlink"
   xmlns="http://www.w3.org/2000/svg"
   xmlns:svg="http://www.w3.org/2000/svg">
  <sodipodi:namedview
     id="namedview32"
     pagecolor="#ffffff"
     bordercolor="#666666"
     borderopacity="1.0"
     inkscape:pageshadow="2"
     inkscape:pageopacity="0.0"
     inkscape:pagecheckerboard="0"
     showgrid="false"
     inkscape:zoom="0.95754043"
     inkscape:cx="-94.51298"
     inkscape:cy="47.517576"
     inkscape:window-width="1366"
     inkscape:window-height="703"
     inkscape:window-x="0"
     inkscape:window-y="0"
     inkscape:window-maximized="1"
     inkscape:current-layer="svg30" />
  <defs
     id="defs16">
    <linearGradient
       id="linearGradient8588"
       x1="13.735"
       x2="38.099998"
       y1="249.69"
       y2="292.76999"
       gradientTransform="matrix(0.94488,0,0,0.94488,0.50001,-233.13)"
       gradientUnits="userSpaceOnUse"
       xlink:href="#linearGradient951">
      <stop
         stop-color="#f34f17"
         offset="0"
         id="stop2" />
      <stop
         stop-color="#fb7c38"
         offset="1"
         id="stop4" />
    </linearGradient>
    <linearGradient
       id="linearGradient8590"
       x1="96"
       x2="96"
       y1="4"
       y2="188"
       gradientTransform="matrix(.23913 0 0 .23913 1.0435 1.0435)"
       gradientUnits="userSpaceOnUse">
      <stop
         stop-color="#fff"
         offset="0"
         id="stop7" />
      <stop
         stop-color="#fff"
         stop-opacity=".098039"
         offset=".125"
         id="stop9" />
      <stop
         stop-color="#fff"
         stop-opacity=".098039"
         offset=".925"
         id="stop11" />
      <stop
         stop-color="#fff"
         stop-opacity=".49804"
         offset="1"
         id="stop13" />
    </linearGradient>
    <linearGradient
       id="linearGradient951"
       x1="494.34"
       x2="0"
       y1="313.29001"
       y2="313.29001"
       gradientTransform="matrix(0,-0.11328,-0.11328,0,-0.278897,33.482787)"
       gradientUnits="userSpaceOnUse">
      <stop
         stop-color="#999"
         offset="0"
         id="stop2-3" />
      <stop
         stop-color="#b7b7b7"
         offset=".61328"
         id="stop4-6" />
      <stop
         stop-color="#dbdbdb"
         offset="1"
         id="stop6" />
    </linearGradient>
    <linearGradient
       inkscape:collect="always"
       xlink:href="#linearGradient951"
       id="linearGradient867"
       gradientUnits="userSpaceOnUse"
       gradientTransform="matrix(0.94488,0,0,0.94488,0.50001,-233.13)"
       x1="13.735"
       y1="249.69"
       x2="38.099998"
       y2="292.76999" />
  </defs>
  <circle
     cx="24"
     cy="24"
     r="22.5"
     enable-background="new"
     fill="url(#linearGradient8588)"
     id="circle865"
     style="fill-opacity:1;fill:url(#linearGradient867)" />
  <circle
     transform="scale(-1)"
     cx="-24"
     cy="-25"
     r="23"
     enable-background="new"
     opacity=".1"
     id="circle18" />
  <path
     d="m32.849 37.95-8.9738-4.8332-9.0689 4.6524 1.8236-10.028-7.2271-7.1873 10.101-1.3645 4.6023-9.0944 4.4191 9.1848 10.071 1.5667-7.3697 7.0411z"
     enable-background="new"
     fill="#faf8f6"
     stroke="#fff"
     stroke-width=".20995"
     id="path22" />
  <path
     d="m2.1085 26a22 22 0 0 0 21.891 20 22 22 0 0 0 21.9-20z"
     enable-background="new"
     fill="#fff"
     opacity=".05"
     id="path24" />
  <circle
     cx="24"
     cy="24"
     r="22.5"
     enable-background="new"
     fill="none"
     opacity=".4"
     stroke="#000"
     stroke-dashoffset="6.6"
     stroke-linejoin="round"
     id="circle26" />
  <path
     d="m24 2a22 22 0 0 0-22 22 22 22 0 0 0 22 22 22 22 0 0 0 22-22 22 22 0 0 0-22-22zm0 0.95653a21.043 21.043 0 0 1 21.043 21.043 21.043 21.043 0 0 1-21.043 21.043 21.043 21.043 0 0 1-21.043-21.043 21.043 21.043 0 0 1 21.043-21.043z"
     enable-background="new"
     fill="url(#linearGradient8590)"
     id="path28" />
</svg>
