<svg width="16" height="16" version="1.1" xmlns="http://www.w3.org/2000/svg">
 <g transform="translate(-5.6299 -.38148)" fill="#666">
  <path d="m15.316 3.9901c-3.2339-7e-7 -5.8696 2.6357-5.8696 5.8696v0.65165h1.304v-0.65165c-4e-6 -2.529 2.0366-4.5657 4.5657-4.5657h0.65234v-1.304z"/>
  <path d="m15.316 6.5988c-1.7932-7e-7 -3.261 1.4678-3.261 3.261v0.65165h1.304v-0.65165c-4e-6 -1.0883 0.86872-1.957 1.957-1.957h0.65234v-1.304z"/>
  <path d="m15.316 1.3815c-4.6747-1e-6 -8.4783 3.8036-8.4783 8.4783v0.65165h1.304v-0.65165c0-3.9698 3.2045-7.1743 7.1743-7.1743h0.65234v-1.304z"/>
  <rect x="14.66" y="12.47" width="1.957" height="3.913"/>
  <circle cx="15.642" cy="10.186" r=".978"/>
 </g>
</svg>
