<svg width="48" height="48" version="1" xmlns="http://www.w3.org/2000/svg" xmlns:xlink="http://www.w3.org/1999/xlink">
 <defs>
  <linearGradient id="linearGradient36775-5" x1="321" x2="367" y1="106" y2="63" gradientTransform="translate(-320.06 -60)" gradientUnits="userSpaceOnUse">
   <stop stop-color="#2c001e" offset="0"/>
   <stop stop-color="#2c001e" offset=".10865"/>
   <stop stop-color="#370626" offset=".1869"/>
   <stop stop-color="#55163b" offset=".29807"/>
   <stop stop-color="#772953" offset=".37246"/>
   <stop stop-color="#7c2b51" offset=".44701"/>
   <stop stop-color="#8b314b" offset=".52429"/>
   <stop stop-color="#8b314b" offset=".59614"/>
   <stop stop-color="#a33a41" offset=".66876"/>
   <stop stop-color="#c44732" offset=".79755"/>
   <stop stop-color="#e65524" offset=".91251"/>
   <stop stop-color="#e65524" offset="1"/>
  </linearGradient>
  <linearGradient id="linearGradient3398-8" x1="321.35" x2="367" y1="75.834" y2="105" gradientTransform="translate(-320.06 -59.897)" gradientUnits="userSpaceOnUse">
   <stop stop-color="#666" offset="0"/>
   <stop stop-color="#7a7a7a" offset="1"/>
  </linearGradient>
 </defs>
 <path d="m9.8125 4c-2.9004 0-5.051-0.095-6.6562 1.1191-0.8135 0.61532-1.3536 1.5422-1.6641 2.7168-0.30924 1.1699-0.42774 2.6138-0.42774 4.4883v9.4062 3.2695 12.27c0 1.9522 0.0528 3.4414 0.26758 4.6445 0.21533 1.2059 0.62212 2.1846 1.3867 2.8652 0.76266 0.67895 1.7527 0.95992 2.8945 1.0918 1.1408 0.13175 2.4963 0.12891 4.1992 0.12891h28.504c1.6708 0 3.0101 2e-3 4.1445-0.12891h2e-3c1.1353-0.13187 2.1255-0.41132 2.8945-1.0859 0.77086-0.67622 1.193-1.653 1.4199-2.8613 0.22646-1.2056 0.28711-2.6992 0.28711-4.6543v-18.539c0-0.25826-0.0117-0.42611-0.0137-0.60547v-0.0117l0.0137-1.875c0.0133-1.8102 0.0187-3.2511-0.11523-4.4551-0.13399-1.2042-0.41663-2.2304-1.0957-3.0273-0.68195-0.80032-1.6746-1.2402-2.8906-1.4707-1.2124-0.22971-2.7045-0.28518-4.6465-0.28518h-15.902l-3-3z" color="#000000" color-rendering="auto" dominant-baseline="auto" image-rendering="auto" opacity=".1" shape-rendering="auto" solid-color="#000000" style="font-feature-settings:normal;font-variant-alternates:normal;font-variant-caps:normal;font-variant-ligatures:normal;font-variant-numeric:normal;font-variant-position:normal;isolation:auto;mix-blend-mode:normal;shape-padding:0;text-decoration-color:#000000;text-decoration-line:none;text-decoration-style:solid;text-indent:0;text-orientation:mixed;text-transform:none;white-space:normal"/>
 <path d="m47 33-12 12h4.6886c6.6316 0 7.3114-0.67952 7.3114-7.2979z" color="#000000" fill="#fff" opacity=".05"/>
 <path d="m9.7481 3c-2.9004 0-5.051-0.095-6.6562 1.1191-0.8135 0.61532-1.3536 1.5422-1.6641 2.7168-0.3093 1.1699-0.4278 2.6138-0.4278 4.4883v16.676h46v-10.27c0-0.25826-0.012-0.42611-0.014-0.60547v-0.0117l0.014-1.875c0.013-1.8102 0.019-3.2511-0.1152-4.4551-0.134-1.2042-0.4166-2.2304-1.0957-3.0273-0.6819-0.80032-1.6746-1.2402-2.8906-1.4707-1.2124-0.22968-2.7045-0.28516-4.6465-0.28516h-15.902l-3-3z" color="#000000" color-rendering="auto" dominant-baseline="auto" fill="url(#linearGradient36775-5)" image-rendering="auto" shape-rendering="auto" solid-color="#000000" style="font-feature-settings:normal;font-variant-alternates:normal;font-variant-caps:normal;font-variant-ligatures:normal;font-variant-numeric:normal;font-variant-position:normal;isolation:auto;mix-blend-mode:normal;shape-padding:0;text-decoration-color:#000000;text-decoration-line:none;text-decoration-style:solid;text-indent:0;text-orientation:mixed;text-transform:none;white-space:normal"/>
 <path d="m22.749 15.1-3 3h-9.9023c-2.0553 0.0479-3.4341 0.0555-4.6465 0.28516-1.216 0.23047-2.2087 0.67039-2.8906 1.4707-0.6791 0.79696-0.9618 1.8231-1.0957 3.0273-0.073 0.65514-0.1018 1.4-0.1133 2.2168h0.039c0.017-0.42337 0.034-0.85058 0.074-1.2168 0.134-1.2042 0.4166-2.2304 1.0957-3.0273 0.6819-0.80031 1.6746-1.2402 2.8906-1.4707 1.2124-0.22968 2.7143-0.48029 4.6465-0.28516h9.9023l3-3h15.602c2.9004 0 5.051-0.095 6.6562 1.1191 0.8135 0.61532 1.3536 1.5422 1.6641 2.7168 0.3092 1.1699 0.4277 2.6138 0.4277 4.4883v-1c0-1.8745-0.1185-3.3183-0.4277-4.4883-0.3105-1.1746-0.8506-2.1015-1.6641-2.7168-1.6052-1.2142-3.7558-1.1191-6.6562-1.1191z" color="#000000" color-rendering="auto" dominant-baseline="auto" fill="#732206" image-rendering="auto" opacity=".1" shape-rendering="auto" solid-color="#000000" style="font-feature-settings:normal;font-variant-alternates:normal;font-variant-caps:normal;font-variant-ligatures:normal;font-variant-numeric:normal;font-variant-position:normal;isolation:auto;mix-blend-mode:normal;shape-padding:0;text-decoration-color:#000000;text-decoration-line:none;text-decoration-style:solid;text-indent:0;text-orientation:mixed;text-transform:none;white-space:normal"/>
 <path d="m9.7121 2.9996c-2.9004 0-5.051-0.095-6.6562 1.1191-0.8135 0.61532-1.3536 1.5422-1.6641 2.7168-0.3093 1.1699-0.4278 2.6138-0.4278 4.4883v1c0-1.8745 0.1185-3.3183 0.4278-4.4883 0.3105-1.1746 0.8505-2.1015 1.6641-2.7168 1.6052-1.2142 3.7558-1.1191 6.6562-1.1191h9.6016l3 3h15.902c1.942 0 3.4341 0.0555 4.6465 0.28516 1.216 0.23047 2.2087 0.67039 2.8906 1.4707 0.6791 0.79696 0.9617 1.8231 1.0957 3.0273 0.067 0.60198 0.1 1.263 0.1133 2 0-1.1279-0.019-2.1528-0.1133-3-0.134-1.2042-0.4166-2.2304-1.0957-3.0273-0.81448-0.80031-1.6746-1.2402-2.8906-1.4707-1.2124-0.22968-2.7045-0.28516-4.6465-0.28516h-15.902l-3-3zm37.244 14.367-0.01 0.74609v0.0117c0 0.17936 0.014 0.34721 0.014 0.60547v-1c0-0.15495 0-0.25141-0.01-0.36328z" color="#000000" color-rendering="auto" dominant-baseline="auto" fill="#fff" image-rendering="auto" opacity=".2" shape-rendering="auto" solid-color="#000000" style="font-feature-settings:normal;font-variant-alternates:normal;font-variant-caps:normal;font-variant-ligatures:normal;font-variant-numeric:normal;font-variant-position:normal;isolation:auto;mix-blend-mode:normal;shape-padding:0;text-decoration-color:#000000;text-decoration-line:none;text-decoration-style:solid;text-indent:0;text-orientation:mixed;text-transform:none;white-space:normal"/>
 <path d="m1.1852 35.394v1c0 1.9522 0.053 3.4414 0.2675 4.6445 0.2154 1.2059 0.6222 2.1846 1.3868 2.8652 0.7626 0.67895 1.7527 0.95992 2.8945 1.0918 1.1408 0.13175 2.4963 0.12891 4.1992 0.12891h28.504c1.6708 0 3.0101 2e-3 4.1445-0.12891 1.1353-0.13187 2.1255-0.41132 2.8946-1.0859 0.7708-0.67622 1.1929-1.653 1.4199-2.8613 0.2265-1.2056 0.2871-2.6992 0.2871-4.6543v-1c0 1.9551-0.061 3.4487-0.2871 4.6543-0.227 1.2083-0.6491 2.1851-1.4199 2.8613-0.7691 0.67461-1.7593 0.95406-2.8946 1.0859-1.1344 0.13091-2.4737 0.12891-4.1445 0.12891h-28.504c-1.7029 0-3.0584 3e-3 -4.1992-0.12891-1.1418-0.13187-2.1319-0.41284-2.8945-1.0918-0.7646-0.68069-1.1714-1.6594-1.3868-2.8652-0.2147-1.2032-0.2676-2.6923-0.2675-4.6445z" color="#000000" color-rendering="auto" dominant-baseline="auto" image-rendering="auto" opacity=".2" shape-rendering="auto" solid-color="#000000" style="font-feature-settings:normal;font-variant-alternates:normal;font-variant-caps:normal;font-variant-ligatures:normal;font-variant-numeric:normal;font-variant-position:normal;isolation:auto;mix-blend-mode:normal;shape-padding:0;text-decoration-color:#000000;text-decoration-line:none;text-decoration-style:solid;text-indent:0;text-orientation:mixed;text-transform:none;white-space:normal"/>
 <path d="m38.258 16.103c2.9004 0 5.051-0.095 6.6562 1.1191 0.8135 0.61532 1.3536 1.5422 1.6641 2.7168 0.3092 1.1699 0.4277 2.6138 0.4277 4.4883v9.4062-1.7305 4.2695c0 1.9522-0.053 3.4414-0.2676 4.6445-0.2153 1.2059-0.6221 2.1846-1.3867 2.8652-0.7627 0.67895-1.7527 0.95992-2.8945 1.0918-1.1408 0.13175-2.4963 0.12891-4.1992 0.12891h-28.504c-1.6707 0-3.0101 2e-3 -4.1445-0.12891-1.1352-0.13187-2.1255-0.41132-2.8945-1.0859-0.7709-0.67622-1.193-1.653-1.4199-2.8613-0.2265-1.2056-0.2871-2.6992-0.2871-4.6543v-5.5391c0-0.25826 0.012-0.42611 0.014-0.60547v-0.0117l-0.014-1.875c-0.013-1.8102-0.019-3.2511 0.1152-4.4551 0.134-1.2042 0.4166-2.2304 1.0957-3.0273 0.6819-0.80032 1.6746-1.2402 2.8906-1.4707 1.2125-0.22968 3.0082-0.28516 4.6466-0.28516h9.9023l3-3z" color="#000000" color-rendering="auto" dominant-baseline="auto" fill="url(#linearGradient3398-8)" image-rendering="auto" shape-rendering="auto" solid-color="#000000" style="font-feature-settings:normal;font-variant-alternates:normal;font-variant-caps:normal;font-variant-ligatures:normal;font-variant-numeric:normal;font-variant-position:normal;isolation:auto;mix-blend-mode:normal;shape-padding:0;text-decoration-color:#000000;text-decoration-line:none;text-decoration-style:solid;text-indent:0;text-orientation:mixed;text-transform:none;white-space:normal"/>
 <path d="m47.117 32.103-12 12h4.6886c6.6316 0 7.3114-0.67952 7.3114-7.2979z" color="#000000" fill="#fff" opacity=".05"/>
 <path d="m1 35.373v1c0 1.9522 0.053 3.4414 0.2675 4.6445 0.2154 1.2059 0.6222 2.1846 1.3868 2.8652 0.7626 0.67895 1.7527 0.95992 2.8945 1.0918 1.1408 0.13175 2.4963 0.12891 4.1992 0.12891h28.504c1.6708 0 3.0101 2e-3 4.1445-0.12891 1.1353-0.13187 2.1255-0.41132 2.8946-1.0859 0.7708-0.67622 1.1929-1.653 1.4199-2.8613 0.2265-1.2056 0.2871-2.6992 0.2871-4.6543v-1c0 1.9551-0.061 3.4487-0.2871 4.6543-0.227 1.2083-0.6491 2.1851-1.4199 2.8613-0.7691 0.67461-1.7593 0.95406-2.8946 1.0859-1.1344 0.13091-2.4737 0.12891-4.1445 0.12891h-28.504c-1.7029 0-3.0584 3e-3 -4.1992-0.12891-1.1418-0.13187-2.1319-0.41284-2.8945-1.0918-0.7646-0.68069-1.1714-1.6594-1.3868-2.8652-0.2147-1.2032-0.2676-2.6923-0.2675-4.6445z" color="#000000" color-rendering="auto" dominant-baseline="auto" image-rendering="auto" opacity=".2" shape-rendering="auto" solid-color="#000000" style="font-feature-settings:normal;font-variant-alternates:normal;font-variant-caps:normal;font-variant-ligatures:normal;font-variant-numeric:normal;font-variant-position:normal;isolation:auto;mix-blend-mode:normal;shape-padding:0;text-decoration-color:#000000;text-decoration-line:none;text-decoration-style:solid;text-indent:0;text-orientation:mixed;text-transform:none;white-space:normal"/>
 <path d="m22.656 16.103-3 3h-9.9023c-1.7554-0.10674-3.4341 0.0555-4.6465 0.28516-1.216 0.23047-2.2087 0.67039-2.8906 1.4707-0.6791 0.79696-0.9618 1.8231-1.0957 3.0273-0.073 0.65514-0.1018 1.4-0.1133 2.2168h0.039c0.017-0.42337 0.034-0.85058 0.074-1.2168 0.134-1.2042 0.4166-2.2304 1.0957-3.0273 0.6819-0.80031 1.6746-1.2402 2.8906-1.4707 1.2124-0.22968 2.7143-0.48029 4.6465-0.28516h9.9023l3-3h15.602c2.9004 0 5.051-0.095 6.6562 1.1191 0.8135 0.61532 1.3536 1.5422 1.6641 2.7168 0.3092 1.1699 0.4277 2.6138 0.4277 4.4883v-1c0-1.8745-0.1185-3.3183-0.4277-4.4883-0.3105-1.1746-0.8506-2.1015-1.6641-2.7168-1.6052-1.2142-3.7558-1.1191-6.6562-1.1191z" color="#000000" color-rendering="auto" dominant-baseline="auto" fill="#fff" image-rendering="auto" opacity=".2" shape-rendering="auto" solid-color="#000000" style="font-feature-settings:normal;font-variant-alternates:normal;font-variant-caps:normal;font-variant-ligatures:normal;font-variant-numeric:normal;font-variant-position:normal;isolation:auto;mix-blend-mode:normal;shape-padding:0;text-decoration-color:#000000;text-decoration-line:none;text-decoration-style:solid;text-indent:0;text-orientation:mixed;text-transform:none;white-space:normal"/>
 <path d="m20.994 40c-1.2582-0.01453-2.1789 0.03056-2.9316-0.38477-0.37637-0.20766-0.67323-0.55938-0.83789-0.99805-0.16467-0.43867-0.22461-0.95958-0.22461-1.6172v-10c0-0.65761 0.0599-1.1786 0.22461-1.6172 0.16468-0.43861 0.46153-0.78853 0.83789-0.99609 0.75272-0.41514 1.6735-0.37165 2.9316-0.38672h5.7559l4.25 4.25v8.75c0 0.65761-0.0599 1.1786-0.22461 1.6172-0.16468 0.43861-0.46153 0.78853-0.83789 0.99609-0.75272 0.41513-1.6736 0.37165-2.9316 0.38672h-6.0079zm0.0059-1h6c1.2586-0.01523 2.0891-0.05988 2.4551-0.26172 0.18342-0.10116 0.28722-0.21286 0.38476-0.47266 0.09755-0.2598 0.16016-0.67323 0.16016-1.2656v-8h-4v-4h-5c-1.2586 0.01523-2.0891 0.05988-2.4551 0.26172-0.18342 0.10116-0.28722 0.21286-0.38476 0.47266-0.0976 0.2598-0.16016 0.67323-0.16016 1.2656v10c0 0.59239 0.0626 1.0057 0.16016 1.2656 0.0976 0.25991 0.20135 0.37146 0.38476 0.47266 0.36596 0.20191 1.1966 0.24702 2.4551 0.26172zm-1-4v-1h8v1zm0-2v-1h8v1zm0-2v-1h8v1zm0 6v-1h4v1z" color="#000000" fill="#fff" opacity=".75"/>
</svg>
