<svg width="48" height="48" version="1" xmlns="http://www.w3.org/2000/svg" xmlns:xlink="http://www.w3.org/1999/xlink">
 <defs>
  <linearGradient id="linearGradient6909" x1="2321" x2="2321" y1="464" y2="466" gradientTransform="translate(-2320 -420)" gradientUnits="userSpaceOnUse">
   <stop stop-color="#8a826a" offset="0"/>
   <stop stop-color="#a69f8a" offset="1"/>
  </linearGradient>
  <linearGradient id="linearGradient6911" x1="2343" x2="2343" y1="459" y2="465" gradientTransform="translate(-2320 -420)" gradientUnits="userSpaceOnUse" xlink:href="#linearGradient3634"/>
  <linearGradient id="linearGradient3634">
   <stop stop-color="#746c58" offset="0"/>
   <stop stop-color="#8a836a" offset="1"/>
  </linearGradient>
  <linearGradient id="linearGradient6913" x1="2340" x2="2340" y1="463" y2="467" gradientTransform="translate(-2320 -420)" gradientUnits="userSpaceOnUse" xlink:href="#linearGradient3634"/>
  <linearGradient id="linearGradient6907" x1="2321" x2="2367" y1="462" y2="423" gradientTransform="matrix(1 0 0 1.3012 -2320 -547.42)" gradientUnits="userSpaceOnUse">
   <stop stop-color="#2c001e" offset="0"/>
   <stop stop-color="#2c001e" offset=".10865"/>
   <stop stop-color="#370626" offset=".1869"/>
   <stop stop-color="#55163b" offset=".29807"/>
   <stop stop-color="#772953" offset=".37246"/>
   <stop stop-color="#7c2b51" offset=".44701"/>
   <stop stop-color="#8b314b" offset=".52429"/>
   <stop stop-color="#8b314b" offset=".59614"/>
   <stop stop-color="#a33a41" offset=".66876"/>
   <stop stop-color="#c44732" offset=".79755"/>
   <stop stop-color="#e65524" offset=".91251"/>
   <stop stop-color="#e65524" offset="1"/>
  </linearGradient>
  <linearGradient id="linearGradient6895" x1="2321" x2="2367" y1="430" y2="461" gradientTransform="matrix(1 0 0 .81246 -2320 -333.54)" gradientUnits="userSpaceOnUse">
   <stop stop-color="#666" offset="0"/>
   <stop stop-color="#7a7a7a" offset="1"/>
  </linearGradient>
 </defs>
 <path d="m21 44c-0.554 0-1 0.446-1 1h-19v2h19c0 0.554 0.446 1 1 1h6c0.554 0 1-0.446 1-1h19v-2h-19c0-0.554-0.446-1-1-1z" enable-background="new" opacity=".1"/>
 <rect x="1.0002" y="44" width="46" height="2" enable-background="new" fill="url(#linearGradient6909)"/>
 <rect x="1.0002" y="44" width="46" height="1" enable-background="new" fill="#fff" opacity=".3"/>
 <rect x="23" y="39" width="2" height="6" rx="1" ry="1" enable-background="new" fill="url(#linearGradient6911)"/>
 <rect x="20" y="43" width="8" height="4" rx="1" ry=".98353" enable-background="new" fill="url(#linearGradient6913)"/>
 <path d="m21 43c-0.554 0-1 0.4395-1 0.98438v1c0-0.54488 0.446-0.98438 1-0.98438h6c0.554 0 1 0.4395 1 0.98438v-1c0-0.54488-0.446-0.98438-1-0.98438z" enable-background="new" fill="#fff" opacity=".7"/>
 <path d="m9.813 3.9999c-2.9004 0-5.051-0.095-6.6563 1.1191-0.8134 0.6153-1.3535 1.5422-1.664 2.7168-0.3092 1.1699-0.4277 2.6138-0.4277 4.4883v9.4062 3.2696 8.2695c0 1.9522 0.053 3.4414 0.2675 4.6445 0.2154 1.2059 0.6221 2.1846 1.3867 2.8653 0.7627 0.6789 1.7527 0.9599 2.8946 1.0917 1.1407 0.1318 2.4963 0.129 4.1992 0.129h28.504c1.6708 0 3.0101 0 4.1445-0.129 1.1353-0.1318 2.1255-0.4113 2.8946-1.0859 0.7708-0.6762 1.1929-1.653 1.4199-2.8613 0.2264-1.2056 0.2871-2.6992 0.2871-4.6543v-14.539c0-0.2582-0.012-0.4261-0.014-0.6054v-0.012l0.014-1.875c0.013-1.8103 0.019-3.2512-0.1152-4.4551-0.134-1.2043-0.4167-2.2304-1.0957-3.0274-0.682-0.8003-1.6746-1.2402-2.8907-1.4707-1.2123-0.2297-2.7045-0.2851-4.6465-0.2851h-15.902l-3-3z" color="#000000" color-rendering="auto" dominant-baseline="auto" image-rendering="auto" opacity=".1" shape-rendering="auto" solid-color="#000000" style="font-feature-settings:normal;font-variant-alternates:normal;font-variant-caps:normal;font-variant-ligatures:normal;font-variant-numeric:normal;font-variant-position:normal;isolation:auto;mix-blend-mode:normal;shape-padding:0;text-decoration-color:#000000;text-decoration-line:none;text-decoration-style:solid;text-indent:0;text-orientation:mixed;text-transform:none;white-space:normal"/>
 <path d="m9.813 3.0004c-2.9004 0-5.051-0.1236-6.6563 1.4562-0.8134 0.8007-1.3535 2.0067-1.664 3.5352-0.3092 1.5223-0.4277 3.4011-0.4277 5.8403v11.289h46v-2.9532c0-0.33597-0.012-0.55445-0.014-0.78777v-0.0156l0.014-2.4398c0.013-2.3557 0.019-4.2305-0.1153-5.797-0.134-1.5671-0.4166-2.9023-1.0957-3.9394-0.6819-1.0413-1.6746-1.6138-2.8906-1.9137-1.2124-0.2989-2.7045-0.3709-4.6465-0.3709h-15.902l-3-3.9037z" color="#000000" color-rendering="auto" dominant-baseline="auto" fill="url(#linearGradient6907)" image-rendering="auto" shape-rendering="auto" solid-color="#000000" style="font-feature-settings:normal;font-variant-alternates:normal;font-variant-caps:normal;font-variant-ligatures:normal;font-variant-numeric:normal;font-variant-position:normal;isolation:auto;mix-blend-mode:normal;shape-padding:0;text-decoration-color:#000000;text-decoration-line:none;text-decoration-style:solid;text-indent:0;text-orientation:mixed;text-transform:none;white-space:normal"/>
 <path d="m23.002 15.814-3.002 2.4373h-10.187c-6.8128 0-7.748-2.5e-4 -7.748 6.2806v0.81245c0-6.2809 0.9352-6.2806 7.748-6.2806h10.187l3.002-2.4374h15.314c6.6839 0 7.7481-2.5e-4 7.7481 6.2806v-0.81245c0-6.2809-1.0642-6.2806-7.7481-6.2806z" color="#000000" fill="#fff" opacity=".3"/>
 <path d="m38.323 15.814c2.9004 0 5.051-0.077 6.6562 0.90917 0.8135 0.49991 1.3536 1.253 1.6641 2.2073 0.3092 0.95049 0.4277 2.1236 0.4277 3.6466v7.6421 3.4689 0.21896c0 1.5861-0.053 2.796-0.2676 3.7735-0.2153 0.97973-0.6221 1.7749-1.3867 2.3279-0.7626 0.55159-1.7527 0.77988-2.8945 0.88696-1.1408 0.10709-2.4963 0.10481-4.1992 0.10481h-28.504c-1.6708 0-3.0102 0-4.1446-0.10481-1.1353-0.10708-2.1255-0.33415-2.8945-0.88224-0.7709-0.54938-1.193-1.343-1.4199-2.3247-0.2265-0.9795-0.2871-2.193-0.2871-3.7814v-6.1252c0-0.20977 0.012-0.34619 0.014-0.49187v-0.01l-0.014-1.5234c-0.013-1.4708-0.019-2.6415 0.1152-3.6196 0.134-0.97844 0.4166-1.8121 1.0957-2.4596 0.6819-0.65021 1.6746-1.0076 2.8906-1.1949 1.2125-0.18662 2.7143-0.39023 4.6466-0.23164h9.9023l3-2.4373z" color="#000000" color-rendering="auto" dominant-baseline="auto" fill="url(#linearGradient6895)" image-rendering="auto" shape-rendering="auto" solid-color="#000000" style="font-feature-settings:normal;font-variant-alternates:normal;font-variant-caps:normal;font-variant-ligatures:normal;font-variant-numeric:normal;font-variant-position:normal;isolation:auto;mix-blend-mode:normal;shape-padding:0;text-decoration-color:#000000;text-decoration-line:none;text-decoration-style:solid;text-indent:0;text-orientation:mixed;text-transform:none;white-space:normal"/>
 <path d="m47 28-12 12h4.6886c6.6316 0 7.3114-0.6796 7.3114-7.2979z" color="#000000" fill="#fff" opacity=".05"/>
 <path d="m1.065 33.094v0.81246c0 1.5861 0.053 2.796 0.2675 3.7735 0.2154 0.97973 0.6222 1.7749 1.3868 2.3279 0.7626 0.55159 1.7527 0.77988 2.8945 0.88696 1.1408 0.10709 2.4963 0.10481 4.1992 0.10481h28.504c1.6708 0 3.0101 0 4.1445-0.10481 1.1353-0.10708 2.1255-0.33415 2.8946-0.88224 0.7708-0.54938 1.1929-1.343 1.4199-2.3247 0.2264-0.9795 0.2871-2.193 0.2871-3.7814v-0.81246c0 1.5884-0.061 2.8019-0.2871 3.7814-0.227 0.98169-0.6491 1.7753-1.4199 2.3247-0.7691 0.54808-1.7593 0.77515-2.8946 0.88224-1.1344 0.10643-2.4737 0.1048-4.1445 0.1048h-28.504c-1.7029 0-3.0584 0-4.1992-0.1048-1.1419-0.10709-2.1319-0.33538-2.8946-0.88696-0.7645-0.55304-1.1713-1.3482-1.3867-2.3279-0.2147-0.97747-0.2675-2.1874-0.2675-3.7735z" color="#000000" color-rendering="auto" dominant-baseline="auto" image-rendering="auto" opacity=".2" shape-rendering="auto" solid-color="#000000" style="font-feature-settings:normal;font-variant-alternates:normal;font-variant-caps:normal;font-variant-ligatures:normal;font-variant-numeric:normal;font-variant-position:normal;isolation:auto;mix-blend-mode:normal;shape-padding:0;text-decoration-color:#000000;text-decoration-line:none;text-decoration-style:solid;text-indent:0;text-orientation:mixed;text-transform:none;white-space:normal"/>
 <path d="m22.721 15.814-3 2.4373h-9.9023c-1.9322-0.15859-3.4341 0.0447-4.6465 0.23163-1.216 0.18728-2.2087 0.54467-2.8906 1.1949-0.6791 0.64753-0.9618 1.4812-1.0958 2.4596-0.073 0.53223-0.1017 1.1374-0.1132 1.801h0.039c0.017-0.344 0.034-0.69108 0.074-0.9886 0.134-0.97844 0.4166-1.8121 1.0957-2.4596 0.6819-0.6502 1.6746-1.0076 2.8906-1.1949 1.2124-0.18661 2.7143-0.39021 4.6465-0.23162h9.9023l3-2.4374h15.602c2.9004 0 5.051-0.0772 6.6562 0.90922 0.8135 0.49991 1.3536 1.253 1.6641 2.2073 0.3092 0.95049 0.4277 2.1236 0.4277 3.6466v-0.81245c0-1.523-0.1185-2.6961-0.4277-3.6466-0.3105-0.95432-0.8506-1.7074-1.6641-2.2073-1.6052-0.98647-3.7558-0.90917-6.6562-0.90917z" color="#000000" color-rendering="auto" dominant-baseline="auto" fill="#fff" image-rendering="auto" opacity=".2" shape-rendering="auto" solid-color="#000000" style="font-feature-settings:normal;font-variant-alternates:normal;font-variant-caps:normal;font-variant-ligatures:normal;font-variant-numeric:normal;font-variant-position:normal;isolation:auto;mix-blend-mode:normal;shape-padding:0;text-decoration-color:#000000;text-decoration-line:none;text-decoration-style:solid;text-indent:0;text-orientation:mixed;text-transform:none;white-space:normal"/>
 <path d="m22.721 15.001-3 2.4374h-9.9023c-1.9322-0.15859-3.4341 0.0447-4.6465 0.23162-1.216 0.18728-2.2087 0.54468-2.8906 1.1949-0.6791 0.64753-0.9618 1.4812-1.0958 2.4596-0.073 0.53223-0.1017 1.1374-0.1132 1.801h0.039c0.017-0.344 0.034-0.69107 0.074-0.98859 0.134-0.97845 0.4166-1.8121 1.0957-2.4596 0.6819-0.65021 1.6746-1.0076 2.8906-1.1949 1.2124-0.18662 2.7143-0.39022 4.6465-0.23163h9.9023l3-2.4373h15.602c2.9004 0 5.051-0.077 6.6562 0.90917 0.8135 0.49991 1.3536 1.253 1.6641 2.2073 0.3092 0.95049 0.4277 2.1236 0.4277 3.6466v-0.81247c0-1.523-0.1185-2.696-0.4277-3.6465-0.3105-0.95431-0.8506-1.7074-1.6641-2.2072-1.6052-0.9866-3.7558-0.9093-6.6562-0.9093z" color="#000000" color-rendering="auto" dominant-baseline="auto" fill="#732206" image-rendering="auto" opacity=".1" shape-rendering="auto" solid-color="#000000" style="font-feature-settings:normal;font-variant-alternates:normal;font-variant-caps:normal;font-variant-ligatures:normal;font-variant-numeric:normal;font-variant-position:normal;isolation:auto;mix-blend-mode:normal;shape-padding:0;text-decoration-color:#000000;text-decoration-line:none;text-decoration-style:solid;text-indent:0;text-orientation:mixed;text-transform:none;white-space:normal"/>
 <path d="m9.813 2.9999c-2.9004 0-5.051-0.095-6.6563 1.1191-0.8134 0.6153-1.3535 1.5422-1.664 2.7168-0.3092 1.1699-0.4277 2.6138-0.4277 4.4883v1c0-1.8745 0.1185-3.3184 0.4277-4.4883 0.3105-1.1746 0.8506-2.1015 1.664-2.7168 1.6053-1.2142 3.7559-1.1191 6.6563-1.1191h9.6016l3 3h15.902c1.942 0 3.4341 0.055 4.6465 0.2851 1.216 0.2305 2.2087 0.6704 2.8906 1.4707 0.6791 0.797 0.9617 1.8231 1.0957 3.0274 0.067 0.6019 0.099 1.263 0.1133 2 0-1.128-0.019-2.1529-0.1133-3-0.134-1.2043-0.4166-2.2304-1.0957-3.0274-0.6819-0.8003-1.6746-1.2402-2.8906-1.4707-1.2124-0.2297-2.7045-0.2851-4.6465-0.2851h-15.902l-3-3zm37.244 14.367-0.01 0.7461v0.012c0 0.1794 0.014 0.3472 0.014 0.6055v-1c0-0.1549 0-0.2514-0.01-0.3633z" color="#000000" color-rendering="auto" dominant-baseline="auto" fill="#fff" image-rendering="auto" opacity=".2" shape-rendering="auto" solid-color="#000000" style="font-feature-settings:normal;font-variant-alternates:normal;font-variant-caps:normal;font-variant-ligatures:normal;font-variant-numeric:normal;font-variant-position:normal;isolation:auto;mix-blend-mode:normal;shape-padding:0;text-decoration-color:#000000;text-decoration-line:none;text-decoration-style:solid;text-indent:0;text-orientation:mixed;text-transform:none;white-space:normal"/>
</svg>
