<svg width="48" height="48" version="1" xmlns="http://www.w3.org/2000/svg" xmlns:xlink="http://www.w3.org/1999/xlink">
 <defs>
  <linearGradient id="linearGradient13838" x1="321" x2="367" y1="106" y2="63" gradientTransform="translate(-320 -60)" gradientUnits="userSpaceOnUse">
   <stop stop-color="#2c001e" offset="0"/>
   <stop stop-color="#2c001e" offset=".10865"/>
   <stop stop-color="#370626" offset=".1869"/>
   <stop stop-color="#55163b" offset=".29807"/>
   <stop stop-color="#772953" offset=".37246"/>
   <stop stop-color="#7c2b51" offset=".44701"/>
   <stop stop-color="#8b314b" offset=".52429"/>
   <stop stop-color="#8b314b" offset=".59614"/>
   <stop stop-color="#a33a41" offset=".66876"/>
   <stop stop-color="#c44732" offset=".79755"/>
   <stop stop-color="#e65524" offset=".91251"/>
   <stop stop-color="#e65524" offset="1"/>
  </linearGradient>
  <linearGradient id="linearGradient13848" x1="321" x2="367" y1="70" y2="105" gradientTransform="translate(-320 -60)" gradientUnits="userSpaceOnUse">
   <stop stop-color="#666" offset="0"/>
   <stop stop-color="#7a7a7a" offset="1"/>
  </linearGradient>
 </defs>
 <path d="m9.8125 4.0002c-2.9004 0-5.051-0.095-6.6562 1.1191-0.8135 0.61532-1.3536 1.5422-1.6641 2.7168-0.3093 1.1699-0.4278 2.6138-0.4278 4.4883v9.4062 3.2695 12.27c0 1.9522 0.053 3.4414 0.2676 4.6445 0.2154 1.2059 0.6222 2.1846 1.3868 2.8652 0.7626 0.67895 1.7527 0.95992 2.8945 1.0918 1.1408 0.13175 2.4963 0.12891 4.1992 0.12891h28.504c1.6708 0 3.0101 2e-3 4.1445-0.12891 1.1353-0.13187 2.1255-0.41132 2.8946-1.0859 0.7708-0.67622 1.1929-1.653 1.4199-2.8613 0.2265-1.2056 0.2871-2.6992 0.2871-4.6543v-18.539c0-0.25826-0.012-0.42611-0.014-0.60547v-0.0117l0.014-1.875c0.013-1.8102 0.019-3.2511-0.1152-4.4551-0.134-1.2042-0.4167-2.2304-1.0957-3.0273-0.682-0.80032-1.6746-1.2402-2.8907-1.4707-1.2123-0.22969-2.7045-0.28516-4.6465-0.28516h-15.902l-3-3z" color="#000000" color-rendering="auto" dominant-baseline="auto" image-rendering="auto" opacity=".1" shape-rendering="auto" solid-color="#000000" style="font-feature-settings:normal;font-variant-alternates:normal;font-variant-caps:normal;font-variant-ligatures:normal;font-variant-numeric:normal;font-variant-position:normal;isolation:auto;mix-blend-mode:normal;shape-padding:0;text-decoration-color:#000000;text-decoration-line:none;text-decoration-style:solid;text-indent:0;text-orientation:mixed;text-transform:none;white-space:normal"/>
 <path d="m9.8125 3.0002c-2.9004 0-5.051-0.095-6.6562 1.1191-0.8135 0.61532-1.3536 1.5422-1.6641 2.7168-0.3093 1.1699-0.4278 2.6138-0.4278 4.4883v8.6758h46v-2.2695c0-0.25826-0.012-0.42611-0.014-0.60547v-0.0117l0.014-1.875c0.013-1.8102 0.019-3.2511-0.1152-4.4551-0.134-1.2042-0.4166-2.2304-1.0957-3.0273-0.6819-0.80032-1.6746-1.2402-2.8906-1.4707-1.2124-0.22968-2.7045-0.28516-4.6465-0.28516h-15.902l-3-3z" color="#000000" color-rendering="auto" dominant-baseline="auto" fill="url(#linearGradient13838)" image-rendering="auto" shape-rendering="auto" solid-color="#000000" style="font-feature-settings:normal;font-variant-alternates:normal;font-variant-caps:normal;font-variant-ligatures:normal;font-variant-numeric:normal;font-variant-position:normal;isolation:auto;mix-blend-mode:normal;shape-padding:0;text-decoration-color:#000000;text-decoration-line:none;text-decoration-style:solid;text-indent:0;text-orientation:mixed;text-transform:none;white-space:normal"/>
 <path d="m23.002 10-3.002 3h-10.188c-6.8128 0-7.748-2.1e-4 -7.748 7.7305v1c0-7.7307 0.9352-7.7305 7.748-7.7305h10.188l3.002-3h15.314c6.6839 0 7.7481-2.1e-4 7.7481 7.7305v-1c0-7.7307-1.0642-7.7305-7.7481-7.7305z" color="#000000" fill="#fff" opacity=".3"/>
 <path d="m38.323 10c2.9004 0 5.051-0.095 6.6562 1.1191 0.8135 0.61532 1.3536 1.5422 1.6641 2.7168 0.3092 1.1699 0.4277 2.6138 0.4277 4.4883v9.4062 4.2695 4.2695c0 1.9522-0.053 3.4414-0.2676 4.6445-0.2153 1.2059-0.6221 2.1846-1.3867 2.8652-0.7627 0.67895-1.7527 0.95992-2.8945 1.0918-1.1408 0.13175-2.4963 0.12891-4.1992 0.12891h-28.504c-1.6707 0-3.0101 2e-3 -4.1445-0.12891-1.1352-0.13187-2.1255-0.41132-2.8945-1.0859-0.7709-0.67622-1.193-1.653-1.4199-2.8613-0.2265-1.2056-0.2871-2.6992-0.2871-4.6543v-11.539c0-0.25826 0.012-0.42611 0.014-0.60547v-0.0117l-0.014-1.875c-0.013-1.8102-0.019-3.2511 0.1152-4.4551 0.134-1.2042 0.4166-2.2304 1.0957-3.0273 0.6819-0.80032 1.6746-1.2402 2.8906-1.4707 1.2125-0.22968 2.7144-0.48029 4.6466-0.28516h9.9023l3-3z" color="#000000" color-rendering="auto" dominant-baseline="auto" fill="url(#linearGradient13848)" image-rendering="auto" shape-rendering="auto" solid-color="#000000" style="font-feature-settings:normal;font-variant-alternates:normal;font-variant-caps:normal;font-variant-ligatures:normal;font-variant-numeric:normal;font-variant-position:normal;isolation:auto;mix-blend-mode:normal;shape-padding:0;text-decoration-color:#000000;text-decoration-line:none;text-decoration-style:solid;text-indent:0;text-orientation:mixed;text-transform:none;white-space:normal"/>
 <path d="m47 32-12 12h4.6886c6.6316 0 7.3114-0.67952 7.3114-7.2979z" color="#000000" fill="#fff" opacity=".05"/>
 <path d="m1.0645 35.27v1c0 1.9522 0.053 3.4414 0.2675 4.6445 0.2154 1.2059 0.6222 2.1846 1.3868 2.8652 0.7626 0.67895 1.7527 0.95992 2.8945 1.0918 1.1408 0.13175 2.4963 0.12891 4.1992 0.12891h28.504c1.6708 0 3.0101 2e-3 4.1445-0.12891 1.1353-0.13187 2.1255-0.41132 2.8946-1.0859 0.7708-0.67622 1.1929-1.653 1.4199-2.8613 0.2265-1.2056 0.2871-2.6992 0.2871-4.6543v-1c0 1.9551-0.061 3.4487-0.2871 4.6543-0.227 1.2083-0.6491 2.1851-1.4199 2.8613-0.7691 0.67461-1.7593 0.95406-2.8946 1.0859-1.1344 0.13091-2.4737 0.12891-4.1445 0.12891h-28.504c-1.7029 0-3.0584 3e-3 -4.1992-0.12891-1.1418-0.13187-2.1319-0.41284-2.8945-1.0918-0.7646-0.68069-1.1714-1.6594-1.3868-2.8652-0.2147-1.2032-0.2676-2.6923-0.2675-4.6445z" color="#000000" color-rendering="auto" dominant-baseline="auto" image-rendering="auto" opacity=".2" shape-rendering="auto" solid-color="#000000" style="font-feature-settings:normal;font-variant-alternates:normal;font-variant-caps:normal;font-variant-ligatures:normal;font-variant-numeric:normal;font-variant-position:normal;isolation:auto;mix-blend-mode:normal;shape-padding:0;text-decoration-color:#000000;text-decoration-line:none;text-decoration-style:solid;text-indent:0;text-orientation:mixed;text-transform:none;white-space:normal"/>
 <path d="m22.721 10-3 3h-9.9023c-1.9322-0.19513-3.4341 0.0555-4.6465 0.28516-1.216 0.23047-2.2087 0.67039-2.8906 1.4707-0.6791 0.79696-0.9618 1.8231-1.0957 3.0273-0.073 0.65514-0.1018 1.4-0.1133 2.2168h0.039c0.017-0.42337 0.034-0.85058 0.074-1.2168 0.134-1.2042 0.4166-2.2304 1.0957-3.0273 0.6819-0.80031 1.6746-1.2402 2.8906-1.4707 1.2124-0.22968 2.7143-0.48029 4.6465-0.28516h9.9023l3-3h15.602c2.9004 0 5.051-0.095 6.6562 1.1191 0.8135 0.61532 1.3536 1.5422 1.6641 2.7168 0.3092 1.1699 0.4277 2.6138 0.4277 4.4883v-1c0-1.8745-0.1185-3.3183-0.4277-4.4883-0.3105-1.1746-0.8506-2.1015-1.6641-2.7168-1.6052-1.2142-3.7558-1.1191-6.6562-1.1191z" color="#000000" color-rendering="auto" dominant-baseline="auto" fill="#fff" image-rendering="auto" opacity=".2" shape-rendering="auto" solid-color="#000000" style="font-feature-settings:normal;font-variant-alternates:normal;font-variant-caps:normal;font-variant-ligatures:normal;font-variant-numeric:normal;font-variant-position:normal;isolation:auto;mix-blend-mode:normal;shape-padding:0;text-decoration-color:#000000;text-decoration-line:none;text-decoration-style:solid;text-indent:0;text-orientation:mixed;text-transform:none;white-space:normal"/>
 <path d="m22.721 9.0002-3 3h-9.9023c-1.9322-0.19513-3.4341 0.0555-4.6465 0.28516-1.216 0.23047-2.2087 0.67039-2.8906 1.4707-0.6791 0.79696-0.9618 1.8231-1.0957 3.0273-0.073 0.65514-0.1018 1.4-0.1133 2.2168h0.039c0.017-0.42337 0.034-0.85058 0.074-1.2168 0.134-1.2042 0.4166-2.2304 1.0957-3.0273 0.6819-0.80031 1.6746-1.2402 2.8906-1.4707 1.2124-0.22968 2.7143-0.48029 4.6465-0.28516h9.9023l3-3h15.602c2.9004 0 5.051-0.095 6.6562 1.1191 0.8135 0.61532 1.3536 1.5422 1.6641 2.7168 0.3092 1.1699 0.4277 2.6138 0.4277 4.4883v-1c0-1.8745-0.1185-3.3183-0.4277-4.4883-0.3105-1.1746-0.8506-2.1015-1.6641-2.7168-1.6052-1.2142-3.7558-1.1191-6.6562-1.1191z" color="#000000" color-rendering="auto" dominant-baseline="auto" fill="#732206" image-rendering="auto" opacity=".1" shape-rendering="auto" solid-color="#000000" style="font-feature-settings:normal;font-variant-alternates:normal;font-variant-caps:normal;font-variant-ligatures:normal;font-variant-numeric:normal;font-variant-position:normal;isolation:auto;mix-blend-mode:normal;shape-padding:0;text-decoration-color:#000000;text-decoration-line:none;text-decoration-style:solid;text-indent:0;text-orientation:mixed;text-transform:none;white-space:normal"/>
 <path d="m9.8125 3.0002c-2.9004 0-5.051-0.095-6.6562 1.1191-0.8135 0.61532-1.3536 1.5422-1.6641 2.7168-0.3093 1.1699-0.4278 2.6138-0.4278 4.4883v1c0-1.8745 0.1185-3.3183 0.4278-4.4883 0.3105-1.1746 0.8505-2.1015 1.6641-2.7168 1.6052-1.2142 3.7558-1.1191 6.6562-1.1191h9.6016l3 3h15.902c1.942 0 3.4341 0.0555 4.6465 0.28516 1.216 0.23047 2.2087 0.67039 2.8906 1.4707 0.6791 0.79696 0.9617 1.8231 1.0957 3.0273 0.067 0.60198 0.1 1.263 0.1133 2 0-1.1279-0.019-2.1528-0.1133-3-0.134-1.2042-0.4166-2.2304-1.0957-3.0273-0.6819-0.80031-1.6746-1.2402-2.8906-1.4707-1.2124-0.22968-2.7045-0.28516-4.6465-0.28516h-15.902l-3-3zm37.244 14.367-0.01 0.74609v0.0117c0 0.17936 0.014 0.34721 0.014 0.60547v-1c0-0.15495 0-0.25141-0.01-0.36328z" color="#000000" color-rendering="auto" dominant-baseline="auto" fill="#fff" image-rendering="auto" opacity=".2" shape-rendering="auto" solid-color="#000000" style="font-feature-settings:normal;font-variant-alternates:normal;font-variant-caps:normal;font-variant-ligatures:normal;font-variant-numeric:normal;font-variant-position:normal;isolation:auto;mix-blend-mode:normal;shape-padding:0;text-decoration-color:#000000;text-decoration-line:none;text-decoration-style:solid;text-indent:0;text-orientation:mixed;text-transform:none;white-space:normal"/>
 <path d="m23.059 23.672q-0.098 0.01-0.1384 0.094-0.04 0.085-0.076 0.085-0.045 0.01-0.045-0.045 0-0.1072 0.1696-0.134zm0.7766 0.125q-0.036 0.01-0.1027-0.058-0.067-0.067-0.1562-0.04 0.2143-0.098 0.2857 0.018 0.027 0.053-0.027 0.08zm-3.1333 3.8116q-0.036-0.01-0.053 0.027-0.018 0.036-0.04 0.1116-0.022 0.076-0.049 0.1205-0.027 0.045-0.089 0.1161-0.062 0.089-0.01 0.107 0.036 0.01 0.1115-0.062 0.076-0.071 0.1117-0.1607 0.01-0.027 0.018-0.062 0.01-0.036 0.018-0.053 0.01-0.018 0.013-0.04 0-0.022 0-0.036v-0.027l-0.01-0.022zm7.6323 3.2046q0-0.1607-0.4911-0.3749 0.036-0.1339 0.067-0.2455t0.045-0.2321q0.013-0.1205 0.027-0.1919 0.013-0.072 0-0.2009-0.01-0.1294-0.01-0.174 0-0.045-0.031-0.1963-0.031-0.1519-0.036-0.183 0-0.031-0.045-0.2233-0.04-0.1918-0.049-0.2365-0.089-0.4285-0.4196-0.9194-0.3303-0.4909-0.6426-0.6695 0.2141 0.1786 0.5088 0.7408 0.7766 1.4461 0.482 2.4817-0.098 0.357-0.4463 0.3748-0.2768 0.036-0.3437-0.165-0.067-0.2009-0.071-0.7454 0-0.5446-0.1025-0.9552-0.08-0.3481-0.1741-0.6159-0.094-0.2677-0.1741-0.4061-0.08-0.1384-0.1384-0.2188-0.058-0.08-0.116-0.1339-0.058-0.053-0.067-0.062-0.125-0.5534-0.2767-0.9194-0.1518-0.366-0.2634-0.4998-0.1116-0.1339-0.2097-0.2946-0.098-0.1607-0.1339-0.3571-0.036-0.1874 0.053-0.4776 0.089-0.2901 0.04-0.4418-0.049-0.1518-0.3972-0.2232-0.1339-0.027-0.3973-0.1607-0.2632-0.1339-0.3168-0.1429-0.071-0.01-0.098-0.232-0.027-0.2232 0.071-0.4552 0.098-0.2321 0.3213-0.2411 0.3303-0.027 0.4552 0.2679 0.125 0.2946 0.036 0.5177-0.098 0.1696-0.018 0.2366t0.2678 0q0.116-0.036 0.116-0.3215v-0.3302q-0.045-0.2678-0.1205-0.4464-0.076-0.1785-0.1875-0.2722-0.1116-0.094-0.2097-0.1339-0.098-0.04-0.2411-0.067-0.9551 0.072-0.7944 1.1962 0 0.1339-0.01 0.1339-0.08-0.08-0.2633-0.094-0.1831-0.013-0.2946 0-0.1115 0.018-0.1383-0.045 0.01-0.5088-0.1429-0.8033-0.1517-0.2947-0.4017-0.3036-0.241-0.01-0.3703 0.2454-0.1295 0.2545-0.1474 0.5312-0.01 0.1339 0.03 0.3303t0.1161 0.3348q0.076 0.1383 0.1384 0.1204 0.089-0.027 0.1427-0.1249 0.036-0.08-0.062-0.071-0.062 0-0.1384-0.1294-0.076-0.1294-0.085-0.299-0.01-0.1965 0.08-0.3304 0.089-0.1339 0.3036-0.1249 0.1517 0 0.241 0.1874 0.089 0.1875 0.085 0.3482 0 0.1607-0.013 0.1964-0.1963 0.1339-0.2766 0.2589-0.072 0.107-0.2456 0.2097-0.1739 0.1026-0.1829 0.1115-0.116 0.125-0.1383 0.2411-0.022 0.116 0.067 0.1607 0.1249 0.071 0.2232 0.1741 0.098 0.1026 0.1427 0.1696 0.045 0.067 0.1652 0.116 0.1205 0.049 0.3168 0.058 0.4196 0.018 0.9106-0.1339 0.018-0.01 0.2053-0.062 0.1875-0.054 0.308-0.094t0.2633-0.116q0.1429-0.076 0.1874-0.1562 0.08-0.1249 0.1786-0.071 0.045 0.027 0.058 0.076t-0.027 0.107-0.1473 0.085q-0.1785 0.053-0.5043 0.1918-0.3258 0.1384-0.4061 0.1742-0.3929 0.1696-0.625 0.2052-0.2231 0.045-0.7051-0.018-0.089-0.018-0.08 0.018 0.01 0.036 0.1517 0.1697 0.2232 0.2053 0.5981 0.1964 0.1518-0.01 0.3214-0.062 0.1695-0.054 0.3214-0.125 0.1517-0.071 0.299-0.1562 0.1472-0.085 0.2677-0.1518 0.1206-0.067 0.2188-0.1071 0.098-0.04 0.1562-0.022 0.058 0.018 0.076 0.098 0 0.018-0.01 0.04t-0.036 0.045q-0.027 0.022-0.053 0.04-0.027 0.018-0.076 0.045t-0.08 0.04-0.089 0.045q-0.058 0.031-0.085 0.04-0.25 0.125-0.6026 0.3928-0.3525 0.2678-0.5936 0.3839-0.241 0.116-0.4373 0.01-0.1875-0.098-0.5624-0.6517-0.1964-0.2767-0.2232-0.1964-0.01 0.027-0.01 0.089 0 0.2231-0.1339 0.5043-0.1339 0.2813-0.2633 0.4955-0.1294 0.2141-0.1874 0.5177-0.058 0.3034 0.1026 0.5623-0.2054 0.054-0.5579 0.8034-0.3527 0.7499-0.4241 1.2587-0.018 0.1606-0.013 0.6159 0 0.4553-0.049 0.5266-0.071 0.2143-0.2589 0.027-0.2857-0.2767-0.3213-0.8391-0.018-0.2499 0.036-0.4999 0.036-0.1695-0.01-0.1607l-0.036 0.045q-0.3214 0.5804 0.089 1.4819 0.045 0.1071 0.2231 0.25 0.1785 0.1427 0.2143 0.1784 0.1785 0.2054 0.9282 0.8079 0.75 0.6025 0.8302 0.6829 0.1429 0.1338 0.1563 0.3392 0.013 0.2054-0.125 0.3837-0.1384 0.1787-0.4061 0.2054 0.071 0.1339 0.2588 0.3973 0.1875 0.2632 0.25 0.482 0.062 0.2187 0.062 0.6293 0.4107-0.2143 0.062-0.8212-0.036-0.071-0.094-0.1428-0.058-0.072-0.085-0.1072-0.027-0.036-0.018-0.054 0.027-0.045 0.1161-0.085 0.089-0.04 0.1786 0.022 0.4105 0.4642 1.4817 0.3214 1.1872-0.1339 1.58-0.7766 0.2053-0.3392 0.3036-0.2678 0.107 0.053 0.089 0.4642-0.01 0.2232-0.2053 0.8213-0.08 0.2052-0.053 0.3347 0.027 0.1294 0.2141 0.1384 0.027-0.1696 0.1295-0.6874 0.1027-0.5177 0.1205-0.8034 0.018-0.1874-0.058-0.656-0.076-0.4687-0.067-0.8659 0.01-0.3973 0.2053-0.6293 0.1339-0.1607 0.4553-0.1607 0.01-0.3303 0.3079-0.4732 0.299-0.1427 0.6471-0.094 0.3482 0.049 0.5356 0.2009zm-5.6058-7.3822q0.027-0.1518-0.022-0.2679-0.049-0.1159-0.1026-0.1338-0.08-0.018-0.08 0.062 0.018 0.045 0.045 0.053 0.089 0 0.062 0.1339-0.027 0.1785 0.072 0.1785 0.027 0 0.027-0.027zm3.7401 1.7586q-0.018-0.072-0.058-0.1028-0.04-0.031-0.1161-0.045-0.076-0.013-0.1294-0.049-0.045-0.027-0.085-0.071-0.04-0.045-0.063-0.072-0.022-0.027-0.049-0.058t-0.036-0.036q-0.01 0-0.036 0.013-0.1249 0.1428 0.063 0.3882 0.1874 0.2456 0.348 0.2813 0.08 0.01 0.1295-0.072 0.049-0.08 0.031-0.1785zm-1.5889-1.9015q0-0.098-0.045-0.174-0.045-0.077-0.098-0.1116-0.054-0.036-0.08-0.027-0.125 0.01-0.062 0.063l0.036 0.018q0.1249 0.036 0.1607 0.2766 0 0.027 0.071-0.018zm0.4821-2.0798q0-0.018-0.022-0.045t-0.08-0.062q-0.058-0.036-0.085-0.053-0.1339-0.1339-0.2143-0.1339-0.08 0.01-0.1027 0.067-0.022 0.058-0.01 0.1161 0.013 0.058 0 0.1116-0.01 0.036-0.053 0.094-0.045 0.058-0.053 0.08-0.01 0.022 0.027 0.076 0.036 0.027 0.071 0 0.036-0.027 0.098-0.08t0.1339-0.08q0.01-0.01 0.08-0.01 0.071 0 0.1338-0.018 0.062-0.018 0.08-0.062zm5.0433 11.97q0.1786 0.1071 0.2768 0.2186 0.098 0.1117 0.1071 0.2144 0.01 0.1026-0.022 0.2008-0.031 0.098-0.1384 0.1964-0.1071 0.098-0.2097 0.174-0.1027 0.076-0.2678 0.1652-0.1652 0.089-0.2811 0.1473-0.1161 0.058-0.2857 0.1383-0.1697 0.08-0.241 0.1161-0.3393 0.1695-0.7633 0.4999-0.424 0.3302-0.6739 0.5713-0.1517 0.1428-0.607 0.174-0.4553 0.031-0.7945-0.1294-0.1606-0.08-0.2633-0.2098-0.1027-0.1294-0.1473-0.2276-0.045-0.098-0.1964-0.1741-0.1517-0.076-0.4195-0.085-0.3928-0.01-1.1605-0.01-0.1696 0-0.5088 0.013-0.3391 0.013-0.5177 0.022-0.3928 0.01-0.7096 0.1339-0.317 0.125-0.4777 0.2678-0.1606 0.1428-0.3882 0.2544-0.2276 0.1115-0.4776 0.1026-0.2589-0.01-0.9909-0.2767-0.7319-0.2678-1.3032-0.3839-0.1696-0.036-0.4553-0.085t-0.4463-0.08q-0.1607-0.031-0.3526-0.085-0.192-0.053-0.299-0.1293-0.1071-0.076-0.1518-0.1741-0.089-0.2053 0.062-0.5936 0.1518-0.3883 0.1607-0.4865 0.01-0.1428-0.036-0.357-0.045-0.2143-0.089-0.3794-0.045-0.1652-0.04-0.3259 0-0.1606 0.094-0.241 0.125-0.1071 0.5088-0.125 0.3839-0.018 0.5357-0.1071 0.2677-0.1607 0.3749-0.3123 0.1071-0.1518 0.1071-0.4554 0.1874 0.6517-0.2857 0.9463-0.2856 0.1785-0.7408 0.1339-0.3036-0.027-0.3839 0.089-0.1161 0.1339 0.045 0.5089 0.018 0.053 0.071 0.1607 0.054 0.107 0.076 0.1606 0.022 0.053 0.04 0.1518 0.018 0.098 0.01 0.1963 0 0.1339-0.1517 0.4374t-0.125 0.4285q0.027 0.1518 0.3303 0.2321 0.1786 0.053 0.7542 0.1651 0.5758 0.1116 0.8882 0.183 0.2143 0.054 0.6606 0.1964 0.4464 0.1427 0.7364 0.2052 0.2901 0.062 0.4955 0.036 0.3837-0.054 0.5757-0.25 0.1919-0.1963 0.2053-0.4284 0.013-0.2322-0.067-0.5223-0.08-0.29-0.1697-0.4641-0.089-0.1741-0.1785-0.3259-1.0801-1.696-1.5086-2.1601-0.607-0.6607-1.0087-0.357-0.098 0.08-0.1339-0.1339-0.027-0.1429-0.018-0.3393 0.01-0.2588 0.089-0.4642 0.08-0.2053 0.2141-0.4196 0.134-0.2141 0.1965-0.3748 0.071-0.1874 0.2366-0.6427 0.165-0.4553 0.2633-0.6963 0.098-0.241 0.2678-0.5445 0.1695-0.3035 0.348-0.482 0.982-1.2766 1.107-1.7407-0.1071-0.9998-0.1429-2.7672-0.018-0.8035 0.2143-1.3524 0.2321-0.5489 0.9462-0.9328 0.3481-0.1875 0.9283-0.1875 0.473-0.01 0.9462 0.1205 0.4732 0.1295 0.7945 0.3705 0.5088 0.3749 0.8168 1.0846 0.308 0.7096 0.2633 1.3166-0.045 0.8481 0.2678 1.9103 0.3035 1.0086 1.1872 1.946 0.491 0.5266 0.8881 1.4549 0.3973 0.9284 0.5312 1.705 0.071 0.4375 0.045 0.7543-0.027 0.3169-0.1071 0.4954-0.08 0.1786-0.1786 0.1964-0.089 0.018-0.2098 0.1697-0.1204 0.1518-0.2409 0.3168-0.1206 0.1652-0.3615 0.2991-0.2411 0.1339-0.5445 0.125-0.1608-0.01-0.2814-0.045-0.1204-0.036-0.2007-0.1206-0.08-0.085-0.1205-0.1384-0.04-0.053-0.1027-0.183-0.062-0.1294-0.08-0.174-0.1963-0.3303-0.3659-0.2679-0.1697 0.062-0.25 0.4375-0.08 0.3749 0.062 0.8659 0.1786 0.6248 0.01 1.7406-0.089 0.5802 0.1607 0.8971 0.2499 0.3169 0.6516 0.2946 0.4017-0.022 0.7587-0.3169 0.5268-0.4374 0.799-0.5936 0.2723-0.1562 0.9239-0.3794 0.4731-0.1606 0.6873-0.3258 0.2143-0.1651 0.1651-0.308-0.049-0.1428-0.2231-0.2543-0.1741-0.1116-0.4597-0.2098-0.2946-0.098-0.4419-0.4285-0.1472-0.3303-0.1339-0.6471 0.013-0.317 0.1384-0.424 0.01 0.2766 0.071 0.5042 0.062 0.2278 0.1295 0.3616 0.067 0.1339 0.183 0.2544t0.1875 0.1696q0.071 0.049 0.1919 0.116 0.1204 0.067 0.1472 0.085z" enable-background="new" fill="#fff" opacity=".75" stroke-width=".63648"/>
</svg>
