<svg width="48" height="48" version="1" xmlns="http://www.w3.org/2000/svg" xmlns:xlink="http://www.w3.org/1999/xlink">
 <defs>
  <linearGradient id="linearGradient13838" x1="321" x2="367" y1="106" y2="63" gradientTransform="translate(-320 -60)" gradientUnits="userSpaceOnUse">
   <stop stop-color="#2c001e" offset="0"/>
   <stop stop-color="#2c001e" offset=".10865"/>
   <stop stop-color="#370626" offset=".1869"/>
   <stop stop-color="#55163b" offset=".29807"/>
   <stop stop-color="#772953" offset=".37246"/>
   <stop stop-color="#7c2b51" offset=".44701"/>
   <stop stop-color="#8b314b" offset=".52429"/>
   <stop stop-color="#8b314b" offset=".59614"/>
   <stop stop-color="#a33a41" offset=".66876"/>
   <stop stop-color="#c44732" offset=".79755"/>
   <stop stop-color="#e65524" offset=".91251"/>
   <stop stop-color="#e65524" offset="1"/>
  </linearGradient>
  <linearGradient id="linearGradient13848" x1="321" x2="367" y1="70" y2="105" gradientTransform="translate(-320 -60)" gradientUnits="userSpaceOnUse">
   <stop stop-color="#666" offset="0"/>
   <stop stop-color="#7a7a7a" offset="1"/>
  </linearGradient>
 </defs>
 <path d="m9.8125 4.0002c-2.9004 0-5.051-0.095-6.6562 1.1191-0.8135 0.61532-1.3536 1.5422-1.6641 2.7168-0.3093 1.1699-0.4278 2.6138-0.4278 4.4883v9.4062 3.2695 12.27c0 1.9522 0.053 3.4414 0.2676 4.6445 0.2154 1.2059 0.6222 2.1846 1.3868 2.8652 0.7626 0.67895 1.7527 0.95992 2.8945 1.0918 1.1408 0.13175 2.4963 0.12891 4.1992 0.12891h28.504c1.6708 0 3.0101 2e-3 4.1445-0.12891 1.1353-0.13187 2.1255-0.41132 2.8946-1.0859 0.7708-0.67622 1.1929-1.653 1.4199-2.8613 0.2265-1.2056 0.2871-2.6992 0.2871-4.6543v-18.539c0-0.25826-0.012-0.42611-0.014-0.60547v-0.0117l0.014-1.875c0.013-1.8102 0.019-3.2511-0.1152-4.4551-0.134-1.2042-0.4167-2.2304-1.0957-3.0273-0.682-0.80032-1.6746-1.2402-2.8907-1.4707-1.2123-0.22969-2.7045-0.28516-4.6465-0.28516h-15.902l-3-3z" color="#000000" color-rendering="auto" dominant-baseline="auto" image-rendering="auto" opacity=".1" shape-rendering="auto" solid-color="#000000" style="font-feature-settings:normal;font-variant-alternates:normal;font-variant-caps:normal;font-variant-ligatures:normal;font-variant-numeric:normal;font-variant-position:normal;isolation:auto;mix-blend-mode:normal;shape-padding:0;text-decoration-color:#000000;text-decoration-line:none;text-decoration-style:solid;text-indent:0;text-orientation:mixed;text-transform:none;white-space:normal"/>
 <path d="m9.8125 3.0002c-2.9004 0-5.051-0.095-6.6562 1.1191-0.8135 0.61532-1.3536 1.5422-1.6641 2.7168-0.3093 1.1699-0.4278 2.6138-0.4278 4.4883v8.6758h46v-2.2695c0-0.25826-0.012-0.42611-0.014-0.60547v-0.0117l0.014-1.875c0.013-1.8102 0.019-3.2511-0.1152-4.4551-0.134-1.2042-0.4166-2.2304-1.0957-3.0273-0.6819-0.80032-1.6746-1.2402-2.8906-1.4707-1.2124-0.22968-2.7045-0.28516-4.6465-0.28516h-15.902l-3-3z" color="#000000" color-rendering="auto" dominant-baseline="auto" fill="url(#linearGradient13838)" image-rendering="auto" shape-rendering="auto" solid-color="#000000" style="font-feature-settings:normal;font-variant-alternates:normal;font-variant-caps:normal;font-variant-ligatures:normal;font-variant-numeric:normal;font-variant-position:normal;isolation:auto;mix-blend-mode:normal;shape-padding:0;text-decoration-color:#000000;text-decoration-line:none;text-decoration-style:solid;text-indent:0;text-orientation:mixed;text-transform:none;white-space:normal"/>
 <path d="m23.002 10-3.002 3h-10.188c-6.8128 0-7.748-2.1e-4 -7.748 7.7305v1c0-7.7307 0.9352-7.7305 7.748-7.7305h10.188l3.002-3h15.314c6.6839 0 7.7481-2.1e-4 7.7481 7.7305v-1c0-7.7307-1.0642-7.7305-7.7481-7.7305z" color="#000000" fill="#fff" opacity=".3"/>
 <path d="m38.323 10c2.9004 0 5.051-0.095 6.6562 1.1191 0.8135 0.61532 1.3536 1.5422 1.6641 2.7168 0.3092 1.1699 0.4277 2.6138 0.4277 4.4883v9.4062 4.2695 4.2695c0 1.9522-0.053 3.4414-0.2676 4.6445-0.2153 1.2059-0.6221 2.1846-1.3867 2.8652-0.7627 0.67895-1.7527 0.95992-2.8945 1.0918-1.1408 0.13175-2.4963 0.12891-4.1992 0.12891h-28.504c-1.6707 0-3.0101 2e-3 -4.1445-0.12891-1.1352-0.13187-2.1255-0.41132-2.8945-1.0859-0.7709-0.67622-1.193-1.653-1.4199-2.8613-0.2265-1.2056-0.2871-2.6992-0.2871-4.6543v-11.539c0-0.25826 0.012-0.42611 0.014-0.60547v-0.0117l-0.014-1.875c-0.013-1.8102-0.019-3.2511 0.1152-4.4551 0.134-1.2042 0.4166-2.2304 1.0957-3.0273 0.6819-0.80032 1.6746-1.2402 2.8906-1.4707 1.2125-0.22968 2.7144-0.48029 4.6466-0.28516h9.9023l3-3z" color="#000000" color-rendering="auto" dominant-baseline="auto" fill="url(#linearGradient13848)" image-rendering="auto" shape-rendering="auto" solid-color="#000000" style="font-feature-settings:normal;font-variant-alternates:normal;font-variant-caps:normal;font-variant-ligatures:normal;font-variant-numeric:normal;font-variant-position:normal;isolation:auto;mix-blend-mode:normal;shape-padding:0;text-decoration-color:#000000;text-decoration-line:none;text-decoration-style:solid;text-indent:0;text-orientation:mixed;text-transform:none;white-space:normal"/>
 <path d="m47 32-12 12h4.6886c6.6316 0 7.3114-0.67952 7.3114-7.2979z" color="#000000" fill="#fff" opacity=".05"/>
 <path d="m1.0645 35.27v1c0 1.9522 0.053 3.4414 0.2675 4.6445 0.2154 1.2059 0.6222 2.1846 1.3868 2.8652 0.7626 0.67895 1.7527 0.95992 2.8945 1.0918 1.1408 0.13175 2.4963 0.12891 4.1992 0.12891h28.504c1.6708 0 3.0101 2e-3 4.1445-0.12891 1.1353-0.13187 2.1255-0.41132 2.8946-1.0859 0.7708-0.67622 1.1929-1.653 1.4199-2.8613 0.2265-1.2056 0.2871-2.6992 0.2871-4.6543v-1c0 1.9551-0.061 3.4487-0.2871 4.6543-0.227 1.2083-0.6491 2.1851-1.4199 2.8613-0.7691 0.67461-1.7593 0.95406-2.8946 1.0859-1.1344 0.13091-2.4737 0.12891-4.1445 0.12891h-28.504c-1.7029 0-3.0584 3e-3 -4.1992-0.12891-1.1418-0.13187-2.1319-0.41284-2.8945-1.0918-0.7646-0.68069-1.1714-1.6594-1.3868-2.8652-0.2147-1.2032-0.2676-2.6923-0.2675-4.6445z" color="#000000" color-rendering="auto" dominant-baseline="auto" image-rendering="auto" opacity=".2" shape-rendering="auto" solid-color="#000000" style="font-feature-settings:normal;font-variant-alternates:normal;font-variant-caps:normal;font-variant-ligatures:normal;font-variant-numeric:normal;font-variant-position:normal;isolation:auto;mix-blend-mode:normal;shape-padding:0;text-decoration-color:#000000;text-decoration-line:none;text-decoration-style:solid;text-indent:0;text-orientation:mixed;text-transform:none;white-space:normal"/>
 <path d="m22.721 10-3 3h-9.9023c-1.9322-0.19513-3.4341 0.0555-4.6465 0.28516-1.216 0.23047-2.2087 0.67039-2.8906 1.4707-0.6791 0.79696-0.9618 1.8231-1.0957 3.0273-0.073 0.65514-0.1018 1.4-0.1133 2.2168h0.039c0.017-0.42337 0.034-0.85058 0.074-1.2168 0.134-1.2042 0.4166-2.2304 1.0957-3.0273 0.6819-0.80031 1.6746-1.2402 2.8906-1.4707 1.2124-0.22968 2.7143-0.48029 4.6465-0.28516h9.9023l3-3h15.602c2.9004 0 5.051-0.095 6.6562 1.1191 0.8135 0.61532 1.3536 1.5422 1.6641 2.7168 0.3092 1.1699 0.4277 2.6138 0.4277 4.4883v-1c0-1.8745-0.1185-3.3183-0.4277-4.4883-0.3105-1.1746-0.8506-2.1015-1.6641-2.7168-1.6052-1.2142-3.7558-1.1191-6.6562-1.1191z" color="#000000" color-rendering="auto" dominant-baseline="auto" fill="#fff" image-rendering="auto" opacity=".2" shape-rendering="auto" solid-color="#000000" style="font-feature-settings:normal;font-variant-alternates:normal;font-variant-caps:normal;font-variant-ligatures:normal;font-variant-numeric:normal;font-variant-position:normal;isolation:auto;mix-blend-mode:normal;shape-padding:0;text-decoration-color:#000000;text-decoration-line:none;text-decoration-style:solid;text-indent:0;text-orientation:mixed;text-transform:none;white-space:normal"/>
 <path d="m22.721 9.0002-3 3h-9.9023c-1.9322-0.19513-3.4341 0.0555-4.6465 0.28516-1.216 0.23047-2.2087 0.67039-2.8906 1.4707-0.6791 0.79696-0.9618 1.8231-1.0957 3.0273-0.073 0.65514-0.1018 1.4-0.1133 2.2168h0.039c0.017-0.42337 0.034-0.85058 0.074-1.2168 0.134-1.2042 0.4166-2.2304 1.0957-3.0273 0.6819-0.80031 1.6746-1.2402 2.8906-1.4707 1.2124-0.22968 2.7143-0.48029 4.6465-0.28516h9.9023l3-3h15.602c2.9004 0 5.051-0.095 6.6562 1.1191 0.8135 0.61532 1.3536 1.5422 1.6641 2.7168 0.3092 1.1699 0.4277 2.6138 0.4277 4.4883v-1c0-1.8745-0.1185-3.3183-0.4277-4.4883-0.3105-1.1746-0.8506-2.1015-1.6641-2.7168-1.6052-1.2142-3.7558-1.1191-6.6562-1.1191z" color="#000000" color-rendering="auto" dominant-baseline="auto" fill="#732206" image-rendering="auto" opacity=".1" shape-rendering="auto" solid-color="#000000" style="font-feature-settings:normal;font-variant-alternates:normal;font-variant-caps:normal;font-variant-ligatures:normal;font-variant-numeric:normal;font-variant-position:normal;isolation:auto;mix-blend-mode:normal;shape-padding:0;text-decoration-color:#000000;text-decoration-line:none;text-decoration-style:solid;text-indent:0;text-orientation:mixed;text-transform:none;white-space:normal"/>
 <path d="m9.8125 3.0002c-2.9004 0-5.051-0.095-6.6562 1.1191-0.8135 0.61532-1.3536 1.5422-1.6641 2.7168-0.3093 1.1699-0.4278 2.6138-0.4278 4.4883v1c0-1.8745 0.1185-3.3183 0.4278-4.4883 0.3105-1.1746 0.8505-2.1015 1.6641-2.7168 1.6052-1.2142 3.7558-1.1191 6.6562-1.1191h9.6016l3 3h15.902c1.942 0 3.4341 0.0555 4.6465 0.28516 1.216 0.23047 2.2087 0.67039 2.8906 1.4707 0.6791 0.79696 0.9617 1.8231 1.0957 3.0273 0.067 0.60198 0.1 1.263 0.1133 2 0-1.1279-0.019-2.1528-0.1133-3-0.134-1.2042-0.4166-2.2304-1.0957-3.0273-0.6819-0.80031-1.6746-1.2402-2.8906-1.4707-1.2124-0.22968-2.7045-0.28516-4.6465-0.28516h-15.902l-3-3zm37.244 14.367-0.01 0.74609v0.0117c0 0.17936 0.014 0.34721 0.014 0.60547v-1c0-0.15495 0-0.25141-0.01-0.36328z" color="#000000" color-rendering="auto" dominant-baseline="auto" fill="#fff" image-rendering="auto" opacity=".2" shape-rendering="auto" solid-color="#000000" style="font-feature-settings:normal;font-variant-alternates:normal;font-variant-caps:normal;font-variant-ligatures:normal;font-variant-numeric:normal;font-variant-position:normal;isolation:auto;mix-blend-mode:normal;shape-padding:0;text-decoration-color:#000000;text-decoration-line:none;text-decoration-style:solid;text-indent:0;text-orientation:mixed;text-transform:none;white-space:normal"/>
 <path d="m26.171 17.306c0.9091 3.5816-3.2068 4.6633-4.6922 6.8938-1.0116 1.5197 0.4965 3.1528 2.5527 5.0077-0.8018-1.8125-3.521-3.398 0-6.1799 4.392-3.4666 2.1384-5.7216 2.1384-5.7216zm2.7172 4.4312c1e-4 0-7.4265 1.8543-3.8798 5.9414 1.0471 1.2053-0.2746 2.289-0.2746 2.289s2.657-1.3713 1.437-3.0895c-1.1398-1.6016-2.0136-2.3972 2.7174-5.1409zm1.3152 7.3005c-0.2609 0-0.538 0.046-0.8222 0.146-0.2279 0.081-0.3475 0.2682-0.3475 0.2682s0.1441-0.058 0.4653-0.125c1.3137-0.2737 3.1959 1.7586-0.8745 3.8731-0.019 0.05-0.081 0.1069-0.081 0.1069 4.8407-1.2725 3.785-4.2732 1.6602-4.2692zm-8.7214 0.2063c-0.3189-0.01-1.6973 0.013-3.3445 0.81-2.2269 1.0768 5.5075 1.5674 9.5119 0.5141 0.4163-0.2841 0.9914-0.5307 0.9914-0.5307s-1.6378 0.2928-3.2697 0.4297c-1.9975 0.1676-4.1401 0.2007-5.2156 0.057-2.5465-0.3405 1.3959-1.277 1.3959-1.277h-0.069zm-0.8485 2.4638c-3.6736 1.2192 2.045 2.6029 7.1792 1.1011-0.5455-0.1923-0.8919-0.5442-0.8919-0.5442-2.5103 0.4831-3.9603 0.4676-5.7969 0.278-1.4199-0.1467-0.4904-0.8349-0.4904-0.8349zm0.5192 2.3748c-3.3356 0.9321 2.0294 2.8572 6.2766 1.0376-0.6956-0.2704-1.1946-0.5824-1.1946-0.5824-1.8939 0.358-2.7725 0.3862-4.4917 0.1899-1.4188-0.1628-0.5903-0.6451-0.5903-0.6451zm-2.3168 1.5746c-1.4979 0.046-4.4274 1.393-1.7484 1.8278 8.6588 1.4035 15.784-0.6322 13.538-1.6455 0 0 0.6134 0.5058-0.6754 0.8968-2.4509 0.7424-10.203 0.9663-12.356 0.03-0.7735-0.3369 0.6776-0.8038 1.1342-0.9024 0.476-0.103 0.7479-0.084 0.7479-0.084-0.1345-0.095-0.3629-0.1308-0.6403-0.1222zm13.164 1.2872s-0.2729 0.7007-3.2285 1.2567c-3.3344 0.6278-7.4478 0.5546-9.8866 0.152 0 0 0.4995 0.4135 3.0668 0.5788 3.9062 0.2497 9.9063-0.139 10.048-1.9875z" clip-rule="evenodd" enable-background="new" fill="#fff" fill-rule="evenodd" opacity=".75" stroke-width=".69344"/>
</svg>
