<?xml version="1.0" encoding="UTF-8" standalone="no"?>
<svg
   xmlns:dc="http://purl.org/dc/elements/1.1/"
   xmlns:cc="http://creativecommons.org/ns#"
   xmlns:rdf="http://www.w3.org/1999/02/22-rdf-syntax-ns#"
   xmlns:svg="http://www.w3.org/2000/svg"
   xmlns="http://www.w3.org/2000/svg"
   xmlns:xlink="http://www.w3.org/1999/xlink"
   xmlns:sodipodi="http://sodipodi.sourceforge.net/DTD/sodipodi-0.dtd"
   xmlns:inkscape="http://www.inkscape.org/namespaces/inkscape"
   width="48"
   height="48"
   version="1"
   id="svg1004"
   sodipodi:docname="folder-brown-vbox.svg"
   inkscape:version="1.0.2 (e86c870879, 2021-01-15)">
  <metadata
     id="metadata1008">
    <rdf:RDF>
      <cc:Work
         rdf:about="">
        <dc:format>image/svg+xml</dc:format>
        <dc:type
           rdf:resource="http://purl.org/dc/dcmitype/StillImage" />
        <dc:title></dc:title>
      </cc:Work>
    </rdf:RDF>
  </metadata>
  <sodipodi:namedview
     pagecolor="#ffffff"
     bordercolor="#666666"
     borderopacity="1"
     objecttolerance="10"
     gridtolerance="10"
     guidetolerance="10"
     inkscape:pageopacity="0"
     inkscape:pageshadow="2"
     inkscape:window-width="1366"
     inkscape:window-height="703"
     id="namedview1006"
     showgrid="true"
     inkscape:zoom="7.8371002"
     inkscape:cx="19.547278"
     inkscape:cy="21.61731"
     inkscape:window-x="0"
     inkscape:window-y="0"
     inkscape:window-maximized="1"
     inkscape:current-layer="svg1004">
    <inkscape:grid
       type="xygrid"
       id="grid18267" />
  </sodipodi:namedview>
  <defs
     id="defs982">
    <linearGradient
       id="linearGradient5723"
       x1="321"
       x2="367"
       y1="106"
       y2="63"
       gradientTransform="translate(-320.07 -59.438)"
       gradientUnits="userSpaceOnUse">
      <stop
         stop-color="#2c001e"
         offset="0"
         id="stop952" />
      <stop
         stop-color="#2c001e"
         offset=".10865"
         id="stop954" />
      <stop
         stop-color="#370626"
         offset=".1869"
         id="stop956" />
      <stop
         stop-color="#55163b"
         offset=".29807"
         id="stop958" />
      <stop
         stop-color="#772953"
         offset=".37246"
         id="stop960" />
      <stop
         stop-color="#7c2b51"
         offset=".44701"
         id="stop962" />
      <stop
         stop-color="#8b314b"
         offset=".52429"
         id="stop964" />
      <stop
         stop-color="#8b314b"
         offset=".59614"
         id="stop966" />
      <stop
         stop-color="#a33a41"
         offset=".66876"
         id="stop968" />
      <stop
         stop-color="#c44732"
         offset=".79755"
         id="stop970" />
      <stop
         stop-color="#e65524"
         offset=".91251"
         id="stop972" />
      <stop
         stop-color="#e65524"
         offset="1"
         id="stop974" />
    </linearGradient>
    <linearGradient
       id="linearGradient5739"
       x1="321"
       x2="367"
       y1="70"
       y2="105"
       gradientTransform="translate(-320.07 -59.438)"
       gradientUnits="userSpaceOnUse">
      <stop
         stop-color="#666"
         offset="0"
         id="stop977" />
      <stop
         stop-color="#7a7a7a"
         offset="1"
         id="stop979" />
    </linearGradient>
    <linearGradient
       inkscape:collect="always"
       xlink:href="#linearGradient36441"
       id="linearGradient13838"
       gradientUnits="userSpaceOnUse"
       gradientTransform="translate(-320,-59.99976)"
       x1="321"
       y1="106"
       x2="367"
       y2="63" />
    <linearGradient
       inkscape:collect="always"
       id="linearGradient36441">
      <stop
         style="stop-color:#2c001e;stop-opacity:1"
         offset="0"
         id="stop36437" />
      <stop
         id="stop36445"
         offset="0.10864977"
         style="stop-color:#2c001e;stop-opacity:1" />
      <stop
         style="stop-color:#370626;stop-opacity:1"
         offset="0.18689813"
         id="stop36449" />
      <stop
         id="stop36451"
         offset="0.2980746"
         style="stop-color:#55163b;stop-opacity:1" />
      <stop
         style="stop-color:#772953;stop-opacity:1"
         offset="0.37246177"
         id="stop36453" />
      <stop
         style="stop-color:#7c2b51;stop-opacity:1"
         offset="0.44700962"
         id="stop36447" />
      <stop
         id="stop36455"
         offset="0.52428877"
         style="stop-color:#8b314b;stop-opacity:1" />
      <stop
         style="stop-color:#8b314b;stop-opacity:1"
         offset="0.59614229"
         id="stop36457" />
      <stop
         id="stop36459"
         offset="0.66876179"
         style="stop-color:#a33a41;stop-opacity:1" />
      <stop
         style="stop-color:#c44732;stop-opacity:1"
         offset="0.79755175"
         id="stop36461" />
      <stop
         id="stop36463"
         offset="0.91251218"
         style="stop-color:#e65524;stop-opacity:1" />
      <stop
         style="stop-color:#e65524;stop-opacity:1"
         offset="1"
         id="stop36439" />
    </linearGradient>
    <linearGradient
       inkscape:collect="always"
       xlink:href="#linearGradient3388"
       id="linearGradient13848"
       gradientUnits="userSpaceOnUse"
       gradientTransform="translate(-320,-59.99976)"
       x1="321"
       y1="70"
       x2="367"
       y2="105" />
    <linearGradient
       inkscape:collect="always"
       id="linearGradient3388">
      <stop
         style="stop-color:#666666;stop-opacity:1;"
         offset="0"
         id="stop3384" />
      <stop
         style="stop-color:#7a7a7a;stop-opacity:1"
         offset="1"
         id="stop3386" />
    </linearGradient>
  </defs>
  <path
     style="color:#000000;font-style:normal;font-variant:normal;font-weight:normal;font-stretch:normal;font-size:medium;line-height:normal;font-family:sans-serif;font-variant-ligatures:normal;font-variant-position:normal;font-variant-caps:normal;font-variant-numeric:normal;font-variant-alternates:normal;font-feature-settings:normal;text-indent:0;text-align:start;text-decoration:none;text-decoration-line:none;text-decoration-style:solid;text-decoration-color:#000000;letter-spacing:normal;word-spacing:normal;text-transform:none;writing-mode:lr-tb;direction:ltr;text-orientation:mixed;dominant-baseline:auto;baseline-shift:baseline;text-anchor:start;white-space:normal;shape-padding:0;clip-rule:nonzero;display:inline;overflow:visible;visibility:visible;opacity:0.1;isolation:auto;mix-blend-mode:normal;color-interpolation:sRGB;color-interpolation-filters:linearRGB;solid-color:#000000;solid-opacity:1;vector-effect:none;fill:#000000;fill-opacity:1;fill-rule:nonzero;stroke:none;stroke-width:1;stroke-linecap:butt;stroke-linejoin:miter;stroke-miterlimit:4;stroke-dasharray:none;stroke-dashoffset:0;stroke-opacity:1;marker:none;color-rendering:auto;image-rendering:auto;shape-rendering:auto;text-rendering:auto;enable-background:accumulate"
     d="m 9.8125,4.0002404 c -2.9004,0 -5.051,-0.095 -6.6562,1.11914 -0.8135,0.61532 -1.3536,1.54216 -1.6641,2.7168 C 1.1829,9.0061204 1.0644,10.44994 1.0644,12.32446 v 9.40625 3.26953 12.26953 c 0,1.95222 0.053,3.44137 0.2676,4.64453 0.2154,1.20586 0.6222,2.18455 1.3868,2.86524 0.7626,0.67895 1.7527,0.95992 2.8945,1.09179 1.1408,0.13175 2.4963,0.12891 4.1992,0.12891 h 28.5039 c 1.6708,0 3.0101,0.002 4.1445,-0.12891 v 0 c 1.1353,-0.13187 2.1255,-0.41132 2.8946,-1.08593 0.7708,-0.67622 1.1929,-1.653 1.4199,-2.86133 0.2265,-1.20563 0.2871,-2.69921 0.2871,-4.6543 V 18.73071 c 0,-0.25826 -0.012,-0.42611 -0.014,-0.60547 v -0.0117 l 0.014,-1.875 c 0.013,-1.81021 0.019,-3.25112 -0.1152,-4.45508 -0.134,-1.20424 -0.4167,-2.2303796 -1.0957,-3.0273396 -0.682,-0.80032 -1.6746,-1.24023 -2.8907,-1.4707 -1.2123,-0.22969 -2.7045,-0.28516 -4.6465,-0.28516 H 22.4121 l -3,-3 z"
     id="path3461-6"
     inkscape:connector-curvature="0"
     sodipodi:nodetypes="sccsccscccssccccssccccccsccs" />
  <path
     style="color:#000000;font-style:normal;font-variant:normal;font-weight:normal;font-stretch:normal;font-size:medium;line-height:normal;font-family:sans-serif;font-variant-ligatures:normal;font-variant-position:normal;font-variant-caps:normal;font-variant-numeric:normal;font-variant-alternates:normal;font-feature-settings:normal;text-indent:0;text-align:start;text-decoration:none;text-decoration-line:none;text-decoration-style:solid;text-decoration-color:#000000;letter-spacing:normal;word-spacing:normal;text-transform:none;writing-mode:lr-tb;direction:ltr;text-orientation:mixed;dominant-baseline:auto;baseline-shift:baseline;text-anchor:start;white-space:normal;shape-padding:0;clip-rule:nonzero;display:inline;overflow:visible;visibility:visible;isolation:auto;mix-blend-mode:normal;color-interpolation:sRGB;color-interpolation-filters:linearRGB;solid-color:#000000;solid-opacity:1;vector-effect:none;fill:url(#linearGradient13838);fill-opacity:1;fill-rule:nonzero;stroke:none;stroke-width:1;stroke-linecap:butt;stroke-linejoin:miter;stroke-miterlimit:4;stroke-dasharray:none;stroke-dashoffset:0;stroke-opacity:1;marker:none;color-rendering:auto;image-rendering:auto;shape-rendering:auto;text-rendering:auto;enable-background:accumulate"
     d="m 9.8125,3.0002404 c -2.9004,0 -5.051,-0.095 -6.6562,1.11914 -0.8135,0.61532 -1.3536,1.54216 -1.6641,2.7168 -0.3093,1.16994 -0.4278,2.61376 -0.4278,4.4882796 v 8.67578 h 46 v -2.26953 c 0,-0.25826 -0.012,-0.42611 -0.014,-0.60547 v -0.0117 l 0.014,-1.875 c 0.013,-1.81021 0.019,-3.25112 -0.1152,-4.45508 -0.134,-1.2042396 -0.4166,-2.2303796 -1.0957,-3.0273396 -0.6819,-0.80032 -1.6746,-1.24023 -2.8906,-1.4707 -1.2124,-0.22968 -2.7045,-0.28516 -4.6465,-0.28516 H 22.4141 l -3,-3 z"
     id="path3463-06"
     inkscape:connector-curvature="0" />
  <path
     style="color:#000000;display:inline;overflow:visible;visibility:visible;opacity:0.3;fill:#ffffff;fill-opacity:1;fill-rule:nonzero;stroke:none;stroke-width:1;marker:none;enable-background:accumulate"
     d="m 23.002,10.00024 -3.002,3 H 9.8125 c -6.8128,0 -7.748,-2.1e-4 -7.748,7.73047 v 1 c 0,-7.73068 0.9352,-7.73047 7.748,-7.73047 H 20 l 3.002,-3 h 15.3144 c 6.6839,0 7.7481,-2.1e-4 7.7481,7.73047 v -1 c 0,-7.73068 -1.0642,-7.73047 -7.7481,-7.73047 z"
     id="path3485-6"
     inkscape:connector-curvature="0" />
  <path
     id="path3523-6"
     d="m 38.3229,10.00024 c 2.9004,0 5.051,-0.095 6.6562,1.11914 0.8135,0.61532 1.3536,1.54216 1.6641,2.7168 0.3092,1.16994 0.4277,2.61376 0.4277,4.48828 v 9.40625 4.26953 4.26953 c 0,1.95222 -0.053,3.44138 -0.2676,4.64453 -0.2153,1.20586 -0.6221,2.18455 -1.3867,2.86524 -0.7627,0.67895 -1.7527,0.95992 -2.8945,1.09179 -1.1408,0.13175 -2.4963,0.12891 -4.1992,0.12891 H 9.8189 c -1.6707,0 -3.0101,0.002 -4.1445,-0.12891 v 0 C 4.5392,44.73946 3.5489,44.46001 2.7799,43.7854 2.009,43.10918 1.5869,42.1324 1.36,40.92407 1.1335,39.71844 1.0729,38.22486 1.0729,36.26977 V 24.73071 c 0,-0.25826 0.012,-0.42611 0.014,-0.60547 v -0.0117 l -0.014,-1.875 c -0.013,-1.81021 -0.019,-3.25112 0.1152,-4.45508 0.134,-1.20424 0.4166,-2.23038 1.0957,-3.02734 0.6819,-0.80032 1.6746,-1.24023 2.8906,-1.4707 1.2125,-0.22968 2.7144,-0.48029 4.6466,-0.28516 h 9.9023 l 3,-3 z"
     style="color:#000000;font-style:normal;font-variant:normal;font-weight:normal;font-stretch:normal;font-size:medium;line-height:normal;font-family:sans-serif;font-variant-ligatures:normal;font-variant-position:normal;font-variant-caps:normal;font-variant-numeric:normal;font-variant-alternates:normal;font-feature-settings:normal;text-indent:0;text-align:start;text-decoration:none;text-decoration-line:none;text-decoration-style:solid;text-decoration-color:#000000;letter-spacing:normal;word-spacing:normal;text-transform:none;writing-mode:lr-tb;direction:ltr;text-orientation:mixed;dominant-baseline:auto;baseline-shift:baseline;text-anchor:start;white-space:normal;shape-padding:0;clip-rule:nonzero;display:inline;overflow:visible;visibility:visible;isolation:auto;mix-blend-mode:normal;color-interpolation:sRGB;color-interpolation-filters:linearRGB;solid-color:#000000;solid-opacity:1;vector-effect:none;fill:url(#linearGradient13848);fill-opacity:1;fill-rule:nonzero;stroke:none;stroke-width:1;stroke-linecap:butt;stroke-linejoin:miter;stroke-miterlimit:4;stroke-dasharray:none;stroke-dashoffset:0;stroke-opacity:1;marker:none;color-rendering:auto;image-rendering:auto;shape-rendering:auto;text-rendering:auto;enable-background:accumulate"
     inkscape:connector-curvature="0"
     sodipodi:nodetypes="sccsccscccssccccssccccccsccs" />
  <path
     id="path3525-5"
     d="m 47,32.00024 -12,12 h 4.6886 c 6.6316,0 7.3114,-0.67952 7.3114,-7.29786 z"
     style="color:#000000;display:inline;overflow:visible;visibility:visible;opacity:0.05;fill:#ffffff;fill-opacity:1;fill-rule:nonzero;stroke:none;stroke-width:1;marker:none;enable-background:accumulate"
     inkscape:connector-curvature="0"
     sodipodi:nodetypes="ccssc" />
  <path
     style="color:#000000;font-style:normal;font-variant:normal;font-weight:normal;font-stretch:normal;font-size:medium;line-height:normal;font-family:sans-serif;font-variant-ligatures:normal;font-variant-position:normal;font-variant-caps:normal;font-variant-numeric:normal;font-variant-alternates:normal;font-feature-settings:normal;text-indent:0;text-align:start;text-decoration:none;text-decoration-line:none;text-decoration-style:solid;text-decoration-color:#000000;letter-spacing:normal;word-spacing:normal;text-transform:none;writing-mode:lr-tb;direction:ltr;text-orientation:mixed;dominant-baseline:auto;baseline-shift:baseline;text-anchor:start;white-space:normal;shape-padding:0;clip-rule:nonzero;display:inline;overflow:visible;visibility:visible;opacity:0.2;isolation:auto;mix-blend-mode:normal;color-interpolation:sRGB;color-interpolation-filters:linearRGB;solid-color:#000000;solid-opacity:1;vector-effect:none;fill:#000000;fill-opacity:1;fill-rule:nonzero;stroke:none;stroke-width:1;stroke-linecap:butt;stroke-linejoin:miter;stroke-miterlimit:4;stroke-dasharray:none;stroke-dashoffset:0;stroke-opacity:1;marker:none;color-rendering:auto;image-rendering:auto;shape-rendering:auto;text-rendering:auto;enable-background:accumulate"
     d="m 1.0645,35.26977 v 1 c 0,1.95222 0.053,3.44137 0.2675,4.64453 0.2154,1.20586 0.6222,2.18455 1.3868,2.86524 0.7626,0.67895 1.7527,0.95992 2.8945,1.09179 1.1408,0.13175 2.4963,0.12891 4.1992,0.12891 h 28.5039 c 1.6708,0 3.0101,0.002 4.1445,-0.12891 v 0 c 1.1353,-0.13187 2.1255,-0.41132 2.8946,-1.08593 0.7708,-0.67622 1.1929,-1.653 1.4199,-2.86133 0.2265,-1.20563 0.2871,-2.69921 0.2871,-4.6543 v -1 c 0,1.95509 -0.061,3.44867 -0.2871,4.6543 -0.227,1.20833 -0.6491,2.18511 -1.4199,2.86133 -0.7691,0.67461 -1.7593,0.95406 -2.8946,1.08593 v 0 c -1.1344,0.13091 -2.4737,0.12891 -4.1445,0.12891 H 9.8125 c -1.7029,0 -3.0584,0.003 -4.1992,-0.12891 C 4.4715,43.73946 3.4814,43.45849 2.7188,42.77954 1.9542,42.09885 1.5474,41.12016 1.332,39.9143 1.1173,38.71114 1.0644,37.22199 1.0645,35.26977 Z"
     id="path3527-422"
     inkscape:connector-curvature="0" />
  <path
     style="color:#000000;font-style:normal;font-variant:normal;font-weight:normal;font-stretch:normal;font-size:medium;line-height:normal;font-family:sans-serif;font-variant-ligatures:normal;font-variant-position:normal;font-variant-caps:normal;font-variant-numeric:normal;font-variant-alternates:normal;font-feature-settings:normal;text-indent:0;text-align:start;text-decoration:none;text-decoration-line:none;text-decoration-style:solid;text-decoration-color:#000000;letter-spacing:normal;word-spacing:normal;text-transform:none;writing-mode:lr-tb;direction:ltr;text-orientation:mixed;dominant-baseline:auto;baseline-shift:baseline;text-anchor:start;white-space:normal;shape-padding:0;clip-rule:nonzero;display:inline;overflow:visible;visibility:visible;opacity:0.2;isolation:auto;mix-blend-mode:normal;color-interpolation:sRGB;color-interpolation-filters:linearRGB;solid-color:#000000;solid-opacity:1;vector-effect:none;fill:#ffffff;fill-opacity:1;fill-rule:nonzero;stroke:none;stroke-width:1;stroke-linecap:butt;stroke-linejoin:miter;stroke-miterlimit:4;stroke-dasharray:none;stroke-dashoffset:0;stroke-opacity:1;marker:none;color-rendering:auto;image-rendering:auto;shape-rendering:auto;text-rendering:auto;enable-background:accumulate"
     d="m 22.7207,10.00024 -3,3 H 9.8184 c -1.9322,-0.19513 -3.4341,0.0555 -4.6465,0.28516 -1.216,0.23047 -2.2087,0.67039 -2.8906,1.4707 -0.6791,0.79696 -0.9618,1.8231 -1.0957,3.02734 -0.073,0.65514 -0.1018,1.40002 -0.1133,2.2168 h 0.039 c 0.017,-0.42337 0.034,-0.85058 0.074,-1.2168 C 1.3193,17.5792 1.6019,16.55306 2.281,15.7561 2.9629,14.95579 3.9556,14.51587 5.1716,14.2854 6.384,14.05572 7.8859,13.80511 9.8181,14.00024 h 9.9023 l 3,-3 H 38.322 c 2.9004,0 5.051,-0.095 6.6562,1.11914 0.8135,0.61532 1.3536,1.54216 1.6641,2.7168 0.3092,1.16994 0.4277,2.61376 0.4277,4.48828 v -1 c 0,-1.87452 -0.1185,-3.31834 -0.4277,-4.48828 C 46.3318,12.66154 45.7917,11.7347 44.9782,11.11938 43.373,9.9052004 41.2224,10.00024 38.322,10.00024 Z"
     id="path3529-1"
     inkscape:connector-curvature="0" />
  <path
     id="path3531-7"
     d="m 22.7207,9.0002404 -3,2.9999996 H 9.8184 c -1.9322,-0.19513 -3.4341,0.0555 -4.6465,0.28516 -1.216,0.23047 -2.2087,0.67039 -2.8906,1.4707 -0.6791,0.79696 -0.9618,1.8231 -1.0957,3.02734 -0.073,0.65514 -0.1018,1.40002 -0.1133,2.2168 h 0.039 c 0.017,-0.42337 0.034,-0.85058 0.074,-1.2168 C 1.3193,16.5792 1.6019,15.55306 2.281,14.7561 2.9629,13.95579 3.9556,13.51587 5.1716,13.2854 6.384,13.05572 7.8859,12.80511 9.8181,13.00024 h 9.9023 l 3,-3 H 38.322 c 2.9004,0 5.051,-0.095 6.6562,1.11914 0.8135,0.61532 1.3536,1.54216 1.6641,2.7168 0.3092,1.16994 0.4277,2.61376 0.4277,4.48828 v -1 c 0,-1.87452 -0.1185,-3.31834 -0.4277,-4.48828 C 46.3318,11.66154 45.7917,10.7347 44.9782,10.11938 43.373,8.9052004 41.2224,9.0002404 38.322,9.0002404 Z"
     style="color:#000000;font-style:normal;font-variant:normal;font-weight:normal;font-stretch:normal;font-size:medium;line-height:normal;font-family:sans-serif;font-variant-ligatures:normal;font-variant-position:normal;font-variant-caps:normal;font-variant-numeric:normal;font-variant-alternates:normal;font-feature-settings:normal;text-indent:0;text-align:start;text-decoration:none;text-decoration-line:none;text-decoration-style:solid;text-decoration-color:#000000;letter-spacing:normal;word-spacing:normal;text-transform:none;writing-mode:lr-tb;direction:ltr;text-orientation:mixed;dominant-baseline:auto;baseline-shift:baseline;text-anchor:start;white-space:normal;shape-padding:0;clip-rule:nonzero;display:inline;overflow:visible;visibility:visible;opacity:0.1;isolation:auto;mix-blend-mode:normal;color-interpolation:sRGB;color-interpolation-filters:linearRGB;solid-color:#000000;solid-opacity:1;vector-effect:none;fill:#732206;fill-opacity:1;fill-rule:nonzero;stroke:none;stroke-width:1;stroke-linecap:butt;stroke-linejoin:miter;stroke-miterlimit:4;stroke-dasharray:none;stroke-dashoffset:0;stroke-opacity:1;marker:none;color-rendering:auto;image-rendering:auto;shape-rendering:auto;text-rendering:auto;enable-background:accumulate"
     inkscape:connector-curvature="0" />
  <path
     style="color:#000000;font-style:normal;font-variant:normal;font-weight:normal;font-stretch:normal;font-size:medium;line-height:normal;font-family:sans-serif;font-variant-ligatures:normal;font-variant-position:normal;font-variant-caps:normal;font-variant-numeric:normal;font-variant-alternates:normal;font-feature-settings:normal;text-indent:0;text-align:start;text-decoration:none;text-decoration-line:none;text-decoration-style:solid;text-decoration-color:#000000;letter-spacing:normal;word-spacing:normal;text-transform:none;writing-mode:lr-tb;direction:ltr;text-orientation:mixed;dominant-baseline:auto;baseline-shift:baseline;text-anchor:start;white-space:normal;shape-padding:0;clip-rule:nonzero;display:inline;overflow:visible;visibility:visible;opacity:0.2;isolation:auto;mix-blend-mode:normal;color-interpolation:sRGB;color-interpolation-filters:linearRGB;solid-color:#000000;solid-opacity:1;vector-effect:none;fill:#ffffff;fill-opacity:1;fill-rule:nonzero;stroke:none;stroke-width:1;stroke-linecap:butt;stroke-linejoin:miter;stroke-miterlimit:4;stroke-dasharray:none;stroke-dashoffset:0;stroke-opacity:1;marker:none;color-rendering:auto;image-rendering:auto;shape-rendering:auto;text-rendering:auto;enable-background:accumulate"
     d="m 9.8125,3.0002404 c -2.9004,0 -5.051,-0.095 -6.6562,1.11914 -0.8135,0.61532 -1.3536,1.54216 -1.6641,2.7168 -0.3093,1.16994 -0.4278,2.61376 -0.4278,4.4882796 v 1 c 0,-1.87452 0.1185,-3.3183396 0.4278,-4.4882796 0.3105,-1.17464 0.8505,-2.10148 1.6641,-2.7168 1.6052,-1.21418 3.7558,-1.11914 6.6562,-1.11914 h 9.6016 l 3,3 h 15.9023 c 1.942,0 3.4341,0.0555 4.6465,0.28516 1.216,0.23047 2.2087,0.67039 2.8906,1.4707 0.6791,0.79696 0.9617,1.8230996 1.0957,3.0273396 0.067,0.60198 0.1,1.263 0.1133,2 0,-1.12793 -0.019,-2.15282 -0.1133,-3 -0.134,-1.2042396 -0.4166,-2.2303796 -1.0957,-3.0273396 -0.6819,-0.80031 -1.6746,-1.24023 -2.8906,-1.4707 -1.2124,-0.22968 -2.7045,-0.28516 -4.6465,-0.28516 H 22.4141 l -3,-3 z m 37.2441,14.3671896 -0.01,0.74609 v 0.0117 c 0,0.17936 0.014,0.34721 0.014,0.60547 v -1 c 0,-0.15495 0,-0.25141 -0.01,-0.36328 z"
     id="path3533-2"
     inkscape:connector-curvature="0" />
  <path
     d="m 21.659,23.335 a 0.66693,0.66693 0 0 0 -0.63014,0.474 l -1.8568,6.1927 h -2.1719 v 1.3333 h 2.6667 a 0.66653,0.66653 0 0 0 0.638,-0.47387 l 1.3516,-4.5052 2.0781,7.164 a 0.6668,0.6668 0 0 0 1.2656,0.0443 l 1.4271,-3.8853 0.6432,1.2864 a 0.66693,0.66693 0 0 0 0.5964,0.36987 h 5.3333 v -1.3333 h -4.9219 l -1.1484,-2.2969 a 0.66667,0.66667 0 0 0 -1.2215,0.0677 l -1.2604,3.4271 -2.1405,-7.3828 a 0.66693,0.66693 0 0 0 -0.64853,-0.48186 z"
     enable-background="new"
     fill="#ffffff"
     opacity="0.75"
     style="isolation:isolate"
     id="path1002" />
</svg>
