<?xml version="1.0" encoding="UTF-8" standalone="no"?>
<svg
   xmlns:dc="http://purl.org/dc/elements/1.1/"
   xmlns:cc="http://creativecommons.org/ns#"
   xmlns:rdf="http://www.w3.org/1999/02/22-rdf-syntax-ns#"
   xmlns:svg="http://www.w3.org/2000/svg"
   xmlns="http://www.w3.org/2000/svg"
   xmlns:xlink="http://www.w3.org/1999/xlink"
   xmlns:sodipodi="http://sodipodi.sourceforge.net/DTD/sodipodi-0.dtd"
   xmlns:inkscape="http://www.inkscape.org/namespaces/inkscape"
   width="48"
   height="48"
   version="1"
   id="svg768"
   sodipodi:docname="folder-brown-templates-open.svg"
   inkscape:version="1.0.2 (e86c870879, 2021-01-15)">
  <metadata
     id="metadata772">
    <rdf:RDF>
      <cc:Work
         rdf:about="">
        <dc:format>image/svg+xml</dc:format>
        <dc:type
           rdf:resource="http://purl.org/dc/dcmitype/StillImage" />
        <dc:title></dc:title>
      </cc:Work>
    </rdf:RDF>
  </metadata>
  <sodipodi:namedview
     pagecolor="#ffffff"
     bordercolor="#666666"
     borderopacity="1"
     objecttolerance="10"
     gridtolerance="10"
     guidetolerance="10"
     inkscape:pageopacity="0"
     inkscape:pageshadow="2"
     inkscape:window-width="1366"
     inkscape:window-height="703"
     id="namedview770"
     showgrid="false"
     inkscape:zoom="5.5416667"
     inkscape:cx="1.4365849"
     inkscape:cy="29.131511"
     inkscape:window-x="0"
     inkscape:window-y="0"
     inkscape:window-maximized="1"
     inkscape:current-layer="svg768" />
  <defs
     id="defs740">
    <linearGradient
       id="linearGradient5169"
       x1="321"
       x2="367"
       y1="106"
       y2="63"
       gradientTransform="translate(-320.06 -60.001)"
       gradientUnits="userSpaceOnUse">
      <stop
         stop-color="#2c001e"
         offset="0"
         id="stop710" />
      <stop
         stop-color="#2c001e"
         offset=".10865"
         id="stop712" />
      <stop
         stop-color="#370626"
         offset=".1869"
         id="stop714" />
      <stop
         stop-color="#55163b"
         offset=".29807"
         id="stop716" />
      <stop
         stop-color="#772953"
         offset=".37246"
         id="stop718" />
      <stop
         stop-color="#7c2b51"
         offset=".44701"
         id="stop720" />
      <stop
         stop-color="#8b314b"
         offset=".52429"
         id="stop722" />
      <stop
         stop-color="#8b314b"
         offset=".59614"
         id="stop724" />
      <stop
         stop-color="#a33a41"
         offset=".66876"
         id="stop726" />
      <stop
         stop-color="#c44732"
         offset=".79755"
         id="stop728" />
      <stop
         stop-color="#e65524"
         offset=".91251"
         id="stop730" />
      <stop
         stop-color="#e65524"
         offset="1"
         id="stop732" />
    </linearGradient>
    <linearGradient
       id="linearGradient5171"
       x1="321.35"
       x2="367"
       y1="75.834"
       y2="105"
       gradientTransform="translate(-320.06 -59.897)"
       gradientUnits="userSpaceOnUse">
      <stop
         stop-color="#666"
         offset="0"
         id="stop735" />
      <stop
         stop-color="#7a7a7a"
         offset="1"
         id="stop737" />
    </linearGradient>
    <linearGradient
       inkscape:collect="always"
       xlink:href="#linearGradient36441"
       id="linearGradient36775-5"
       x1="321"
       y1="106"
       x2="367"
       y2="63"
       gradientUnits="userSpaceOnUse"
       gradientTransform="translate(-320.0644,-60)" />
    <linearGradient
       inkscape:collect="always"
       id="linearGradient36441">
      <stop
         style="stop-color:#2c001e;stop-opacity:1"
         offset="0"
         id="stop36437" />
      <stop
         id="stop36445"
         offset="0.10864977"
         style="stop-color:#2c001e;stop-opacity:1" />
      <stop
         style="stop-color:#370626;stop-opacity:1"
         offset="0.18689813"
         id="stop36449" />
      <stop
         id="stop36451"
         offset="0.2980746"
         style="stop-color:#55163b;stop-opacity:1" />
      <stop
         style="stop-color:#772953;stop-opacity:1"
         offset="0.37246177"
         id="stop36453" />
      <stop
         style="stop-color:#7c2b51;stop-opacity:1"
         offset="0.44700962"
         id="stop36447" />
      <stop
         id="stop36455"
         offset="0.52428877"
         style="stop-color:#8b314b;stop-opacity:1" />
      <stop
         style="stop-color:#8b314b;stop-opacity:1"
         offset="0.59614229"
         id="stop36457" />
      <stop
         id="stop36459"
         offset="0.66876179"
         style="stop-color:#a33a41;stop-opacity:1" />
      <stop
         style="stop-color:#c44732;stop-opacity:1"
         offset="0.79755175"
         id="stop36461" />
      <stop
         id="stop36463"
         offset="0.91251218"
         style="stop-color:#e65524;stop-opacity:1" />
      <stop
         style="stop-color:#e65524;stop-opacity:1"
         offset="1"
         id="stop36439" />
    </linearGradient>
    <linearGradient
       inkscape:collect="always"
       xlink:href="#linearGradient3388"
       id="linearGradient3398-8"
       x1="321.35355"
       y1="75.833633"
       x2="367"
       y2="105"
       gradientUnits="userSpaceOnUse"
       gradientTransform="translate(-320.0645,-59.89689)" />
    <linearGradient
       inkscape:collect="always"
       id="linearGradient3388">
      <stop
         style="stop-color:#666666;stop-opacity:1;"
         offset="0"
         id="stop3384" />
      <stop
         style="stop-color:#7a7a7a;stop-opacity:1"
         offset="1"
         id="stop3386" />
    </linearGradient>
  </defs>
  <path
     style="color:#000000;font-style:normal;font-variant:normal;font-weight:normal;font-stretch:normal;font-size:medium;line-height:normal;font-family:sans-serif;font-variant-ligatures:normal;font-variant-position:normal;font-variant-caps:normal;font-variant-numeric:normal;font-variant-alternates:normal;font-feature-settings:normal;text-indent:0;text-align:start;text-decoration:none;text-decoration-line:none;text-decoration-style:solid;text-decoration-color:#000000;letter-spacing:normal;word-spacing:normal;text-transform:none;writing-mode:lr-tb;direction:ltr;text-orientation:mixed;dominant-baseline:auto;baseline-shift:baseline;text-anchor:start;white-space:normal;shape-padding:0;clip-rule:nonzero;display:inline;overflow:visible;visibility:visible;opacity:0.1;isolation:auto;mix-blend-mode:normal;color-interpolation:sRGB;color-interpolation-filters:linearRGB;solid-color:#000000;solid-opacity:1;vector-effect:none;fill:#000000;fill-opacity:1;fill-rule:nonzero;stroke:none;stroke-width:1;stroke-linecap:butt;stroke-linejoin:miter;stroke-miterlimit:4;stroke-dasharray:none;stroke-dashoffset:0;stroke-opacity:1;marker:none;color-rendering:auto;image-rendering:auto;shape-rendering:auto;text-rendering:auto;enable-background:accumulate"
     d="M 9.8125,4 C 6.91205,4 4.76148,3.905 3.15625,5.11914 2.34275,5.73446 1.80267,6.6613 1.49219,7.83594 1.18295,9.00588 1.06445,10.4497 1.06445,12.32422 V 21.73047 25 37.26953 c 0,1.95222 0.0528,3.44137 0.26758,4.64453 0.21533,1.20586 0.62212,2.18455 1.38672,2.86524 0.76266,0.67895 1.7527,0.95992 2.89453,1.09179 C 6.75405,46.00284 8.10956,46 9.8125,46 h 28.50391 c 1.67078,0 3.01012,0.002 4.14453,-0.12891 h 0.002 c 1.13527,-0.13187 2.1255,-0.41132 2.89453,-1.08593 0.77086,-0.67622 1.19295,-1.653 1.41992,-2.86133 0.22646,-1.20563 0.28711,-2.69921 0.28711,-4.6543 V 18.73047 c 0,-0.25826 -0.0117,-0.42611 -0.0137,-0.60547 v -0.0117 l 0.0137,-1.875 C 47.0778,14.42809 47.0832,12.98718 46.94927,11.78322 46.81528,10.57898 46.53264,9.55284 45.85357,8.75588 45.17162,7.95556 44.17897,7.51565 42.96294,7.28518 41.75056,7.05547 40.25844,7 38.31641,7 H 22.41406 l -3,-3 z"
     id="path1335"
     inkscape:connector-curvature="0"
     sodipodi:nodetypes="sccsccscccssccccssccccccsccs"
     inkscape:export-filename="/home/stuart/yaru/icons/Suru/48x48/status/folder-open.png"
     inkscape:export-xdpi="96"
     inkscape:export-ydpi="96" />
  <path
     id="path1123"
     d="M 47,33 35,45 h 4.6886 C 46.3202,45 47,44.32048 47,37.70214 Z"
     style="color:#000000;display:inline;overflow:visible;visibility:visible;opacity:0.05;fill:#ffffff;fill-opacity:1;fill-rule:nonzero;stroke:none;stroke-width:1;marker:none;enable-background:accumulate"
     inkscape:connector-curvature="0"
     sodipodi:nodetypes="ccssc"
     inkscape:export-filename="/home/stuart/yaru/icons/Suru/48x48/status/folder-open.png"
     inkscape:export-xdpi="96"
     inkscape:export-ydpi="96" />
  <path
     inkscape:connector-curvature="0"
     id="path3463-26"
     d="M 9.7481,3 C 6.8477,3 4.6971,2.905 3.0919,4.11914 2.2784,4.73446 1.7383,5.6613 1.4278,6.83594 1.1185,8.00588 1,9.4497 1,11.32422 V 28 H 47 V 17.73047 C 47,17.47221 46.988,17.30436 46.986,17.125 V 17.1133 L 47,15.2383 C 47.013,13.42809 47.019,11.98718 46.8848,10.78322 46.7508,9.57898 46.4682,8.55284 45.7891,7.75588 45.1072,6.95556 44.1145,6.51565 42.8985,6.28518 41.6861,6.0555 40.194,6.00002 38.252,6.00002 H 22.3497 l -3,-3 z"
     style="color:#000000;font-style:normal;font-variant:normal;font-weight:normal;font-stretch:normal;font-size:medium;line-height:normal;font-family:sans-serif;font-variant-ligatures:normal;font-variant-position:normal;font-variant-caps:normal;font-variant-numeric:normal;font-variant-alternates:normal;font-feature-settings:normal;text-indent:0;text-align:start;text-decoration:none;text-decoration-line:none;text-decoration-style:solid;text-decoration-color:#000000;letter-spacing:normal;word-spacing:normal;text-transform:none;writing-mode:lr-tb;direction:ltr;text-orientation:mixed;dominant-baseline:auto;baseline-shift:baseline;text-anchor:start;white-space:normal;shape-padding:0;clip-rule:nonzero;display:inline;overflow:visible;visibility:visible;isolation:auto;mix-blend-mode:normal;color-interpolation:sRGB;color-interpolation-filters:linearRGB;solid-color:#000000;solid-opacity:1;vector-effect:none;fill:url(#linearGradient36775-5);fill-opacity:1;fill-rule:nonzero;stroke:none;stroke-width:1;stroke-linecap:butt;stroke-linejoin:miter;stroke-miterlimit:4;stroke-dasharray:none;stroke-dashoffset:0;stroke-opacity:1;marker:none;color-rendering:auto;image-rendering:auto;shape-rendering:auto;text-rendering:auto;enable-background:accumulate"
     sodipodi:nodetypes="cccsccsccccccsccc"
     inkscape:export-filename="/home/stuart/yaru/icons/Suru/48x48/status/folder-open.png"
     inkscape:export-xdpi="96"
     inkscape:export-ydpi="96" />
  <path
     inkscape:connector-curvature="0"
     style="color:#000000;font-style:normal;font-variant:normal;font-weight:normal;font-stretch:normal;font-size:medium;line-height:normal;font-family:sans-serif;font-variant-ligatures:normal;font-variant-position:normal;font-variant-caps:normal;font-variant-numeric:normal;font-variant-alternates:normal;font-feature-settings:normal;text-indent:0;text-align:start;text-decoration:none;text-decoration-line:none;text-decoration-style:solid;text-decoration-color:#000000;letter-spacing:normal;word-spacing:normal;text-transform:none;writing-mode:lr-tb;direction:ltr;text-orientation:mixed;dominant-baseline:auto;baseline-shift:baseline;text-anchor:start;white-space:normal;shape-padding:0;clip-rule:nonzero;display:inline;overflow:visible;visibility:visible;opacity:0.1;isolation:auto;mix-blend-mode:normal;color-interpolation:sRGB;color-interpolation-filters:linearRGB;solid-color:#000000;solid-opacity:1;vector-effect:none;fill:#732206;fill-opacity:1;fill-rule:nonzero;stroke:none;stroke-width:1;stroke-linecap:butt;stroke-linejoin:miter;stroke-miterlimit:4;stroke-dasharray:none;stroke-dashoffset:0;stroke-opacity:1;marker:none;color-rendering:auto;image-rendering:auto;shape-rendering:auto;text-rendering:auto;enable-background:accumulate"
     d="m 22.7494,15.1 -3,3 H 9.8471 C 7.79179,18.1479 6.413,18.1555 5.2006,18.38516 3.9846,18.61563 2.9919,19.05555 2.31,19.85586 1.6309,20.65282 1.3482,21.67896 1.2143,22.8832 1.1413,23.53834 1.1125,24.28322 1.101,25.1 H 1.14 C 1.157,24.67663 1.174,24.24942 1.214,23.8832 1.348,22.67896 1.6306,21.65282 2.3097,20.85586 2.9916,20.05555 3.9843,19.61563 5.2003,19.38516 6.4127,19.15548 7.9146,18.90487 9.8468,19.1 h 9.9023 l 3,-3 h 15.6016 c 2.9004,0 5.051,-0.095 6.6562,1.11914 0.8135,0.61532 1.3536,1.54216 1.6641,2.7168 0.3092,1.16994 0.4277,2.61376 0.4277,4.48828 v -1 c 0,-1.87452 -0.1185,-3.31834 -0.4277,-4.48828 C 46.3605,17.7613 45.8204,16.83446 45.0069,16.21914 43.4017,15.00496 41.2511,15.1 38.3507,15.1 Z"
     id="path3531-36"
     sodipodi:nodetypes="ccccccccccccccscccsccsc"
     inkscape:export-filename="/home/stuart/yaru/icons/Suru/48x48/status/folder-open.png"
     inkscape:export-xdpi="96"
     inkscape:export-ydpi="96" />
  <path
     inkscape:connector-curvature="0"
     id="path3533-7"
     d="m 9.7121,2.99955 c -2.9004,0 -5.051,-0.095 -6.6562,1.11914 C 2.2424,4.73401 1.7023,5.66085 1.3918,6.83549 1.0825,8.00543 0.96400002,9.44925 0.96400002,11.32377 v 1 C 0.96400002,10.44925 1.0825,9.00543 1.3918,7.83549 1.7023,6.66085 2.2423,5.73401 3.0559,5.11869 4.6611,3.90451 6.8117,3.99955 9.7121,3.99955 h 9.6016 l 3,3 H 38.216 c 1.942,0 3.4341,0.0555 4.6465,0.28516 1.216,0.23047 2.2087,0.67039 2.8906,1.4707 0.6791,0.79696 0.9617,1.8231 1.0957,3.02734 0.067,0.60198 0.1,1.263 0.1133,2 0,-1.12793 -0.019,-2.15282 -0.1133,-3 C 46.7148,9.57851 46.4322,8.55237 45.7531,7.75541 44.93862,6.9551 44.0785,6.51518 42.8625,6.28471 41.6501,6.05503 40.158,5.99955 38.216,5.99955 H 22.3137 l -3,-3 z m 37.2441,14.36719 -0.01,0.74609 v 0.0117 c 0,0.17936 0.014,0.34721 0.014,0.60547 v -1 c 0,-0.15495 0,-0.25141 -0.01,-0.36328 z"
     style="color:#000000;font-style:normal;font-variant:normal;font-weight:normal;font-stretch:normal;font-size:medium;line-height:normal;font-family:sans-serif;font-variant-ligatures:normal;font-variant-position:normal;font-variant-caps:normal;font-variant-numeric:normal;font-variant-alternates:normal;font-feature-settings:normal;text-indent:0;text-align:start;text-decoration:none;text-decoration-line:none;text-decoration-style:solid;text-decoration-color:#000000;letter-spacing:normal;word-spacing:normal;text-transform:none;writing-mode:lr-tb;direction:ltr;text-orientation:mixed;dominant-baseline:auto;baseline-shift:baseline;text-anchor:start;white-space:normal;shape-padding:0;clip-rule:nonzero;display:inline;overflow:visible;visibility:visible;opacity:0.2;isolation:auto;mix-blend-mode:normal;color-interpolation:sRGB;color-interpolation-filters:linearRGB;solid-color:#000000;solid-opacity:1;vector-effect:none;fill:#ffffff;fill-opacity:1;fill-rule:nonzero;stroke:none;stroke-width:1;stroke-linecap:butt;stroke-linejoin:miter;stroke-miterlimit:4;stroke-dasharray:none;stroke-dashoffset:0;stroke-opacity:1;marker:none;color-rendering:auto;image-rendering:auto;shape-rendering:auto;text-rendering:auto;enable-background:accumulate"
     sodipodi:nodetypes="sccscccsccscccccccsccsccscscc"
     inkscape:export-filename="/home/stuart/yaru/icons/Suru/48x48/status/folder-open.png"
     inkscape:export-xdpi="96"
     inkscape:export-ydpi="96" />
  <path
     inkscape:connector-curvature="0"
     id="path3527-1"
     d="m 1.18524,35.39386 v 1 c 0,1.95222 0.053,3.44137 0.2675,4.64453 0.2154,1.20586 0.6222,2.18455 1.3868,2.86524 0.7626,0.67895 1.7527,0.95992 2.8945,1.09179 1.1408,0.13175 2.4963,0.12891 4.1992,0.12891 h 28.5039 c 1.6708,0 3.0101,0.002 4.1445,-0.12891 v 0 c 1.1353,-0.13187 2.1255,-0.41132 2.8946,-1.08593 0.7708,-0.67622 1.1929,-1.653 1.4199,-2.86133 0.2265,-1.20563 0.2871,-2.69921 0.2871,-4.6543 v -1 c 0,1.95509 -0.061,3.44867 -0.2871,4.6543 -0.227,1.20833 -0.6491,2.18511 -1.4199,2.86133 -0.7691,0.67461 -1.7593,0.95406 -2.8946,1.08593 v 0 c -1.1344,0.13091 -2.4737,0.12891 -4.1445,0.12891 H 9.93324 c -1.7029,0 -3.0584,0.003 -4.1992,-0.12891 -1.1418,-0.13187 -2.1319,-0.41284 -2.8945,-1.09179 -0.7646,-0.68069 -1.1714,-1.65938 -1.3868,-2.86524 -0.2147,-1.20316 -0.2676,-2.69231 -0.2675,-4.64453 z"
     style="color:#000000;font-style:normal;font-variant:normal;font-weight:normal;font-stretch:normal;font-size:medium;line-height:normal;font-family:sans-serif;font-variant-ligatures:normal;font-variant-position:normal;font-variant-caps:normal;font-variant-numeric:normal;font-variant-alternates:normal;font-feature-settings:normal;text-indent:0;text-align:start;text-decoration:none;text-decoration-line:none;text-decoration-style:solid;text-decoration-color:#000000;letter-spacing:normal;word-spacing:normal;text-transform:none;writing-mode:lr-tb;direction:ltr;text-orientation:mixed;dominant-baseline:auto;baseline-shift:baseline;text-anchor:start;white-space:normal;shape-padding:0;clip-rule:nonzero;display:inline;overflow:visible;visibility:visible;opacity:0.2;isolation:auto;mix-blend-mode:normal;color-interpolation:sRGB;color-interpolation-filters:linearRGB;solid-color:#000000;solid-opacity:1;vector-effect:none;fill:#000000;fill-opacity:1;fill-rule:nonzero;stroke:none;stroke-width:1;stroke-linecap:butt;stroke-linejoin:miter;stroke-miterlimit:4;stroke-dasharray:none;stroke-dashoffset:0;stroke-opacity:1;marker:none;color-rendering:auto;image-rendering:auto;shape-rendering:auto;text-rendering:auto;enable-background:accumulate"
     inkscape:export-filename="/home/stuart/yaru/icons/Suru/48x48/status/folder-open.png"
     inkscape:export-xdpi="96"
     inkscape:export-ydpi="96" />
  <path
     sodipodi:nodetypes="sccsccscccssccccssccccccsccs"
     inkscape:connector-curvature="0"
     style="color:#000000;font-style:normal;font-variant:normal;font-weight:normal;font-stretch:normal;font-size:medium;line-height:normal;font-family:sans-serif;font-variant-ligatures:normal;font-variant-position:normal;font-variant-caps:normal;font-variant-numeric:normal;font-variant-alternates:normal;font-feature-settings:normal;text-indent:0;text-align:start;text-decoration:none;text-decoration-line:none;text-decoration-style:solid;text-decoration-color:#000000;letter-spacing:normal;word-spacing:normal;text-transform:none;writing-mode:lr-tb;direction:ltr;text-orientation:mixed;dominant-baseline:auto;baseline-shift:baseline;text-anchor:start;white-space:normal;shape-padding:0;clip-rule:nonzero;display:inline;overflow:visible;visibility:visible;isolation:auto;mix-blend-mode:normal;color-interpolation:sRGB;color-interpolation-filters:linearRGB;solid-color:#000000;solid-opacity:1;vector-effect:none;fill:url(#linearGradient3398-8);fill-opacity:1;fill-rule:nonzero;stroke:none;stroke-width:1;stroke-linecap:butt;stroke-linejoin:miter;stroke-miterlimit:4;stroke-dasharray:none;stroke-dashoffset:0;stroke-opacity:1;marker:none;color-rendering:auto;image-rendering:auto;shape-rendering:auto;text-rendering:auto;enable-background:accumulate"
     d="m 38.2584,16.10311 c 2.9004,0 5.051,-0.095 6.6562,1.11914 0.8135,0.61532 1.3536,1.54216 1.6641,2.7168 0.3092,1.16994 0.4277,2.61376 0.4277,4.48828 v 9.40625 -1.73047 4.26953 c 0,1.95222 -0.053,3.44138 -0.2676,4.64453 -0.2153,1.20586 -0.6221,2.18455 -1.3867,2.86524 -0.7627,0.67895 -1.7527,0.95992 -2.8945,1.09179 -1.1408,0.13175 -2.4963,0.12891 -4.1992,0.12891 H 9.7544 c -1.6707,0 -3.0101,0.002 -4.1445,-0.12891 v 0 C 4.4747,44.84233 3.4844,44.56288 2.7154,43.88827 1.9445,43.21205 1.5224,42.23527 1.2955,41.02694 1.069,39.82131 1.0084,38.32773 1.0084,36.37264 v -5.53906 c 0,-0.25826 0.012,-0.42611 0.014,-0.60547 v -0.0117 l -0.014,-1.875 c -0.013,-1.81021 -0.019,-3.25112 0.1152,-4.45508 0.134,-1.20424 0.4166,-2.23038 1.0957,-3.02734 0.6819,-0.80032 1.6746,-1.24023 2.8906,-1.4707 1.2125,-0.22968 3.00818,-0.28516 4.6466,-0.28516 h 9.9023 l 3,-3 z"
     id="path3523-20"
     inkscape:export-filename="/home/stuart/yaru/icons/Suru/48x48/status/folder-open.png"
     inkscape:export-xdpi="96"
     inkscape:export-ydpi="96" />
  <path
     sodipodi:nodetypes="ccssc"
     inkscape:connector-curvature="0"
     style="color:#000000;display:inline;overflow:visible;visibility:visible;opacity:0.05;fill:#ffffff;fill-opacity:1;fill-rule:nonzero;stroke:none;stroke-width:1;marker:none;enable-background:accumulate"
     d="m 47.11654,32.10311 -12,12 h 4.6886 c 6.6316,0 7.3114,-0.67952 7.3114,-7.29786 z"
     id="path3525-23"
     inkscape:export-filename="/home/stuart/yaru/icons/Suru/48x48/status/folder-open.png"
     inkscape:export-xdpi="96"
     inkscape:export-ydpi="96" />
  <path
     inkscape:connector-curvature="0"
     id="path3527-75"
     d="m 1,35.37264 v 1 c 0,1.95222 0.053,3.44137 0.2675,4.64453 0.2154,1.20586 0.6222,2.18455 1.3868,2.86524 0.7626,0.67895 1.7527,0.95992 2.8945,1.09179 1.1408,0.13175 2.4963,0.12891 4.1992,0.12891 h 28.5039 c 1.6708,0 3.0101,0.002 4.1445,-0.12891 v 0 c 1.1353,-0.13187 2.1255,-0.41132 2.8946,-1.08593 0.7708,-0.67622 1.1929,-1.653 1.4199,-2.86133 0.2265,-1.20563 0.2871,-2.69921 0.2871,-4.6543 v -1 c 0,1.95509 -0.061,3.44867 -0.2871,4.6543 -0.227,1.20833 -0.6491,2.18511 -1.4199,2.86133 -0.7691,0.67461 -1.7593,0.95406 -2.8946,1.08593 v 0 c -1.1344,0.13091 -2.4737,0.12891 -4.1445,0.12891 H 9.748 c -1.7029,0 -3.0584,0.003 -4.1992,-0.12891 C 4.407,43.84233 3.4169,43.56136 2.6543,42.88241 1.8897,42.20172 1.4829,41.22303 1.2675,40.01717 1.0528,38.81401 0.99990002,37.32486 1,35.37264 Z"
     style="color:#000000;font-style:normal;font-variant:normal;font-weight:normal;font-stretch:normal;font-size:medium;line-height:normal;font-family:sans-serif;font-variant-ligatures:normal;font-variant-position:normal;font-variant-caps:normal;font-variant-numeric:normal;font-variant-alternates:normal;font-feature-settings:normal;text-indent:0;text-align:start;text-decoration:none;text-decoration-line:none;text-decoration-style:solid;text-decoration-color:#000000;letter-spacing:normal;word-spacing:normal;text-transform:none;writing-mode:lr-tb;direction:ltr;text-orientation:mixed;dominant-baseline:auto;baseline-shift:baseline;text-anchor:start;white-space:normal;shape-padding:0;clip-rule:nonzero;display:inline;overflow:visible;visibility:visible;opacity:0.2;isolation:auto;mix-blend-mode:normal;color-interpolation:sRGB;color-interpolation-filters:linearRGB;solid-color:#000000;solid-opacity:1;vector-effect:none;fill:#000000;fill-opacity:1;fill-rule:nonzero;stroke:none;stroke-width:1;stroke-linecap:butt;stroke-linejoin:miter;stroke-miterlimit:4;stroke-dasharray:none;stroke-dashoffset:0;stroke-opacity:1;marker:none;color-rendering:auto;image-rendering:auto;shape-rendering:auto;text-rendering:auto;enable-background:accumulate"
     sodipodi:nodetypes="cscccssccccscccccsscccc"
     inkscape:export-filename="/home/stuart/yaru/icons/Suru/48x48/status/folder-open.png"
     inkscape:export-xdpi="96"
     inkscape:export-ydpi="96" />
  <path
     inkscape:connector-curvature="0"
     id="path3529-92"
     d="m 22.6562,16.10311 -3,3 H 9.7539 c -1.75542,-0.10674 -3.4341,0.0555 -4.6465,0.28516 -1.216,0.23047 -2.2087,0.67039 -2.8906,1.4707 -0.6791,0.79696 -0.9618,1.8231 -1.0957,3.02734 -0.073,0.65514 -0.1018,1.40002 -0.1133,2.2168 h 0.039 c 0.017,-0.42337 0.034,-0.85058 0.074,-1.2168 0.134,-1.20424 0.4166,-2.23038 1.0957,-3.02734 0.6819,-0.80031 1.6746,-1.24023 2.8906,-1.4707 1.2124,-0.22968 2.7143,-0.48029 4.6465,-0.28516 h 9.9023 l 3,-3 h 15.6016 c 2.9004,0 5.051,-0.095 6.6562,1.11914 0.8135,0.61532 1.3536,1.54216 1.6641,2.7168 0.3092,1.16994 0.4277,2.61376 0.4277,4.48828 v -1 c 0,-1.87452 -0.1185,-3.31834 -0.4277,-4.48828 -0.3105,-1.17464 -0.8506,-2.10148 -1.6641,-2.7168 -1.6052,-1.21418 -3.7558,-1.11914 -6.6562,-1.11914 z"
     style="color:#000000;font-style:normal;font-variant:normal;font-weight:normal;font-stretch:normal;font-size:medium;line-height:normal;font-family:sans-serif;font-variant-ligatures:normal;font-variant-position:normal;font-variant-caps:normal;font-variant-numeric:normal;font-variant-alternates:normal;font-feature-settings:normal;text-indent:0;text-align:start;text-decoration:none;text-decoration-line:none;text-decoration-style:solid;text-decoration-color:#000000;letter-spacing:normal;word-spacing:normal;text-transform:none;writing-mode:lr-tb;direction:ltr;text-orientation:mixed;dominant-baseline:auto;baseline-shift:baseline;text-anchor:start;white-space:normal;shape-padding:0;clip-rule:nonzero;display:inline;overflow:visible;visibility:visible;opacity:0.2;isolation:auto;mix-blend-mode:normal;color-interpolation:sRGB;color-interpolation-filters:linearRGB;solid-color:#000000;solid-opacity:1;vector-effect:none;fill:#ffffff;fill-opacity:1;fill-rule:nonzero;stroke:none;stroke-width:1;stroke-linecap:butt;stroke-linejoin:miter;stroke-miterlimit:4;stroke-dasharray:none;stroke-dashoffset:0;stroke-opacity:1;marker:none;color-rendering:auto;image-rendering:auto;shape-rendering:auto;text-rendering:auto;enable-background:accumulate"
     sodipodi:nodetypes="ccccccccccccccscccsccsc"
     inkscape:export-filename="/home/stuart/yaru/icons/Suru/48x48/status/folder-open.png"
     inkscape:export-xdpi="96"
     inkscape:export-ydpi="96" />
  <g
     id="g17737"
     transform="translate(0,4.00002)">
    <path
       d="m 27,36 -0.4785,-0.92188 c -0.5111,-0.98528 -0.8804,-1.9421 -1.127,-2.666 -0.2465,-0.72395 -0.3542,-1.1466 -0.3828,-1.2715 L 25,31.08398 v -10.084 c 0,0 0,-1 1,-1 h 2 c 0,0 1,0 1,1 v 10.084 l -0.012,0.05664 c -0.028,0.12211 -0.1363,0.54745 -0.3828,1.2715 -0.2466,0.72404 -0.6165,1.6814 -1.127,2.666 z m -0.209,-3.043 h 0.416 c 0.1394,-0.31482 0.2942,-0.64939 0.377,-0.89258 0.2251,-0.6612 0.4169,-1.0711 0.416,-1.0645 h -2 c 0,-0.0089 0.1889,0.40342 0.4141,1.0645 0.083,0.24312 0.2376,0.57775 0.3769,0.89258 z M 26,23 h 2 v -2 h -2 z"
       enable-background="new"
       fill="#ffffff"
       opacity="0.75"
       id="path826" />
    <path
       d="m 19,20 v 15 h 5 V 20 Z m 1,1 h 3 v 1 h -1 v 1 h 1 v 1 h -1 v 1 h 1 v 1 h -1 v 1 h 1 v 1 h -1 v 1 h 1 v 1 h -1 v 1 h 1 v 1 h -1 v 1 h 1 v 1 h -3 z"
       color="#000000"
       color-rendering="auto"
       dominant-baseline="auto"
       fill="#ffffff"
       image-rendering="auto"
       opacity="0.75"
       shape-rendering="auto"
       solid-color="#000000"
       style="font-variant-ligatures:normal;font-variant-position:normal;font-variant-caps:normal;font-variant-numeric:normal;font-variant-alternates:normal;font-feature-settings:normal;text-indent:0;text-decoration:none;text-decoration-line:none;text-decoration-style:solid;text-decoration-color:#000000;text-transform:none;text-orientation:mixed;white-space:normal;shape-padding:0;isolation:auto;mix-blend-mode:normal"
       id="path828" />
  </g>
</svg>
