<svg width="24" height="24" version="1.1" xmlns="http://www.w3.org/2000/svg">
 <defs>
  <style id="current-color-scheme" type="text/css">.ColorScheme-Text { color:#dfdfdf; } .ColorScheme-Highlight { color:#4285f4; } .ColorScheme-NeutralText { color:#ff9800; } .ColorScheme-PositiveText { color:#4caf50; } .ColorScheme-NegativeText { color:#f44336; }</style>
 </defs>
 <path d="m9.2424 7.1404c-0.75205 0.72312-1.2266 1.7319-1.2266 2.8594 6.6e-4 0.11019 0.00603 0.22032 0.015625 0.33008v3.2363c0 0.3597-0.033702 0.6898-0.10156 0.98828-0.0679 0.29862-0.18774 0.55134-0.35742 0.76172-0.16288 0.21718-0.38382 0.38462-0.66211 0.5-0.2712 0.11906-0.611 0.17694-1.0176 0.17969v0.0039h12.244v-0.0039c-0.40658-3e-3 -0.74638-0.06061-1.0176-0.17969-0.27829-0.11538-0.49923-0.28283-0.66211-0.5-0.16968-0.21039-0.28761-0.4631-0.35547-0.76172-0.0679-0.29848-0.10161-0.62859-0.10156-0.98828v-3.25c9e-3 -0.10522 0.01463-0.21078 0.01563-0.31641 0-1.1269-0.47319-2.1345-1.2246-2.8574a3 3 0 0 1-0.54688 0.86523c0.47471 0.53068 0.77148 1.2241 0.77148 1.9922v5h-6v-5c0-0.76806 0.29677-1.4615 0.77148-1.9922a3 3 0 0 1-0.54492-0.86719z" fill="#fff"/>
 <path d="m8.1058 15.72-0.0156 0.0195c3e-3 -3e-3 4e-3 -8e-3 6e-3 -0.0117 2e-3 -3e-3 8e-3 -4e-3 0.01-8e-3z" fill="#666"/>
 <path d="m15.926 15.72c2e-3 3e-3 8e-3 4e-3 0.01 8e-3 3e-3 3e-3 4e-3 8e-3 6e-3 0.0117z" fill="#666"/>
 <path d="m10.016 17c0.0125 1.1086 0.91475 2 2.0234 2 1.1087 0 2.0109-0.89138 2.0234-2z" fill="#fff"/>
 <path d="m16.086 16.31c3e-3 4e-3 7e-3 6e-3 9e-3 9e-3 3e-3 4e-3 5e-3 0.01 8e-3 0.0137z" fill="#666"/>
 <path d="m7.9458 16.32-0.0179 0.0231c3e-3 -4e-3 5e-3 -9e-3 8e-3 -0.0137 3e-3 -4e-3 7e-3 -6e-3 9e-3 -9e-3z" fill="#666"/>
 <path class="warning" d="m14.016 5.9998a2 2 0 0 1-2 2 2 2 0 0 1-2-2 2 2 0 0 1 2-2 2 2 0 0 1 2 2z" fill="#fdc92b" stroke-width="1.3333"/>
 <path d="m8.1074 15.717-0.0156 0.0195c3e-3 -3e-3 4e-3 -8e-3 6e-3 -0.0117 2e-3 -3e-3 8e-3 -4e-3 0.01-8e-3z" fill="#2b898f"/>
 <path d="m15.924 15.717c2e-3 3e-3 8e-3 4e-3 0.01 8e-3 3e-3 3e-3 4e-3 8e-3 6e-3 0.0117z" fill="#2b898f"/>
 <path d="m16.082 16.314c3e-3 4e-3 7e-3 6e-3 9e-3 9e-3 3e-3 4e-3 5e-3 0.01 8e-3 0.0137z" fill="#2b898f"/>
 <path d="m7.9424 16.316-0.0179 0.0231c3e-3 -4e-3 5e-3 -9e-3 8e-3 -0.0137 3e-3 -4e-3 7e-3 -6e-3 9e-3 -9e-3z" fill="#2b898f"/>
</svg>
