<svg width="24" height="24" version="1.1" xmlns="http://www.w3.org/2000/svg">
 <path d="m11.963 3.998a1.499 1.499 0 0 0-1.2773 0.78516l-6.502 12a1.5 1.5 0 0 0 1.3164 2.2168h13a1.5 1.5 0 0 0 1.3164-2.2168l-6.498-12a1.496 1.496 0 0 0-1.3555-0.78516zm0.02539 1a0.494 0.494 0 0 1 0.45117 0.26172l6.498 12c0.203 0.374-0.016499 0.74023-0.4375 0.74023h-13c-0.422 0-0.6395-0.36623-0.4375-0.74023l6.502-12a0.493 0.493 0 0 1 0.42383-0.26172z" fill="#fdc92b" style="font-feature-settings:normal;font-variant-alternates:normal;font-variant-caps:normal;font-variant-ligatures:normal;font-variant-numeric:normal;font-variant-position:normal;isolation:auto;mix-blend-mode:normal;shape-padding:0;text-decoration-color:#000000;text-decoration-line:none;text-decoration-style:solid;text-indent:0;text-orientation:mixed;text-transform:none"/>
 <path d="m11.293 7v2.662c0 0.793 0.03 1.517 0.086 2.168 0.057 0.642 0.128 1.284 0.213 1.926h0.82c0.085-0.642 0.157-1.284 0.213-1.926 0.057-0.651 0.086-1.375 0.086-2.168v-2.662z" fill="#fdc92b" style="font-feature-settings:normal;font-variant-alternates:normal;font-variant-caps:normal;font-variant-ligatures:normal;font-variant-numeric:normal;font-variant-position:normal;isolation:auto;mix-blend-mode:normal;shape-padding:0;text-decoration-color:#000000;text-decoration-line:none;text-decoration-style:solid;text-indent:0;text-orientation:mixed;text-transform:none"/>
 <path d="m12.003 15a1 1 0 0 0-1 1c0 0.282 0.118 0.535 0.306 0.717 0.17 0.189 0.4 0.283 0.693 0.283s0.524-0.094 0.694-0.283a0.994 0.994 0 0 0 0.306-0.717 1 1 0 0 0-1-1z" fill="#fdc92b" style="font-feature-settings:normal;font-variant-alternates:normal;font-variant-caps:normal;font-variant-ligatures:normal;font-variant-numeric:normal;font-variant-position:normal;isolation:auto;mix-blend-mode:normal;shape-padding:0;text-decoration-color:#000000;text-decoration-line:none;text-decoration-style:solid;text-indent:0;text-orientation:mixed;text-transform:none"/>
</svg>
