<svg width="24" height="24" version="1.1" xmlns="http://www.w3.org/2000/svg">
 <defs>
  <style id="current-color-scheme" type="text/css">.ColorScheme-Text { color:#dfdfdf; } .ColorScheme-Highlight { color:#4285f4; } .ColorScheme-NeutralText { color:#ff9800; } .ColorScheme-PositiveText { color:#4caf50; } .ColorScheme-NegativeText { color:#f44336; }</style>
 </defs>
 <path d="m8.5 4c-0.831 0-1.5 0.669-1.5 1.5s0.669 1.5 1.5 1.5h1.5v2h-2.8223c-0.65293 0-1.1777 0.52481-1.1777 1.1777v8.6445c0 0.65293 0.52481 1.1777 1.1777 1.1777h8.6445c0.65293 0 1.1777-0.52481 1.1777-1.1777v-8.6445c0-0.65293-0.52481-1.1777-1.1777-1.1777h-2.8223v-2h1.5c0.831 0 1.5-0.669 1.5-1.5s-0.669-1.5-1.5-1.5h-6zm0.083984 1h5.832c0.3238 0 0.58398 0.223 0.58398 0.5s-0.26018 0.5-0.58398 0.5h-1.416-3-1.416c-0.3238 0-0.58398-0.223-0.58398-0.5s0.26018-0.5 0.58398-0.5zm-1.0625 5h2.4785v1.75l-1.5 1.25h1.5v1 2h-1.5l3 2.5 3-2.5h-1.5v-2-1h1.5l-1.5-1.25v-1.75h2.4785c0.28926 0 0.52148 0.26505 0.52148 0.59375v7.8125c0 0.3287-0.23223 0.59375-0.52148 0.59375h-7.957c-0.28925 0-0.52148-0.26505-0.52148-0.59375v-7.8125c0-0.3287 0.23223-0.59375 0.52148-0.59375z" fill="#fff"/>
</svg>
