<svg width="24" height="24" version="1.1" xmlns="http://www.w3.org/2000/svg">
 <defs>
  <style id="current-color-scheme" type="text/css">.ColorScheme-Text { color:#dfdfdf; } .ColorScheme-Highlight { color:#4285f4; } .ColorScheme-NeutralText { color:#ff9800; } .ColorScheme-PositiveText { color:#4caf50; } .ColorScheme-NegativeText { color:#f44336; }</style>
 </defs>
 <path d="m11.977 3.998-0.02539 0.0019531-0.017578 0.0019531c-3e-3 1.14e-5 -0.004813 0.0019432-0.007813 0.0019531-0.355 0.00212-0.66818 0.046314-0.93555 0.15039-0.24536 0.09551-0.49338 0.24949-0.60547 0.53125-0.029257 0.037615-0.078845 0.10491-0.11914 0.24219l-0.005859 0.019531-0.66406 3.3027 0.24219 0.17773c0.58141 0.42482 1.3706 0.58398 2.1582 0.58398 0.78763 0 1.5787-0.15917 2.1602-0.58398l0.24219-0.17773-0.66602-3.3008-0.003906-0.019531c-0.018849-0.0652-0.026698-0.081394-0.03711-0.10742-4.48e-4 -0.0014583-0.001496-0.0024556-0.001953-0.0039062-0.008827-0.021638-0.010337-0.031564-0.009765-0.023438-0.053032-0.14763-0.14874-0.2556-0.23828-0.33398-0.1166-0.11873-0.25596-0.22241-0.42578-0.28125-0.31923-0.11073-0.66076-0.17767-1.0137-0.18164h-0.025391zm0.92383 0.72461c-0.0045 0.00531-0.01872 0.02484-0.03125 0.042969 0.0082-0.013 0.017628-0.027411 0.017578-0.027344-2.58e-4 3.394e-4 0.020512-0.023754 0.013672-0.015625zm-0.89648 0.21484c0.0013 2.17e-5 0.002609-2.41e-5 0.003906 0 0.23561 0.00447 0.47153 0.049252 0.70117 0.12891 0.02353 0.00815 0.050829 0.025529 0.074219 0.050781l0.015625 0.017578 0.017578 0.050781c0.013764 0.038458 0.011896 0.036748 0.019532 0.058594l0.50195 2.4922c-0.34848 0.17539-0.80365 0.33789-1.3418 0.33789-0.53741 0-0.99134-0.1629-1.3398-0.33789l0.50781-2.5234c0.004782-0.0077627 0.014105-0.024172 0.03711-0.060547l0.041016-0.0625 0.003906-0.017578c0.009064-0.0063436 0.03081-0.022271 0.083984-0.042969 0.11724-0.045651 0.32715-0.086884 0.58984-0.089844 0.015451 1.713e-4 0.013767-1.092e-4 0.041016 0h0.023437l0.019531-0.0019531zm1.666 0.31055c-0.0017 0.00374-0.005857 0.01371-0.00586 0.013672 1.81e-4 -3.08e-4 -0.017648 0.023631-0.03125 0.042969 0.001503-0.00231 0.02708-0.040731 0.03711-0.056641zm1.2852 4.8086-0.47852 0.19141c-1.7388 0.6968-3.0424 0.86683-4.9414 0.007812l-0.091797-0.041015h-0.45117l-0.099609 0.33594-0.50977 1.7324h-0.63477c-0.45301 1.13e-4 -0.86221 0.27736-1.0352 0.69531l-0.0097656 0.021484-1.6406 5.4805c-0.26004 0.71481 0.28057 1.5134 1.0508 1.5137h0.0019532 11.764c0.77021-2.33e-4 1.3127-0.79886 1.0527-1.5137l-1.6406-5.4805-0.009766-0.021484c-0.17296-0.41794-0.58215-0.6952-1.0352-0.69531h-0.63672l-0.6543-2.2266zm-5.2832 1.168c1.6706 0.61522 3.1492 0.53154 4.6523 0.007813l0.32422 1.1094 0.13281 0.44922 0.25977 0.88476h0.001953l0.16992 0.58398 0.22852 0.77539c0.02531 0.08627-0.007298 0.17174-0.080078 0.2168-0.93262 0.5768-2.164 0.87684-3.3945 0.88867-1.2309 0.01192-2.4424-0.26265-3.3418-0.89453-0.06637-0.046666-0.096254-0.12916-0.072266-0.21094l0.22852-0.77539 0.15625-0.53711h0.0019531l0.25781-0.875h-0.0019531l0.47656-1.623zm-1.9238 1.9961h0.35938l-0.45508 1.5508c-0.13547 0.46178 0.038608 0.96447 0.43359 1.2422 1.1152 0.78351 2.5173 1.0778 3.8906 1.0645 1.3738-0.01321 2.758-0.33725 3.877-1.0293 0.43066-0.26657 0.63049-0.7927 0.48828-1.2773l-0.45508-1.5508h0.35938c0.07349 1.9e-5 0.13739 0.0424 0.16797 0.11328l1.627 5.4375 0.007812 0.021485c0.05855 0.14157-0.0237 0.26363-0.16992 0.26367h-11.764c-0.14624-4.5e-5 -0.23042-0.1221-0.17188-0.26367l0.0097656-0.021485 1.627-5.4375c0.030569-0.07087 0.09446-0.11326 0.16797-0.11328zm7.7813 0.27539-0.066406 0.027344-0.003907-0.001954c0.023045-0.0133 0.047148-0.019036 0.070313-0.02539z" color="#dfdfdf" fill="#fff" fill-rule="evenodd" style="-inkscape-stroke:none"/>
</svg>
