<svg width="24" height="24" version="1" xmlns="http://www.w3.org/2000/svg" xmlns:xlink="http://www.w3.org/1999/xlink">
 <defs>
  <linearGradient id="linearGradient1690-3" x1="320" x2="344" y1="212" y2="212" gradientTransform="rotate(90 266 -54)" gradientUnits="userSpaceOnUse">
   <stop stop-color="#2b898f" offset="0"/>
   <stop stop-color="#5bdbc1" offset="1"/>
  </linearGradient>
  <linearGradient id="linearGradient4251-3" x1="16" x2="16" y1="304" y2="208" gradientTransform="matrix(.03125 0 0 .034722 .66628 3.1106)" gradientUnits="userSpaceOnUse" xlink:href="#linearGradient4245"/>
  <linearGradient id="linearGradient4245">
   <stop stop-color="#d9d9d9" offset="0"/>
   <stop stop-color="#ececec" offset="1"/>
  </linearGradient>
  <linearGradient id="linearGradient1690-9" x1="321" x2="343" y1="200" y2="200" gradientTransform="rotate(90 266 -54)" gradientUnits="userSpaceOnUse">
   <stop stop-color="#fff" offset="0"/>
   <stop stop-color="#fff" stop-opacity=".098039" offset=".125"/>
   <stop stop-color="#fff" stop-opacity=".098039" offset=".925"/>
   <stop stop-color="#fff" stop-opacity=".49804" offset="1"/>
  </linearGradient>
 </defs>
 <path d="m6.4524 1c-1.2321 0-2.2167 0.0221-3.07 0.14144-0.85332 0.11937-1.6281 0.35533-2.2107 0.83967-0.58256 0.48436-0.86983 1.1338-1.0119 1.8459-0.14202 0.71207-0.16501 1.5324-0.15897 2.562v7.6107 4.6143c-6e-3 1.0276 0.0171 1.8474 0.15897 2.5584 0.14203 0.71208 0.42931 1.3615 1.0119 1.8459 0.58258 0.48434 1.3573 0.7203 2.2107 0.83967 0.85331 0.11936 1.8379 0.14144 3.07 0.14144h11.095c1.2321 0 2.2138-0.022 3.0657-0.14144 0.85187-0.11947 1.628-0.35683 2.2085-0.84146 0.58057-0.48464 0.86451-1.1315 1.0076-1.8423 0.14307-0.71077 0.16972-1.5314 0.16972-2.5602v-4.6143-7.6142c0-1.0288-0.0266-1.8495-0.16972-2.5602-0.14307-0.71076-0.42701-1.3576-1.0076-1.8423-0.58055-0.48464-1.3566-0.722-2.2085-0.84147-0.8519-0.11947-1.8336-0.14144-3.0657-0.14144z" color="#000000" color-rendering="auto" dominant-baseline="auto" image-rendering="auto" opacity=".1" shape-rendering="auto" solid-color="#000000" style="font-feature-settings:normal;font-variant-alternates:normal;font-variant-caps:normal;font-variant-ligatures:normal;font-variant-numeric:normal;font-variant-position:normal;isolation:auto;mix-blend-mode:normal;shape-padding:0;text-decoration-color:#000000;text-decoration-line:none;text-decoration-style:solid;text-indent:0;text-orientation:mixed;text-transform:none;white-space:normal"/>
 <path d="m6.1765 0.49897c-5.1467 0-5.7004 0.43262-5.6752 4.6531v5.8479 7.8476c-0.0253 4.2205 0.52855 4.6531 5.6752 4.6531h11.646c5.1466 0 5.6752-0.43255 5.6752-4.6531v-7.8476-5.8479c0-4.2205-0.52857-4.6531-5.6752-4.6531z" color="#000000" fill="url(#linearGradient1690-3)"/>
 <path d="m7.6552 7.0186c-0.33024 0-0.6375 0.0412-0.92187 0.12379-0.28437 0.0826-0.54134 0.1835-0.77067 0.30275-0.22934 0.11925-0.42659 0.24756-0.59171 0.38516-0.16512 0.12842-0.2888 0.2386-0.37136 0.33034l0.63273 0.90807c0.0642-0.055 0.15609-0.13306 0.27534-0.23396 0.11925-0.11008 0.26604-0.21084 0.44033-0.30257 0.1743-0.10091 0.37155-0.18798 0.59171-0.26137 0.22016-0.0734 0.46309-0.11017 0.72911-0.11017 0.22016 0 0.42666 0.0322 0.6193 0.0964 0.20181 0.055 0.37615 0.14674 0.52292 0.27517 0.14677 0.12842 0.26139 0.28889 0.34395 0.48153 0.0917 0.19264 0.13758 0.42669 0.13758 0.70189 0 0.25685-0.0505 0.49995-0.15137 0.72929-0.0917 0.22933-0.22004 0.45395-0.38516 0.67411-0.15594 0.21099-0.33952 0.42655-0.5505 0.6467-0.0738 0.0771-0.15144 0.1556-0.22888 0.23397h1.586c0.12818-0.15136 0.24931-0.30258 0.36283-0.45395 0.22016-0.30272 0.3945-0.60554 0.52292-0.90826 0.1376-0.31189 0.20656-0.63301 0.20656-0.96325 0-0.84394-0.25235-1.4952-0.75688-1.9539-0.49536-0.46784-1.243-0.7017-2.2429-0.7017zm8.2208 0c-0.44032 0-0.83927 0.0734-1.197 0.22017-0.35776 0.1376-0.66501 0.32561-0.92187 0.56412-0.24768 0.2385-0.44031 0.51821-0.57791 0.83928-0.1376 0.31189-0.20637 0.64207-0.20637 0.99066 0 0.99989 0.44942 1.7568 1.3484 2.2705-0.0505 0.0307-0.10031 0.063-0.14974 0.0964h3.4388c-0.084-0.0477-0.17033-0.0941-0.26191-0.13759 0.18346-0.11925 0.3578-0.25679 0.52292-0.41274 0.17429-0.15595 0.3257-0.3349 0.45412-0.53671 0.1376-0.20181 0.24298-0.41738 0.31637-0.64671 0.0826-0.2385 0.12397-0.49085 0.12397-0.75688 0-0.2752-0.0551-0.55953-0.16517-0.85308-0.10091-0.29354-0.27062-0.55957-0.50913-0.79808-0.22933-0.24768-0.52753-0.44955-0.89446-0.6055-0.36693-0.15594-0.80729-0.23378-1.321-0.23378zm0 1.0594c0.29355 0 0.54127 0.0505 0.74309 0.15138 0.20181 0.0917 0.36708 0.21097 0.49551 0.35774 0.12843 0.1376 0.22012 0.28901 0.27516 0.45413 0.0642 0.16512 0.0964 0.31653 0.0964 0.45413 0 0.49536-0.1148 0.89893-0.34413 1.2108-0.22934 0.30271-0.53659 0.56874-0.92187 0.79808-0.34859-0.0826-0.65122-0.19275-0.90808-0.33034-0.24768-0.1376-0.44955-0.29345-0.6055-0.46774-0.15594-0.1743-0.27057-0.36249-0.34395-0.56431-0.0734-0.20181-0.11018-0.40351-0.11018-0.60532 0-0.16512 0.0276-0.33021 0.0826-0.49533 0.0642-0.17429 0.16053-0.33032 0.28895-0.46792 0.12843-0.14677 0.29352-0.26602 0.49533-0.35775 0.21099-0.0917 0.46316-0.13758 0.7567-0.13758z" enable-background="new" fill="#ececec"/>
 <path d="m7.9776 12c-0.13426 0.13584-0.27341 0.27333-0.41873 0.41283-0.2752 0.2752-0.555 0.55953-0.83937 0.85308-0.28438 0.29354-0.54116 0.60542-0.7705 0.93566-0.22933 0.33024-0.41743 0.68344-0.56421 1.0595-0.1376 0.36693-0.20637 0.76598-0.20637 1.1971v0.15138c0 0.055 5e-3 0.11004 0.0138 0.16508h5.7792v-1.087h-4.3894c0-0.15595 0.0596-0.33943 0.17888-0.55042 0.12842-0.21098 0.28436-0.43107 0.46783-0.66041 0.18347-0.22933 0.3761-0.44951 0.57792-0.6605l0.55041-0.55041c0.2752-0.2752 0.55038-0.555 0.82558-0.83938 0.13329-0.14217 0.25978-0.28438 0.38016-0.42653zm6.1939 0c-0.15718 0.10604-0.3091 0.22513-0.45567 0.35774-0.18347 0.16512-0.34856 0.35323-0.49533 0.56422-0.1376 0.21098-0.25231 0.44031-0.34404 0.68799-0.0826 0.23851-0.12379 0.49077-0.12379 0.75679 0 0.2752 0.0504 0.56869 0.15128 0.88058 0.10091 0.30272 0.27062 0.58252 0.50913 0.83937 0.2385 0.25685 0.555 0.47241 0.94946 0.64671 0.40362 0.16512 0.90361 0.24766 1.4999 0.24766 0.5137 0 0.96775-0.0688 1.3622-0.20637 0.39445-0.12843 0.7201-0.31191 0.97696-0.55042 0.26602-0.24768 0.46328-0.53201 0.59171-0.85307 0.13759-0.33024 0.20637-0.68797 0.20637-1.0732-0.0168-1.0157-0.47937-1.7815-1.3872-2.298zm1.168 0.31645c0.36693 0.0826 0.69258 0.1835 0.97696 0.30275 0.29354 0.11008 0.54127 0.24763 0.74308 0.41275 0.21099 0.16512 0.37146 0.35784 0.48154 0.578s0.16517 0.47695 0.16517 0.77049c0 0.19264-0.0367 0.38075-0.11009 0.56422-0.0734 0.18346-0.18347 0.34855-0.33025 0.49533-0.14677 0.13759-0.3394 0.25222-0.57791 0.34395-0.22933 0.0917-0.49998 0.13767-0.81188 0.13767-0.34858 0-0.63754-0.0505-0.86687-0.15137-0.22933-0.10091-0.41735-0.22477-0.56412-0.37155-0.14677-0.15594-0.25224-0.32103-0.31645-0.49533-0.055-0.18346-0.0826-0.3578-0.0826-0.52291 0-0.46784 0.11009-0.87142 0.33025-1.2108 0.22933-0.33941 0.55036-0.62384 0.96316-0.85317z" enable-background="new" fill="#f9f9f9"/>
 <path d="m0.99961 9.9995v4h1v-4z" color="#000000" fill="url(#linearGradient4251-3)"/>
 <path d="m22 9.9995v4h1v-4z" color="#000000" fill="url(#linearGradient4251-3)"/>
 <path d="m0.49972 12v6.8478c0 4.2205 0.52913 4.6523 5.6758 4.6523h11.646c5.1467 0 5.6991-0.43188 5.6738-4.6523v-6.8478z" enable-background="new" fill="#fff" opacity=".08"/>
 <path d="m17.976 23.5c4.6719 0 5.5471-0.42296 5.5226-4.5492v-7.9504-5.9508c0.0245-4.1263-0.85068-4.5492-5.5226-4.5492h-11.954c-4.6707 0-5.5226 0.42291-5.5226 4.5492v5.9508 7.9504c0 4.1263 0.85185 4.5492 5.5226 4.5492z" color="#000000" fill="none" opacity=".4" stroke="#000"/>
 <path d="m6.0234 1c-2.3203 0-3.6094 0.15494-4.207 0.62109-0.29882 0.23308-0.48964 0.54668-0.625 1.0957-0.13541 0.54902-0.19141 1.3176-0.19141 2.332v5.9512 7.9508c0 1.0144 0.056 1.783 0.19141 2.332 0.13536 0.54903 0.32618 0.86263 0.625 1.0957 0.59762 0.46615 1.8868 0.62109 4.207 0.62109h11.952c2.3208 0 3.6165-0.15457 4.2168-0.62109 0.30014-0.23327 0.49095-0.54754 0.625-1.0957 0.13404-0.54816 0.18764-1.3162 0.18164-2.3301v-7.9528-5.9531c6e-3 -1.0139-0.0476-1.7819-0.18164-2.3301-0.13406-0.54817-0.32486-0.86244-0.625-1.0957-0.60028-0.46652-1.896-0.62109-4.2168-0.62109zm4.9586 1.0098c1.5798-2e-3 4.1601-3.9e-4 5.7399 0.0117 1.5002 0.0511 3.0224-0.0712 4.5 0.28321 0.55111 0.0919 0.61303 0.71807 0.67773 1.166 0.1117 4.3083 0.075 10.626 0.0508 14.941-0.0716 0.99089 0.13687 2.0761-0.30078 3.0137-0.34356 0.40964-0.9694 0.35958-1.4512 0.45509-3.9541 0.0823-9.9294 0.0499-13.894 0.0371-1.1691-0.0622-2.3729 0.11291-3.5176-0.22266-0.57935-0.098-0.6137-0.75914-0.6875-1.2207-0.1146-4.1184-0.0751-10.245-0.0547-14.369 0.0572-1.063-0.0797-2.1673 0.18164-3.2148 0.10495-0.6386 0.8614-0.66043 1.3672-0.74023 2.1305-0.19658 5.2407-0.10662 7.3883-0.14062z" color="#000000" fill="url(#linearGradient1690-9)"/>
</svg>
