<svg width="32" height="32" version="1" xmlns="http://www.w3.org/2000/svg" xmlns:xlink="http://www.w3.org/1999/xlink">
 <defs>
  <linearGradient id="linearGradient1839" x1="320" x2="352" y1="-196" y2="-226" gradientTransform="translate(-320,228)" gradientUnits="userSpaceOnUse">
   <stop stop-color="#2c001e" offset="0"/>
   <stop stop-color="#2c001e" offset=".10865"/>
   <stop stop-color="#370626" offset=".1869"/>
   <stop stop-color="#55163b" offset=".29807"/>
   <stop stop-color="#772953" offset=".37246"/>
   <stop stop-color="#7c2b51" offset=".44701"/>
   <stop stop-color="#8b314b" offset=".52429"/>
   <stop stop-color="#8b314b" offset=".59614"/>
   <stop stop-color="#a33a41" offset=".66876"/>
   <stop stop-color="#c44732" offset=".79755"/>
   <stop stop-color="#e65524" offset=".91251"/>
   <stop stop-color="#e65524" offset="1"/>
  </linearGradient>
  <linearGradient id="linearGradient13910" x1="320" x2="352" y1="-217" y2="-197" gradientTransform="translate(-320,228)" gradientUnits="userSpaceOnUse">
   <stop stop-color="#666" offset="0"/>
   <stop stop-color="#7a7a7a" offset="1"/>
  </linearGradient>
 </defs>
 <path d="m7.0332 3c-1.527 0-2.7016 0.0572-3.668 0.25391-0.9705 0.19757-1.7813 0.56614-2.3438 1.2188-0.56001 0.64975-0.79018 1.4671-0.90039 2.3594-0.11008 0.89115-0.11277 1.9109-0.12109 3.1602v2e-3 4e-3 15.004 4e-3 2e-3c0.0166 2.4911-0.0831 4.163 0.8418 5.4492 0.47631 0.66243 1.2071 1.0723 2.0625 1.2812 0.84594 0.20664 1.8468 0.26172 3.1289 0.26172h19c1.527 0 2.7019-0.0572 3.668-0.25391 0.96989-0.19756 1.7791-0.56452 2.3398-1.2188 0.55824-0.65128 0.78556-1.4702 0.89062-2.3633 0.10488-0.89165 0.10156-1.9145 0.10156-3.1641v-13c0-1.2495 4e-3 -2.2722-0.10156-3.1641-0.10504-0.89304-0.33239-1.712-0.89062-2.3633-0.56078-0.65423-1.37-1.0212-2.3398-1.2188-0.96607-0.19707-2.1409-0.25419-3.668-0.25419h-10.605l-2.1426-2h-0.39454c-2.0639-9e-5 -3.912-2e-5 -4.3574 0z" color="#000000" color-rendering="auto" dominant-baseline="auto" image-rendering="auto" opacity=".1" shape-rendering="auto" solid-color="#000000" style="font-feature-settings:normal;font-variant-alternates:normal;font-variant-caps:normal;font-variant-ligatures:none;font-variant-numeric:normal;font-variant-position:normal;isolation:auto;mix-blend-mode:normal;shape-padding:0;text-decoration-color:#000000;text-decoration-line:none;text-decoration-style:solid;text-indent:0;text-orientation:mixed;text-transform:none;white-space:normal"/>
 <path d="m7.0332 2.5c-1.5139 0-2.6622 0.0597-3.5684 0.24414-0.90613 0.18447-1.5957 0.51085-2.0644 1.0547s-0.67885 1.2489-0.7832 2.0938c-0.10436 0.84483-0.10887 1.8536-0.11719 3.1035v2e-3 15.004 2e-3c0.0167 2.4998-0.038 4.0689 0.74805 5.1621 0.39303 0.5466 0.99944 0.8964 1.7754 1.0859 0.77595 0.18954 1.7431 0.24805 3.0098 0.24805h19c1.5139 0 2.6627-0.0597 3.5684-0.24414 0.9057-0.18449 1.5937-0.51 2.0606-1.0547s0.67402-1.2506 0.77344-2.0957c0.0994-0.84508 0.0977-1.8555 0.0977-3.1055v-13c0-1.25 2e-3 -2.2604-0.0977-3.1055-0.0994-0.84508-0.30656-1.551-0.77344-2.0957s-1.1548-0.8702-2.0606-1.0547-2.0545-0.24414-3.5684-0.24414h-10.803l-2.1426-2h-0.19727c-2.3007-1e-4 -4.8574 0-4.8574 0z" color="#000000" color-rendering="auto" dominant-baseline="auto" fill="url(#linearGradient1839)" image-rendering="auto" shape-rendering="auto" solid-color="#000000" style="font-feature-settings:normal;font-variant-alternates:normal;font-variant-caps:normal;font-variant-ligatures:none;font-variant-numeric:normal;font-variant-position:normal;isolation:auto;mix-blend-mode:normal;shape-padding:0;text-decoration-color:#000000;text-decoration-line:none;text-decoration-style:solid;text-indent:0;text-orientation:mixed;text-transform:none;white-space:normal"/>
 <path d="m16.143 11-2.1426 2h-7.5c-5.5346 0-5.9589 0.8928-5.9922 4.9492-7e-3 3.0683 0.0131 6.1363 0.0879 9.2031 0.0398 1.3993 0.90156 2.8501 2.375 3.1035 1.9146 0.37893 3.8939 0.13738 5.834 0.23047 6.3176-0.0147 12.64 0.0891 18.955-0.1211 1.4827 0.0371 3.1341-0.73438 3.4961-2.2773 0.40097-1.6884 0.1498-3.4611 0.24414-5.1816-0.0156-2.6055 9.1e-4 -5.2119-4e-3 -7.8184-0.12885-3.3351-0.86725-4.0879-5.996-4.0879 0 0-7.0567-1e-4 -9.3574 0z" color="#000000" color-rendering="auto" fill="url(#linearGradient13910)" image-rendering="auto" shape-rendering="auto" solid-color="#000000" style="font-feature-settings:normal;font-variant-alternates:normal;font-variant-caps:normal;font-variant-ligatures:none;font-variant-numeric:normal;font-variant-position:normal;isolation:auto;mix-blend-mode:normal;shape-padding:0;text-decoration-color:#000000;text-decoration-line:none;text-decoration-style:solid;text-indent:0;text-transform:none;white-space:normal"/>
 <path d="m16.143 11-2.1426 2h-7.5c-6 0-6 1-6 6v1c0-5 0-6 6-6h7.5l2.1426-2c2.3007-1e-4 9.3578 0 9.3578 0 6 0 5.9999 1 6.0332 6v-1c-0.0333-5-0.0332-6-6.0332-6 0 0-7.0571-1e-4 -9.3578 0z" color="#000000" color-rendering="auto" fill="#fff" image-rendering="auto" opacity=".3" shape-rendering="auto" solid-color="#000000" style="font-feature-settings:normal;font-variant-alternates:normal;font-variant-caps:normal;font-variant-ligatures:none;font-variant-numeric:normal;font-variant-position:normal;isolation:auto;mix-blend-mode:normal;shape-padding:0;text-decoration-color:#000000;text-decoration-line:none;text-decoration-style:solid;text-indent:0;text-transform:none;white-space:normal"/>
 <path d="m7.0332 2.5c-1.5139 0-2.6622 0.0597-3.5684 0.24414-0.90613 0.18447-1.5957 0.51085-2.0644 1.0547s-0.67885 1.2489-0.7832 2.0938c-0.10436 0.84483-0.10887 1.8536-0.11719 3.1035v2e-3 15.004 2e-3c0.0167 2.4998-0.038 4.0689 0.74805 5.1621 0.39303 0.5466 0.99944 0.8964 1.7754 1.0859 0.77595 0.18954 1.7431 0.24805 3.0098 0.24805h19c1.5139 0 2.6627-0.0597 3.5684-0.24414 0.9057-0.18449 1.5937-0.51 2.0606-1.0547s0.67402-1.2506 0.77344-2.0957c0.0994-0.84508 0.0977-1.8555 0.0977-3.1055v-13c0-1.25 2e-3 -2.2604-0.0977-3.1055-0.0994-0.84508-0.30656-1.551-0.77344-2.0957s-1.1548-0.8702-2.0606-1.0547-2.0545-0.24414-3.5684-0.24414h-10.803l-2.1426-2h-0.19727c-2.3007-1e-4 -4.8574 0-4.8574 0z" color="#000000" color-rendering="auto" dominant-baseline="auto" fill="none" image-rendering="auto" opacity=".4" shape-rendering="auto" solid-color="#000000" stroke="#000" style="font-feature-settings:normal;font-variant-alternates:normal;font-variant-caps:normal;font-variant-ligatures:none;font-variant-numeric:normal;font-variant-position:normal;isolation:auto;mix-blend-mode:normal;shape-padding:0;text-decoration-color:#000000;text-decoration-line:none;text-decoration-style:solid;text-indent:0;text-orientation:mixed;text-transform:none;white-space:normal"/>
 <path d="m16.143 10-2.1426 2h-7.5c-6 0-6 1-6 6v1c0-5 0-6 6-6h7.5l2.1426-2c2.3007-1e-4 9.3578 0 9.3578 0 6 0 5.9999 1 6.0332 6v-1c-0.0333-5-0.0332-6-6.0332-6 0 0-7.0571-9.99e-5 -9.3578 0z" color="#000000" color-rendering="auto" fill="#491706" image-rendering="auto" opacity=".2" shape-rendering="auto" solid-color="#000000" style="font-feature-settings:normal;font-variant-alternates:normal;font-variant-caps:normal;font-variant-ligatures:none;font-variant-numeric:normal;font-variant-position:normal;isolation:auto;mix-blend-mode:normal;shape-padding:0;text-decoration-color:#000000;text-decoration-line:none;text-decoration-style:solid;text-indent:0;text-transform:none;white-space:normal"/>
 <path d="m7.0332 3c-6 0-5.9999 1-6.0332 6v1c0.0333-5 0.0332-6 6.0332-6 0 0 2.5567-1e-4 4.8574 0l2.1426 2h11c6 0 6 1 6 6v-1c0-5 0-6-6-6h-11l-2.1426-2c-2.3007-1e-4 -4.8574 0-4.8574 0z" color="#000000" color-rendering="auto" fill="#fec589" image-rendering="auto" opacity=".4" shape-rendering="auto" solid-color="#000000" style="font-feature-settings:normal;font-variant-alternates:normal;font-variant-caps:normal;font-variant-ligatures:none;font-variant-numeric:normal;font-variant-position:normal;isolation:auto;mix-blend-mode:normal;shape-padding:0;text-decoration-color:#000000;text-decoration-line:none;text-decoration-style:solid;text-indent:0;text-transform:none;white-space:normal"/>
 <path d="m31 21-9 9h4c5 0 4.9999-1 5.0332-6z" color="#000000" color-rendering="auto" fill="#fff" image-rendering="auto" opacity=".05" shape-rendering="auto" solid-color="#000000" style="font-feature-settings:normal;font-variant-alternates:normal;font-variant-caps:normal;font-variant-ligatures:none;font-variant-numeric:normal;font-variant-position:normal;isolation:auto;mix-blend-mode:normal;shape-padding:0;text-decoration-color:#000000;text-decoration-line:none;text-decoration-style:solid;text-indent:0;text-transform:none;white-space:normal"/>
 <path d="m12.5 16c-0.831 0-1.5 0.669-1.5 1.5v9c0 0.831 0.669 1.5 1.5 1.5h7c0.831 0 1.5-0.669 1.5-1.5v-7.25l-3.25-3.25h-0.75zm4.5 1.0195v2.9805h2.9336c0.0113 1.9969 7e-3 3.994-8e-3 5.9902-0.0646 0.28911 0.11372 0.77838-0.23047 0.90625-2.1198 0.1082-4.245 0.0262-6.3672 0.0527-0.40913-0.0583-1.0778 0.19367-1.2695-0.3125-0.0778-2.813-0.0573-5.6578-0.0332-8.4531 0.0691-0.36273-0.11947-0.88878 0.26758-1.1074 1.5617-0.0693 3.1342-0.0412 4.707-0.0566zm-4 3.9805v1h6v-1zm0 2v1h6v-1zm0 2v1h3v-1z" color="#000000" fill="#fff" opacity=".75"/>
</svg>
