<svg width="16" height="16" version="1.1" xmlns="http://www.w3.org/2000/svg">
 <path d="m8 3a5 5 0 0 0-4.4102 7.334l0.80859-0.80859a4.081 4.081 0 0 1 2.5527-5.5254 3.589 3.589 0 0 0-0.69141 3.1953 3.596 3.596 0 0 0 0.12305 0.33789l2.8613-2.8613c0.0016 0.00141 0.0042594 0.0027063 0.0058594 0.0039062l0.66211-0.66211a4.9449 3.49 45 0 0-0.0058594-0.0039063l0.42188-0.42188a5 5 0 0 0-2.3281-0.58789zm3.8809 1.8535-4.2891 4.2891a3.596 3.596 0 0 0 3.0703 0.5957c0.49-0.133 0.94588-0.37041 1.3379-0.69141a4.084 4.084 0 0 1-2.8613 2.8145 4.081 4.081 0 0 1-3.5137-0.75195l-0.76367 0.76367a5 5 0 0 0 3.1387 1.127 5 5 0 0 0 3.8809-8.1465z" fill="#666" opacity=".5"/>
 <path d="m8.5 0h-1v2h1z" fill="#666" opacity=".5"/>
 <path d="m2.697 1.99-0.707 0.707 1.414 1.414 0.707-0.707z" fill="#666" opacity=".5"/>
 <path d="m16 7.5h-2v1h2z" fill="#666" opacity=".5"/>
 <path d="m2 7.5h-2v1h2z" fill="#666" opacity=".5"/>
 <path d="m12.596 11.889-0.707 0.707 1.414 1.414 0.707-0.707z" fill="#666" opacity=".5"/>
 <path d="m8.5 13.999h-1v2h1z" fill="#666" opacity=".5"/>
 <path d="m1.8594 14.875 13-13-0.7029-0.7029-2.8477 2.8477a6.3532 4.484 45 0 0-0.0052-0.00333l-0.69727 0.69727a4.9449 3.49 45 0 1 0.0052 0.00333l-0.66211 0.66211c-0.0016-0.0012-0.0035-0.0019-0.0051-0.00331l-4.0308 4.0336 4.31e-4 0.0024-4.7574 4.7602z" fill="#666" opacity=".5" stroke-width="1.1903"/>
</svg>
