<svg width="16" height="16" version="1.1" xmlns="http://www.w3.org/2000/svg">
 <path d="m8 3a5 5 0 0 0 0 10 5 5 0 0 0 0-10zm-1.0488 1a3.589 3.589 0 0 0-0.69141 3.1953 3.596 3.596 0 0 0 4.4023 2.543c0.49-0.133 0.94589-0.37041 1.3379-0.69141a4.084 4.084 0 0 1-2.8613 2.8145 4.081 4.081 0 0 1-2.1875-7.8613z" fill="#666"/>
 <path d="m8.5 0h-1v2h1z" fill="#666"/>
 <path d="m13.303 1.99-1.414 1.414 0.707 0.707 1.415-1.414z" fill="#666"/>
 <path d="m2.697 1.99-0.707 0.707 1.414 1.414 0.707-0.707z" fill="#666"/>
 <path d="m16 7.5h-2v1h2z" fill="#666"/>
 <path d="m2 7.5h-2v1h2z" fill="#666"/>
 <path d="m12.596 11.889-0.707 0.707 1.414 1.414 0.707-0.707z" fill="#666"/>
 <path d="m3.404 11.889-1.414 1.414 0.707 0.707 1.414-1.414z" fill="#666"/>
 <path d="m8.5 13.999h-1v2h1z" fill="#666"/>
</svg>
