<svg version="1.1" viewBox="0 0 16 16" xmlns="http://www.w3.org/2000/svg">
 <path d="m2 1c-1.108 0-2 0.892-2 2v1h1v-1c0-0.554 0.446-1 1-1h12c0.554 0 1 0.446 1 1v1h1v-1c0-1.108-0.892-2-2-2h-12zm-2 9v1c0 1.108 0.892 2 2 2h1.5215l2.4785 3 2-3h6c1.108 0 2-0.892 2-2v-1h-1v1c0 0.554-0.446 1-1 1h-6.4336l-1.5664 2.4004-1.9668-2.4004h-2.0332c-0.554 0-1-0.446-1-1v-1h-1zm1.3008 3c0.1519 0.0168 0.32084 0.0211 0.52344 0h-0.52344z" fill="#666" opacity=".5"/>
 <path d="m0.006649 7.0126c0 1.1024 0.88697 1.9894 1.9894 1.9894h0.021276c1.1024 0 1.9894-0.88697 1.9894-1.9894v-0.021276c0-1.1037-0.88697-1.9894-1.9894-1.9894h-0.021276c-1.1024 2e-7 -1.9894 0.88697-1.9894 1.9894z" color="#000000" display="block" fill="#666" stroke-width="1.3298" style="isolation:auto;mix-blend-mode:normal"/>
 <path d="m10.007 7.0126c0 1.1024-0.88697 1.9894-1.9894 1.9894h-0.021276c-1.1024 0-1.9894-0.88697-1.9894-1.9894v-0.021276c-1e-7 -1.1037 0.88697-1.9894 1.9894-1.9894h0.021276c1.1024-1e-7 1.9894 0.88697 1.9894 1.9894z" color="#000000" display="block" fill="#666" stroke-width="1.3298" style="isolation:auto;mix-blend-mode:normal"/>
 <path d="m12.007 7.0126c0 1.1024 0.88697 1.9894 1.9894 1.9894h0.02128c1.1024 0 1.9894-0.88697 1.9894-1.9894v-0.02128c0-1.1037-0.88697-1.9894-1.9894-1.9894h-0.02128c-1.1024 2e-6 -1.9894 0.88697-1.9894 1.9894z" color="#000000" display="block" fill="#666" stroke-width="1.3298" style="isolation:auto;mix-blend-mode:normal"/>
</svg>
