<svg width="48" height="48" version="1" xmlns="http://www.w3.org/2000/svg" xmlns:xlink="http://www.w3.org/1999/xlink">
 <defs>
  <linearGradient id="linearGradient1686-3" x1="320" x2="368" y1="108" y2="108" gradientTransform="rotate(90 214 -106)" gradientUnits="userSpaceOnUse">
   <stop stop-color="#2b898f" offset="0"/>
   <stop stop-color="#5bdbc1" offset="1"/>
  </linearGradient>
  <linearGradient id="linearGradient1002" x1="16" x2="16" y1="304" y2="208" gradientTransform="matrix(.078125 0 0 .086806 .16669 1.7777)" gradientUnits="userSpaceOnUse">
   <stop stop-color="#d9d9d9" offset="0"/>
   <stop stop-color="#ececec" offset="1"/>
  </linearGradient>
  <linearGradient id="linearGradient1686-0" x1="322" x2="366" y1="84" y2="84" gradientTransform="rotate(90 214 -106)" gradientUnits="userSpaceOnUse">
   <stop stop-color="#fff" offset="0"/>
   <stop stop-color="#fff" stop-opacity=".098039" offset=".125"/>
   <stop stop-color="#fff" stop-opacity=".098039" offset=".925"/>
   <stop stop-color="#fff" stop-opacity=".49804" offset="1"/>
  </linearGradient>
 </defs>
 <path d="m13.658 2c-2.6221 0-4.6867 0.05009-6.3856 0.28674-1.6989 0.23664-3.089 0.6805-4.1074 1.5235-1.0183 0.84301-1.5558 1.9961-1.8383 3.4064-0.28252 1.4103-0.33767 3.1273-0.32482 5.3084v12.475 12.481c-0.0127 2.1777 0.0426 3.8939 0.32482 5.3027 0.28251 1.4103 0.81998 2.5634 1.8383 3.4064 1.0183 0.84301 2.4085 1.2869 4.1074 1.5235 1.6989 0.23665 3.7635 0.28674 6.3856 0.28674h20.686c2.6221 0 4.6857-0.05 6.381-0.28674 1.6953-0.23674 3.0813-0.6821 4.0958-1.5254 1.0146-0.84331 1.5488-1.9956 1.8337-3.4045 0.28483-1.4089 0.34554-3.1225 0.34554-5.3027v-12.481-12.481c0-2.1802-0.0608-3.8937-0.34554-5.3027-0.28482-1.4089-0.81911-2.5612-1.8337-3.4045-1.0146-0.84332-2.4005-1.2887-4.0958-1.5254-1.6953-0.23674-3.7589-0.28674-6.381-0.28674z" color="#000000" color-rendering="auto" dominant-baseline="auto" image-rendering="auto" opacity=".1" shape-rendering="auto" solid-color="#000000" style="font-feature-settings:normal;font-variant-alternates:normal;font-variant-caps:normal;font-variant-ligatures:normal;font-variant-numeric:normal;font-variant-position:normal;isolation:auto;mix-blend-mode:normal;shape-padding:0;text-decoration-color:#000000;text-decoration-line:none;text-decoration-style:solid;text-indent:0;text-orientation:mixed;text-transform:none;white-space:normal"/>
 <path d="m13.335 1.5c-10.011 0-11.887 0.90635-11.834 9.7484v12.752 12.752c-0.0527 8.842 1.8229 9.7484 11.834 9.7484h21.331c10.009 0 11.834-0.90625 11.834-9.7484v-12.752-12.752c0-8.8421-1.8254-9.7484-11.834-9.7484z" color="#000000" fill="url(#linearGradient1686-3)"/>
 <path d="m15.311 14.038c-0.66048 0-1.275 0.08245-1.8437 0.24757-0.56874 0.16512-1.0827 0.367-1.5414 0.6055-0.45866 0.23851-0.85318 0.49511-1.1834 0.77031-0.33024 0.25685-0.57761 0.47721-0.74273 0.66068l1.2655 1.8161c0.12843-0.11008 0.31219-0.26611 0.55069-0.46792 0.23851-0.22016 0.53208-0.42168 0.88067-0.60514 0.34858-0.20181 0.7431-0.37596 1.1834-0.52274 0.44031-0.14677 0.92616-0.22035 1.4582-0.22035 0.44032 0 0.85332 0.06433 1.2386 0.19276 0.40363 0.11008 0.75229 0.29347 1.0458 0.55033 0.29354 0.25685 0.52279 0.57779 0.6879 0.96307 0.18347 0.38528 0.27517 0.85337 0.27517 1.4038 0 0.5137-0.10094 0.99992-0.30275 1.4586-0.18347 0.45866-0.44008 0.90791-0.77031 1.3482-0.3119 0.42197-0.67905 0.85309-1.101 1.2934-0.14754 0.15425-0.30287 0.3112-0.45776 0.46792h3.172c0.25636-0.30272 0.4986-0.60515 0.72566-0.90789 0.44032-0.60544 0.78898-1.2111 1.0458-1.8165 0.27519-0.62378 0.4131-1.266 0.4131-1.9265 0-1.6879-0.50469-2.9905-1.5138-3.9078-0.99071-0.93568-2.486-1.4034-4.4857-1.4034zm16.442 0c-0.88064 0-1.6786 0.14679-2.3941 0.44033-0.71551 0.2752-1.33 0.65123-1.8437 1.1282-0.49536 0.47701-0.88063 1.0364-1.1558 1.6786-0.2752 0.62378-0.41275 1.2841-0.41275 1.9813 0 1.9998 0.89885 3.5135 2.6968 4.5409-0.10096 0.06145-0.20064 0.12606-0.29949 0.19276h6.8776c-0.16793-0.09546-0.34066-0.18824-0.52382-0.27516 0.36693-0.23851 0.71559-0.5136 1.0458-0.82549 0.34859-0.31189 0.65141-0.6698 0.90826-1.0734 0.2752-0.40362 0.48596-0.83474 0.63273-1.2934 0.16512-0.47701 0.24793-0.98171 0.24793-1.5138 0-0.5504-0.11018-1.1191-0.33034-1.7062-0.20181-0.58709-0.54123-1.1192-1.0182-1.5962-0.45867-0.49536-1.0551-0.89911-1.7889-1.211-0.73386-0.31189-1.6146-0.46756-2.642-0.46756zm0 2.1189c0.58709 0 1.0825 0.10094 1.4862 0.30275 0.40363 0.18347 0.73418 0.42195 0.99103 0.7155 0.25685 0.2752 0.44024 0.57802 0.55032 0.90826 0.12843 0.33024 0.19276 0.63306 0.19276 0.90825 0 0.99072-0.2296 1.7979-0.68827 2.4217-0.45866 0.60544-1.0732 1.1375-1.8437 1.5962-0.69718-0.16512-1.3024-0.38548-1.8162-0.66068-0.49536-0.2752-0.89912-0.5869-1.211-0.93548s-0.54113-0.72498-0.68791-1.1286c-0.14677-0.40362-0.22034-0.80702-0.22034-1.2106 0-0.33024 0.0551-0.66042 0.16517-0.99066 0.12842-0.34859 0.32106-0.66064 0.57791-0.93584 0.25685-0.29354 0.58704-0.53203 0.99066-0.7155 0.42197-0.18347 0.92631-0.27516 1.5134-0.27516z" enable-background="new" fill="#ececec"/>
 <path d="m15.956 24c-0.26853 0.27169-0.54684 0.54666-0.83747 0.82567-0.5504 0.5504-1.11 1.1191-1.6788 1.7062-0.56874 0.58709-1.0823 1.2108-1.541 1.8713-0.45867 0.66048-0.83488 1.3669-1.1284 2.1191-0.27519 0.73386-0.41274 1.532-0.41274 2.3942v0.30275c0 0.11008 9e-3 0.22008 0.0276 0.33016h11.558v-2.1741h-8.7789c0-0.31189 0.11924-0.67886 0.35775-1.1008 0.25685-0.42197 0.56873-0.86215 0.93566-1.3208 0.36693-0.45866 0.7522-0.89903 1.1558-1.321l1.1008-1.1008c0.5504-0.5504 1.1008-1.11 1.6512-1.6787 0.26657-0.28434 0.51956-0.56876 0.76033-0.85308zm12.388 0c-0.31437 0.2121-0.6182 0.45027-0.91134 0.7155-0.36693 0.33024-0.69711 0.70645-0.99066 1.1284-0.2752 0.42197-0.50462 0.88064-0.68809 1.376-0.16512 0.47701-0.24757 0.98153-0.24757 1.5136 0 0.5504 0.10076 1.1374 0.30257 1.7612 0.20181 0.60544 0.54124 1.165 1.0182 1.6787s1.11 0.94483 1.8989 1.2934c0.80725 0.33024 1.8072 0.49533 2.9998 0.49533 1.0274 0 1.9355-0.13755 2.7244-0.41274 0.7889-0.25685 1.4402-0.62382 1.9539-1.1008 0.53205-0.49536 0.92657-1.064 1.1834-1.7062 0.2752-0.66048 0.41274-1.3759 0.41274-2.1465-0.0336-2.0314-0.95873-3.5631-2.7743-4.5959zm2.336 0.63291c0.73387 0.16512 1.3852 0.367 1.9539 0.6055 0.5871 0.22016 1.0826 0.49525 1.4862 0.82549 0.42197 0.33024 0.74292 0.71569 0.96307 1.156 0.22016 0.44032 0.33034 0.95389 0.33034 1.541 0 0.38528-0.0734 0.76149-0.22016 1.1284-0.14678 0.36693-0.36696 0.69711-0.6605 0.99066-0.29355 0.2752-0.67882 0.50444-1.1558 0.68791-0.45867 0.18347-0.99997 0.27534-1.6238 0.27534-0.69717 0-1.2751-0.10094-1.7338-0.30275-0.45866-0.20181-0.83469-0.44954-1.1282-0.74308-0.29354-0.31189-0.50448-0.64208-0.63291-0.99066-0.11008-0.36693-0.16517-0.7156-0.16517-1.0458 0-0.93568 0.22018-1.7428 0.6605-2.4217 0.45867-0.67882 1.1007-1.2477 1.9263-1.7063z" enable-background="new" fill="#f9f9f9"/>
 <path d="m2 20v10h2v-10zm42 0v10h2v-10z" color="#000000" opacity=".1"/>
 <path d="m2 19v10h2v-10zm42 0v10h2v-10z" color="#000000" fill="url(#linearGradient1002)"/>
 <path d="m1.5566 24v12.924c0 8.8421 1.8273 9.748 11.836 9.748h21.33c10.011 0 11.887-0.90602 11.834-9.748v-12.924z" enable-background="new" fill="#fff" opacity=".08"/>
 <path d="m13.335 1.5c-10.011 0-11.887 0.90635-11.834 9.7484v12.752 12.752c-0.0527 8.842 1.8229 9.7484 11.834 9.7484h21.331c10.009 0 11.834-0.90625 11.834-9.7484v-12.752-12.752c0-8.8421-1.8254-9.7484-11.834-9.7484z" color="#000000" fill="none" opacity=".4" stroke="#000"/>
 <path d="m13.336 2c-4.9905 0-7.8705 0.27628-9.3848 1.4531-0.75713 0.58842-1.2376 1.4035-1.5449 2.6602-0.3073 1.2566-0.4173 2.94-0.4043 5.1328v12.754 12.754c-0.0131 2.1928 0.097 3.8762 0.4043 5.1328 0.30731 1.2566 0.78779 2.0717 1.5449 2.6602 1.5143 1.1768 4.3943 1.4531 9.3848 1.4531h21.33c4.9892 0 7.855-0.27668 9.3633-1.4531 0.75412-0.58824 1.2329-1.4046 1.543-2.6621 0.31003-1.2575 0.42773-2.9395 0.42773-5.1328v-12.752-12.752c0-2.1933-0.1177-3.8753-0.42773-5.1328-0.31004-1.2575-0.78884-2.0739-1.543-2.6621-1.5083-1.1765-4.374-1.4531-9.3633-1.4531zm2.4023 1.0977c6.9474 8.3e-4 13.911 0.0034 20.85 0.05469 2.143 0.08293 4.4643-0.1477 6.4238 0.93164 1.2961 0.69523 1.5486 2.2503 1.7695 3.5645 0.17551 2.2029 0.0915 4.4422 0.13867 6.6699 0.0227 8.4795 0.077 16.969-0.0801 25.447-0.16151 1.4832-0.38135 3.3058-1.7988 4.1426-1.6055 0.82871-3.4755 0.90643-5.248 0.95313-9.4997 0.0678-19.024 0.0843-28.523-0.0176-1.5782-0.11413-3.2705-0.24014-4.6328-1.1211-1.2295-0.99538-1.3608-2.7274-1.5039-4.1934-0.1272-8.9986-0.0836-18.004-0.0527-27.008 0.0997-2.3813-0.24538-4.9 0.70508-7.1602 0.67165-1.5097 2.4657-1.86 3.9394-2.0566 2.6617-0.31658 5.3418-0.14702 8.0137-0.20703z" color="#000000" fill="url(#linearGradient1686-0)"/>
</svg>
